<mxfile host="app.diagrams.net" modified="2022-08-06T05:24:08.919Z" agent="5.0 (Macintosh; Intel Mac OS X 10_15_7) AppleWebKit/537.36 (KHTML, like Gecko) Chrome/103.0.5060.114 Safari/537.36" etag="-KSCPmmWQygEL7vorktN" version="20.2.2" type="github">
  <diagram id="N54v1S6q5kr3K03h2WiJ" name="Page-1">
    <mxGraphModel dx="1236" dy="825" grid="1" gridSize="10" guides="1" tooltips="1" connect="1" arrows="1" fold="1" page="1" pageScale="1" pageWidth="827" pageHeight="1169" math="0" shadow="0">
      <root>
        <mxCell id="0" />
        <mxCell id="1" parent="0" />
        <mxCell id="FmB3CAmOOuIV6bxuXIRM-15" value="User object" style="swimlane;childLayout=stackLayout;horizontal=1;startSize=30;horizontalStack=0;rounded=1;fontSize=14;fontStyle=0;strokeWidth=2;resizeParent=0;resizeLast=1;shadow=0;dashed=0;align=center;" vertex="1" parent="1">
          <mxGeometry x="190" y="330" width="160" height="120" as="geometry" />
        </mxCell>
        <mxCell id="FmB3CAmOOuIV6bxuXIRM-16" value="+ find&#xa;+ findAll&#xa;+ update&#xa;+ delete" style="align=left;strokeColor=none;fillColor=none;spacingLeft=4;fontSize=12;verticalAlign=top;resizable=0;rotatable=0;part=1;" vertex="1" parent="FmB3CAmOOuIV6bxuXIRM-15">
          <mxGeometry y="30" width="160" height="90" as="geometry" />
        </mxCell>
        <mxCell id="FmB3CAmOOuIV6bxuXIRM-17" value="User Table" style="swimlane;fontStyle=0;childLayout=stackLayout;horizontal=1;startSize=26;horizontalStack=0;resizeParent=1;resizeParentMax=0;resizeLast=0;collapsible=1;marginBottom=0;align=center;fontSize=14;" vertex="1" parent="1">
          <mxGeometry x="200" y="60" width="160" height="116" as="geometry" />
        </mxCell>
        <mxCell id="FmB3CAmOOuIV6bxuXIRM-18" value="row 1" style="text;strokeColor=none;fillColor=none;spacingLeft=4;spacingRight=4;overflow=hidden;rotatable=0;points=[[0,0.5],[1,0.5]];portConstraint=eastwest;fontSize=12;" vertex="1" parent="FmB3CAmOOuIV6bxuXIRM-17">
          <mxGeometry y="26" width="160" height="30" as="geometry" />
        </mxCell>
        <mxCell id="FmB3CAmOOuIV6bxuXIRM-19" value="row 2" style="text;strokeColor=none;fillColor=none;spacingLeft=4;spacingRight=4;overflow=hidden;rotatable=0;points=[[0,0.5],[1,0.5]];portConstraint=eastwest;fontSize=12;" vertex="1" parent="FmB3CAmOOuIV6bxuXIRM-17">
          <mxGeometry y="56" width="160" height="30" as="geometry" />
        </mxCell>
        <mxCell id="FmB3CAmOOuIV6bxuXIRM-20" value="row 3" style="text;strokeColor=none;fillColor=none;spacingLeft=4;spacingRight=4;overflow=hidden;rotatable=0;points=[[0,0.5],[1,0.5]];portConstraint=eastwest;fontSize=12;" vertex="1" parent="FmB3CAmOOuIV6bxuXIRM-17">
          <mxGeometry y="86" width="160" height="30" as="geometry" />
        </mxCell>
        <mxCell id="FmB3CAmOOuIV6bxuXIRM-21" value="" style="endArrow=classic;html=1;rounded=0;exitX=0.463;exitY=1.067;exitDx=0;exitDy=0;exitPerimeter=0;entryX=0.5;entryY=0;entryDx=0;entryDy=0;" edge="1" parent="1" source="FmB3CAmOOuIV6bxuXIRM-20" target="FmB3CAmOOuIV6bxuXIRM-15">
          <mxGeometry width="50" height="50" relative="1" as="geometry">
            <mxPoint x="370" y="390" as="sourcePoint" />
            <mxPoint x="420" y="340" as="targetPoint" />
          </mxGeometry>
        </mxCell>
        <mxCell id="FmB3CAmOOuIV6bxuXIRM-23" value="" style="shape=image;verticalLabelPosition=bottom;labelBackgroundColor=default;verticalAlign=top;aspect=fixed;imageAspect=0;image=data:image/png,iVBORw0KGgoAAAANSUhEUgAABLMAAAPHCAYAAAGkkTutAAAABGdBTUEAALGPC/xhBQABTkdJREFUeNrs3Xl8E9X6x/HPSVp2ARFQXBFRUEEKXncutAEVwQWvLeAKooKKC4iKCAoiihsqIrgjXJArtMii4AZp4ecCIlBZlM0VEQRBWcvS5Pz+aDIkTVra0r3fN6++mMycmaZnnjzzzMlkAiIiIiJS1Ex+GtvERACrbitgZ6ekGPVCDoFlExMVWAXtv6QkbFLSRvWEiEi5qbmipvs0r+qwaFyuYaZN/BAFlwKr6Do43lNhi3iXdr8ouETBJaLgEgWXKLhK8myMmld0cqZNvMdZ9n/Ll2sPK7gKHlg2zcvOj2c7QWXTvM50m/v6Ou1EwVUoAffWg/0BeK53LycARcGVLzbNS7XLOnDBnXc7AWTTvNzxwsiwNlJCL/Qj3bkaoT9sJtUIvYiCSxRcIgouUXCJgkvCzxUXqg9ERMpU3j6Slb2pFg2i5syTYCr05xRVcxUhb6q1Ci4RBZcouEQUXKLgKiJ+v18RUN6Dy+fL5INpr+BJMMFTeC5tX4lVq7525h1q6+O9SU/z3qSnj/yPdylxl/vgcrtjePXV+53A8qZaPp97gHvvuThq+3feGcQ77wxy2mf/f9as1yPmhQZp9uUA13auD8AN1zfimWd6ANDxiqMUIWU9uLZu3UjXrg9BYGA2GAxvvpUOQN++8fTtG++0b936Wlq3vhaAq666k563NgPg+edvD9tu336vMXnyM8QndAUgPT0NgNNOaxEWWJ4Ew44dWwF4fMgUrrqqNwD39x0TkTkl70rtCH1wpwZ+R57a57VtcarIo/QxpfWJ5TdQSmNg6bAoouASBZeIgksUXKLgkkgV/WJBEZGy58hG6NfrGvrDdO7ChMbmItVcUugsXKiCXqQIxKgLSkGG694dwJoJE8LKFNulC8Bb+P23h5QxNnQ6+DV7ztcVulwGuNNMnfq6gktBlXPNmnWl7O3ZgykQSHOd7WQ9XmtSUkwgILN/N6bJw/TQwE9E4OqwWCYrfgMml/tJZC0fHxoEgaB5HmifrfXpNjHR4vfbkHWXEBNzoUlJyX7y9qxJSTG43eB2n48xvwBPBNYzGPN9YXzxaLk9W/Q0NsHnV9LP47B9bHv0APjajB9/2DNLJyMZc9AkJ1cq1Ex6yy0Ax7B3718VNrjuvu5Cxk5bGBFIg+/szOrvvqHtFYlM/+9ovOstP61ZQa+rWjJ3bSY3xDfC7Y5h4ry1pSq4dLZYivz150YmjhkOQNqcZF6YOA+AtSu+JeXrP8LaNmrSHL/fB8Dm339m46/rdDhWcOUSXJt/592XHgPguBMbUrlyVQC2bdmEp7Gh3nEnas+WhpKyPNVcnsYm9HmVlueka+jLg9IUVKKhCFFwiYJLRMElCi6puMEVOPXXdeLROtYwrCIPQ4iIlE1HlLZ96SMoLSP07riBWRfNzV5BaXrXwHRqrjeuyzpf+ggNzyu4RMElouASBZcouArLV+m/4o4bWNAzP+0ZBVfO/t3j9eBQhRMw7riB/PX3HgD2ZBxw5uUl2NxxA3l01CeFOUTg/OS0PLd1pQSDq9GJdZzAcccN5OFb2wJQ9+jqAFSvmvXBlfp1aoS1y8z0RQTWzx8PAODp+zsU6nO0s1dwaVzWB24Wr13J+M9nhC2vck2rsEAEOJh5UFGTR0V2Jeq6jx5ypoMZbES24AjNbKGPQ+dHm1eYPk//2pm+9eXH6HFpZ+fxcXXqArB/xlIqd84KtG/XrVLU5PXocCQrl6YR+kCWMxqhr+Bni6F1ljtuoFP8q5BXcBWKZav/cLLfv3tk3TNj9cz+2iOquY5MTrWWKHOJKLhEwVVoZ4ranSIiIlJKHVGdMm7LGnQf+lzqQLcrqfsxp6eooJdC5/P5kyvy36+7OZdSb9gPAapt3bF9T94PQ2bwoNq3PKXDYgXRs36TfPXx8H8mFEqfDq7dvcSHZnRYFB0WK4pFm5cfeuUbF+cd2yzP627YtZk/9mxRcBXUL9+tBKBhi2ZRHx/cf4DYypWcZVWPqsGxjRryy3crnTZlhd/6w4JNZ4tFbNil19GwRTN61m8S9XHvk5qHLTu2UUN61m/CsEuvU1pUcOXNiIWfRp1/QtPTsxfUjPxugfa0givPZ2B8M/PjsMcXXNuJnvWb8OSCjxi3ZY2TvcZtWcPRDY4tM3/b5s2b2Lx5Ezt27jiibWgoQkMREc5Lu6FQ+nRx/GQNRVQkcXFxxMXF2WyPV2ooQo4oqHLJRmcHAm5Venp6s/L0d5f7zHXH8WcXaL0V8wr9JCDXDzwuW7asOYA/eTP+5M1HNoRxhOuXmeAadul1bFyz3im8Jw/Keutr4bQP6Vm/iVN4v9t3EN8v+MpZ75ELLuP+s3L++sHVXy5ypr/7PI2xt9/PkISrI9q99UfkPp35/Ghn+vVe/fi/ydPYvnFT2PrN27UBIGX4yCPug/T0dAJZyYQG2bJly1i2bJkrPT3dGGNs9gDJ/mOX74LtB8EP7PJhf96Lf/qfEe1KixIr6BdO+5ALr7sqx+WPXHAZzyz6DL/fj8tV8NdAz/pNgs+zTBT05/bxFEpBv2SMt+IW9LkFFsAziz7LeoKuI3uKJRlYBXq1GzCGDNVcUfRv0YZvZs5xska0w1jo/OD08A5JYfNGdr2NnVu3OYfRjN27uef08yLWnzL02XJVI377qpdvX/VWC2Se/GUfl3lwyRivKQ1Zq0jOFqvVqsm7fQdx/jUdw7JG00sucKaHemfi9/vZsGq106bNTYeC64H338YEMtYNTw0CoE+jcznjwn9FZKNfl39fbk9GlozxUpa/REKDqKWs5tJQhEhJBVew5sqLQZdcAcB7jz7Jyzf0omf9JqRNeD+i3YDz24dNhw4nZJexe7f2rA6L0f296c8jerM57b9TiL+lqw6LOixGOtKrGEpLYOWTzfa/C/h3tnmnAkeHzHs0yvwLQrY5XsFVTrndrqQCHk0sWePwp2VbtgXYGPL4aWBQtvkLQ4IvTSdcEgwGmy2DhU6fdJjl2acnBP4fq66VCvyy6toV27XrGeoJyau8j9D7fABr9LXDBXxxJiYCWJOSov4TEREREREREREpxfI8gBcY9PNr0PQIOlsDptmCKikJm5Q0XT1xBH2YmIhNTKwwVyPk7W0eawE6Kzwkr3TNlpRgxsopkS1IA3gCv/9xdWW2eireU6HrqQJnLJvmBb/fKqhy7B+rwBJRYIkCSxRYIgosUWAVw2l92HTVyy6POl8UWPkKKpvmdQLnnEaNyPjsUy68624Aal7RSXu4hJSrOzEv/+mnsGD79znnKFspY+VfMIBsmtfJWDbNy4mJXQCY/ewIZ5koY+U7uIK+G/c2AL+nTM2xjShjiQJLRIElCixRYIkUTmAZwCxUF0o0BR5uMPEJABepC0WHQin9Gcu7wAK0xUeaujE6T4IxCqz88kHgzr0iOhSKAksUWCIKLFFgiQLryE7L+S59vjM9Y/oYPAnGeZy97XuTnsaXdS96UWDlxtCvX7zzqPO1ffCm5vwJ9XfeGYTb7eb995+PCMC0tOSQeYf+vFmzXo8IVE+CCVs/2rSU6cCy3Hb70yxZMheA557tGbZj+/aND2vduvW1pHqn8OYbD4fNv7ZzfeLjk8K2O/qV+wA47bQWzjbT08OH35Knvkjt2vXD5lWpUp2MjD3s27dXUVKgVJGX3R7lKzwCGaXIbnzhSTC5Zq0jbV9Mh3iTWx8qY5WA/AZJaQsqHQpFFFiiwBIFlogCS8p3YAXGhDSKmAO3i0YV+e8/oo/YK7hEh0IpGxkrdb0F+NrCherGHDJ6Y13znm+BcW4FlehQKGWkeJeiFXzjOvDQONNu93VmypQPIto1a+Zm5Up/6JvdJfXmtwKrJAOne3cncMyECTnv+NjYFuZ//wMwNjERfD4b9Wx85UpfcL5NTLQYUw1YgbXYLl064/e/DJwSFqTGxGNtGrAfqAJYjHnHJCffrkNhOWVSUsAYQ2bmqpy+7zCQke6Nun5ycgbWNgbA758RCKqs7QYD09r5gXlVDm3U3qaMlYNRQ+/h/qGvlu7AmTCBw40DmuRkgh8PtomJJpBRPg8LPhgd+CHksElEEB1uftZJbIxJTvZVuMDyNDZ4s4Y68DTO6o9ojy//T/eoy4PTZTaDFeGAdGgQV8izwoljhrPi2y+coPE0NjkGTejy0OATFe8R3n3psRwDKCefrNpHh7Or0O7qG7XXFVhEDaBo8/x+PwD3Dcmqq5qec57TNvv/osDK+zHd5VLglKb9oS4QBZYosESBJaLAknIeWJ7GBpfBuAzD1I1R+6dCj8Qe0XBD/GkGYEjgR0SHQimlGcuXPoKivNtMfrnjBmZdhzR7Ral5XqZT8wp7OCxXGas0BZUOhSIKLFFgiQJLpMwEljtuIO64gfleb9JHywD4V7fR2jsKrHAfzFuJL30EvvQRuOMGcvCgL9eAC857d8a3zrxlq//AHTfQCbRgu8Lg8/kwnZpjOjUv0Pon3tJOkVMSgfWfds3CAqjKeYNzzWz1jq4OwO1Dp3HTlS3DAqj74KlFNjRhZ6+ICLCcpt1XnsOlg+5QxORRkV1BGhhAPez8aO3yuu6ROv32jnw9chIX9b/psG391rLsxx8A2LhtiyKnpAKroB579TOevOeyIv0dbrcbgHVvz3GyV2gmy8+0lLKzQnfcQOq2GeYc9txxA/H7/Tz9dqr2igKrYN5IXoQvfQR/78xwDm++9BHEthqkPaJDYcH1Trogz/WWKGOJKLBEgZVngXEn3ZyhLNdYgbM5o+ASHQpFgSUV9FA4bssadBlw7nrWb6Jr3kVKRcaSovXUjgkAW6ylXl7XGVy7u1FgSVTD/5kAYK0t0LoWwOWuWv/Ro7ps1aFQCtXiTUtK/LoeZaxSZtHm5c70ufXPIsYVU6B1FVj59Mt3K2nYolmeHodO/7H2R44/47Qy9bcu2fK9zgqLSzBQetZvgt/no2GLZvy96U9n+fpvsq6RDy5bPOsTAF7v1U/pUIGVP0fVreME2/yJU+hZv4nz+LXb79de1qHw8IJBM27LGvw+X9jj/lPHcXb8JWHzyprNmzcBcNxxDY5ofQVWPoUGi8vtDnt8dvwlOQbUsLRZZTLAdCiUfImLiyMuLq7cviWm4YYiFhjpNC1btvTnEGAWID09vVy9r1gmMtYnY8cd0frrv1kKwHPX3pKv9Z5o/58jfu7GGFq2bJnnzORP3ow/eXPBf+H2g0e2fmkPrBFX3ZBj4R3q4L79DDi/vfN49ZeLnOl7Tj+PRy64jKlDn3Xmfb/gq0N106XXsXHNegAWTvuQXic2C9v2hlWrAWh8fiseOtfD9j8OdfiCSVOdddcu/Jae9Zvw8g29wtYfMveDQumL9PR0ljVubJY1bhxtmYmWrYIBFvyxn/6F3bgf9vjgoB+2HMB+syOinX/etlKRDPKUfqN9r3BhXjZz96mtGPvz0qjLls75nFYdLy2RznmoVQLPLy345xxDL5vJ63czn9vHUyj9umSM15TLjJUfOQUVUGJBBRxRUJWkSpWOqVauDoWv9ujjTM94bnTY4c2XmRn1sLj9j82M7n5ovd1//xPWbsGkqU7bd/sOino4LU+WjPEGs40BFuU3Sy0Z4zVfv5ScUa7OCpfPnQ9Av2ataXtLV2d+00suCDtL2rz+J4Z6ZwLwYFzbsHGnUTf2ZtCcKaR/6iXucg9tburiLPu/ySkV5mxyyRgvwIVl9fmXihqrvCpIjaXhBpHiCqzQyx5Da6yXb+hFz/pN6NesNQB7d+zE++7kvL7qI+qq7z5P057ToVCHQh0KpSTZbP8/E6XNuJA250WZD/BEfpKGAqviWR7liLAgZN7ikOngfAsE35PsDvQoc8MNgbpH90go/KzlBy4B2kfJZv/NIcOFzh8ayFrvBh6PL1OBJUVe734J9IyyrHsO63cvSP2sQ6GUv+LdpKSAMcYmJc1UlxXg+NazJ9SseRSVKjVUb4iIiIiIiIiIiIiIiIhIRVEkl1kEL8kl681sXb8lxcYmJQFsxNrjFXtKWvlLWG53RzNlysfqYimR5FXBPstSkRTZNaVKWCJSppKWiEhRKNGPhdk0L/r4vhSoko/36LRPlZYSlpQdNs2r2FHSEhFR0hIRUdISESUtERElLRERJa1yYt/+A5h4Dybew/iPP3Gmg0y8h3rXdKb/mLG4E9pFLAt9nNM8ESUtKTRVL+/AlCGPYdO89LiiAzbNS/UqVcISz/HH1GVkn7v59PnnANi07dDX+D7Xu5fT1sR7mDZsqDpVKgR950AJsWleTLyHrk88yT3XdubV6TOc+dn957HHAWhwzDFRtxFtHZHyqsg+MH24D6rq4lI54uDN5ap4fWBap4ciIkpaIiJKWiKipCUioqQlIqKkJSJKWkUk68JIY8As1G6QfEbPQt0EsOIq0YtLTXwCwEXaDSJSJpIWQGqaBfBaS4J2h+R6kDPsdhnatG1rlqk3lLSKnTfVAlira+Ilj6ylhs+yNBA7azwJpql6peLRQLyUVU3UBUpaIiJKWiIiSloioqQlIlIW6CaAITZsWEv3W7LGd5s2PZ+xry1ylnW/5Uw2bFgNh975BMCTYCLmhfL5fFzaPrybP/k0g0qVqpTo33q45y2ipFXKffXVhwwedHXEi/jKTrXYu3dn2PxgAsvPCz5aW0+C4fO5mVzZqSb79+/Fm2qdZJJ93VmzXufll+4C4IorevLQw++Eta1Vqx7TZ2yJWD/aNrM/l04da5KRsct5PHeeD5fLFbFeMJHfdef5rFmzONe/TURJq4hdfPFVERXUGWecS/XqWUkr1O7d/xTK7wxNKNlf+MHHngTD2LH9OfHE0yPmu1wx1K5dL09JKloyDMrI2OVsN3nqi7Rv53Yej33tG5o2PY9Vq77m3nsuBuC117/h0vaV8PkOKnBESaskjXyhF7NnvwXAm2+l07hxC2fZ4MGd+erLmblWTYerqpxKrftQJkwYGpGEZs85VO306H4Wv/32g7N81qzXIxLRrl1/c83VdahTpwEp0/4A4MNZbwBQu3Z9Ppj+Z47zsm/r9tta8NNPy3nq6Q8PWzlt3/4nMTGx+HwHef6FzxU4UqxK7B7xwSvitQukoDwJRveIr4D07qGIKGmJiChpiYgoaYmIkpaIiJKWSLjc3jmU8i2mBIOOorjkQkRUaYmIqNICSF1vAb62cKF2heSVgYUJjY2+EEWVVvHyrrdYsEpYkl8WLvSu17cLKGmJiChpicgRV5ZdumC7dOloExPn5NgmMZHclpcnusuDKCl0707oh/fNhAl5elc7+KFsoI9JSRkbZT4mJcUEHncD/hfyOOqHuUPWXQ00DWlzMnBFSJuFwAVApklJiQ20ucJ27doCny8dY3wmOTkGwCYlAfyEtacC60xKyhkhv8eE/O2HpitXrsX+/TsBS3KyyxhjS8uH0EvuLg/rdZcHOTKexgW7y4Pt0QPga6zN13hqtGRmhw7NOvivWrUXa2NDX/yhvzskSSQDXaI9N6eNMcdg7Xbn9eFyGeBO/P7XnMTSrJnbDB3qj/b3hibNbEkp+2vf4nZ3xu+fCWzG2mOzJ9WI5FatWl3z3/9uU6UlUpxH6vHjAS7KKYnlq9JauTJ7QlhmUlKwiYnGJiaGLzPmbJOc/H0gERC23OV6CL//eYyZYZKTtweWZyUKa9Mx5vXANgAqs3KlL7gdYmIuJDNzUdQn2aABQBU2bdoX8rvew+/kuz8C/2dEXb9aNYC67N1rgUklnbBUaRVfRZDT359vd//nAsZ+sEiZ5wgqrWI//cw6PbsNiDPJyfeWmdPm0IotJuZC8/77pSLwNBBfAnr2G+4kM09jw5Iv5zrTAN0vOxNPY8P6H77jxcF34mlsGD3sPgBWL/+G1csXh63/xWcz8DQ2XN+mYdj87NNSQpVBcjImOfmdspSwyBqPw6SkGJOSYkpLwtLpYTFq2uICxk5bGDF/7Aff0PSc8xg99Svu7ZJ1D/atmzYA0PjMFlzZrRcfvf/G4SpWAP7841dnuluvAUdU0YmU2mSq08PSae6sybS/+gYy9u6h0zk1lHzK8Omh6PSwQmh/9Q0AVK1WXQlLRElLRJS0RESUtERElLRERElLRKScJ63ABY96O1oKGj+KnQoqpoQDT4lLRHR6KCKqtIqEL30Euio+5Ajicsebcx6en32+nfMDQFtsZpp6KYvp1FwVuiotJayS5vf70vzpz3jDEtbslWB9XiWsbIl89grFjiotKRUvRmxC9jlAgnpGpIQrLRERJS0RUdISEVHSKuNG/+8rdYKIklbeuOMGOtPvzV4GwMY/d+COGxi2zB03kNhWj+KOG8juvfudec2vewl33EDSFv8EgLU2Yt3Jc9LD5gWng4/7PvshAO9MXxz192afV5osWbeKJetW8d1PayKWmU7NOfvOa3Jd33RqrleNlKgy/e7hjZ1aAnDy5c8EL6HAHTfQmT649OmIeSum9QubF9PyUYbfexkAI95JZeBtCdz86BSnPcCE4V3oPnhq2DyAXk98EPX3RptXGvh8Pv7Vtxt29oqIJBScN/6BpyKSU/1adfhz8vxcE9iPb8+hUYOTIubb2Svo+PhdfLzki7B5IgVVYrdb1nVauVaTJtsLvFD6yefzEXN1XI5Jy3Rqzjcv/Y/zzmgWUVEF1zGdmjttI/Z9YH60pGQ6NeeEY+rz+3/nFV7w5nKBqW63rEpLytORKiTh7P1gMVUrV8n1qBYtY9rZK6iZeAG7MvYCMGXA82GJK3uy2z9jKZU7t8oxqYkoaUVWL9EqvTyvW5pO8wrcB253rgkjdFlO7ULn70xZdNg2QZViY5WspFBUqHcPRw24iqOqV46ayEIH3XNKdCKiSqtY3XP9xdxz/cXO4xcfutJJTJnLsgbtL2pxsjOvPFRXIkpaZVS0BHT/jZdw/42XhM37YsJdeVpXRHR6KCKipFXWGExq9jlEzBNR0ip2gXEjXUMTujNc7nhX3COesJTVqRkYtwcTE68eCu0X3QSwoirRMS0lrjy+QDueCTBffSWi00MRUaWVd+O2rEEf5ZF8V56w7db6TeqqJ1RpKWFJmWDhmHFb1ih2VGmJyJEa8c97AOf68bcHeyHGHmetaYChAdjdwCas2WQM613WplWvVW/GfabjfvWckpZIoXrWzgQ46uCOf3bm1s5HZkRZCDZ4TlEn68eebS3tfXDnzh1bGf7PhNxPh41ZO6jWLU20F5S0RPJk+D8TOLjjnxI7HbXWnjH8nwkWYHDt7hX+HWQlLZHDWLR5OQBu4+Zfx55d7L9/n+8A321drR2hpCWSPz7rcxJYbqrHVKNW5RrUiK1GrDuGSq5YYtwx+K2fA76DHPRlst+/n53797B9/w6s1XsKSlqlSM/6kUMR7/y5GmMMfp+P2xucFbE88M5q2Pp9xo3m3Cuzbgsdbb2jjz+Okenz6Vm/CSee1YRhabPU+SVkT+Ze9mTuVUcoaZVdoUkomIiyzwt6ccX/RSSscVvW0LN+E976YxXumJiI7T78r3b89dvv6mhR0pLCtXDah7x514PEVIqNmtQyDx6k1wnNGLdlDQPObw9A25u7MKH/Y7S9uQt3HH921GT33Lfz1LlFaNv2bQAcU+eYEn0emzdv0s4oyS+20MWlUgin3sXyxRbnpd2QY6zWqlWLqlWrFeor8p+//2HfvoyoixfHT9a7hwp9kYLbsWMHO3bsUEcoaYkUsNLPeifOtGzZ0g8QFxdn09PTI6qTuLi47NXTqvT09GbqQSUtkSLVqlUrgC5+v38KQMuWLYmSoPIyDHF29nbBZGf8WbOtq2TPzPwfbNEOL+23pnm1Rx/6t2gDwOjufXig+b8BeLbzzc47a8MuvS7qZQWrv1zE6i8X8edPv4bNXzjtw7D2Pes3IWP3bufxjGdfAWDJR5857RbP+sSZfuSCyyLWf+SCy9ix5S/ncXY5bSv0uX/3eVrEdvfu2BnRDz3rN4n6OwBeSLo14nkFp9d/s9Tpx+EdkgB46+6H6H3yOc78F7vdHrZ+NCO73hb2OPPgwRKNkaVLl7J06dKp6enpJvgTGKtdFZp8sv9kH89dtmyZK0obAHzT/sQ37U/8yZvDfthedH+7Xb4r8vf5/MpYpb3SWj53Psc2agjACu8C6p18YtYRx+cLexdt3JY1bFyznhOaNHbmNb3kghy3+8is95j39iTa3X4TPV58kj6NzmXcljXs2PIXnQfcB8CYnvdy1QN3A/Da7ffT8f5ezvpDvTPZvzcDrGWodyZjb7sP43IxaeAwPLfdGPH7cttW8LkHp8fefj93vz2KB1Pe5cVutzP446lh/TBuyxo+ePqlqH/Xg8nvAnBw/wHneQFcO7Avz/3nFt78fSX3ThjDgklTAdi4eh21j62XVY1c7uHYRqewfeMmNq5ex5MLPuJAxj7uPKVF2HPtP+Wd8ACKjS11cZOeno5NTGyW20B8eno6oYnLmPxXUf5525RBSoDePZQyq7jePTy3j6fUxOqSMd4K/+6h7lxaAu44/tDn13Zu1dG6tFsyxhtMFiWVMBYtGeM1Slhl4PQw1Dcz53D+NR2zxp2eG03nh++NduTNGgNat5hqtWoeOp1rdy1D500HYHDrjgz/Yk7YVemh0wsmTaXNTV3CtjviqhsY+OFkZ0yn/5R32Ll1GzXrHRPx+9/4bTmxVSpHzA9uf8Oq1bz1hzPcQo06tRWFZSh5HS5xXdi3PcCZmZl0AH9rMA2stQ0wpgHW7sWYTcbaTRjzI8aVVuOYE6anDR2/T72r08PSflrjJDFrbYHGU6T4Tg9Fp4cVXuibCEpYIuUsaR3IyKqcMw8cCJu39dcNUdunfxb+vaZ7/sm6WvngvvA72gY/YLx3566wthMfHorf54vYVk6XAKxbtIRN637MtU1O1dbh7Nu9x5kecF47RatIaU9aX02dwV8bNgIw/ZlRfPG/DwCYM/ot6p1yktNu7cJvAfjy/enEXZbApEeGAbDllw0YV9af6K4Uy8bV6wB49KIO1A1cPnH/mRc526leuxZ/b/oTl9sdsa2Tm58V9Tnu/vsfGpx+WpH8/VVqVHemE3rcoGgV0ZiWlGVFNKZlC/g6mQzckMdta0ygPJ8eipTgAT34Y4F9IYlnTeB/GzLv+pDHdQLTWwL/J0dJXjYP7S3gAxaEtP01MD0h8P/XSlrFd5TUEUcKmk225VZlFZF2gR+AJtli12T7P3jxXX3gdyAxh4QI0C+X9ga4BAj9QOXJQD2ge2D5RRVt/5fodVpKXFJGhkyyJ6iTgA1R5icAqdnmn5TDdk4MefxSDu0BfgSOirKN84FvdHooInmxIYf5qfnYRl7vj701h/nfVNTOL/ykZQwYs88mJmqQXUpEYBD+dvVExSmFCzNwlLikZLjdHc2UKR+rI0RERERERERERERERERERERERERERERERERERETKtyL5wLS94QaAUzhw4Bd1sRQ7l+s9M3XqTeoIJa28JayuXQGuwOebA9xhUlLeVjdLcbBJSQBurM3EGL9JTnarV8qfwr9zadbXb82hZs2aZty4XepiKbYjcHIygM8mJhqs1W2RymshXWQBpIQlJV15JSamqheUtETKknh1gZKWiIiSloiIkpaIlEsxJf0E7HwvwBosZ2h3SK4Ma01bTxN1hJJWCSWrVIADWBur3SB5CxrOsGleizEHTduESuoQJa1iDkALoIQlBYkdxU0FViJjWna+Fwxr1P1yBDGk+FGlVaxlPqAxLDmyU0V1giotERElLRERJS0RUdISEVHSEhFR0hIRJS0RESUtERElLRFR0pKS8tz/3sfEezDxHr5etcqZ7/P5nPkm3sPz/3s/Yll2p994U9T5IkpaUihMvIcBb7zJQ926cm3r1lzc514qt78srM0DSYkkxbfl4TfejEhINw1/Kuzx+o1/qFOlQohRFxS/PRkZANg0rzPP7/fj9rQPazeyz90ArPv9d8646ZawZe/NncekwYOcBCiiSkuKzKC334ncEa6cd0X2hAUQ63Zj4j1s27FDHSpKWlK0Xrjrroh5u/dmRD2FDFZRoVUZwIF5nwNQ95pr2TVntjpVlLSkCM/JY9xOUmrXrz+ndrueozp2ol6tWmHtbJrXSVbL1q2L2M4nzz0LQI1qVdWpUnFeP+qCkmHTvMxbspT2/R8E4J+PZlGrRo2obWc9PZxWd/SOqLYuP/+8iHki5Z0p9BdjYiKANSkpJrcXrHMrQJGCBm+8x+QWgwC5xaHo9FBERElLRERJS0SUtERElLRERJS0RERJS0RESUtERElLRJS0RESUtERESlHScrnA5Rqm7pcjiCHFj5JW8TFt4sHvH6LulyOIIcWPklYxB13Wze30CXwpSOwobiqwmBIOPiUuESkblZaIiJKWiOj0sCjNn28BWvotC6ylhnaH5MYYUhPijb4vTUmrZHhTLT6/brkseWctCd5Ua3ET72lj5qtHdHpYrAkLWK3ulwLxkaZOUNIqCU3U/SJSlpKWiIiSlogoaYmIKGmJiChpiYiSloiIkpaIiJKWiChpiYgoaUlpsHDhHHWClEkx6oJDrr6qDrt3/w3Ax5/spXLlqgBs27aJpMTjAejY8XYefOgtZx1Pggl+ljIqT0LkPQ5za18crLU8OrBTiT8PESWtIxBMLlOTNzJ16kieGNqFp0d8yJ29/8XatUs49dTmtG2byPjxQ5gz5+18veDr1j2Ra665q9T8rcYYJSxR0ioPjjqqDnXrHs/dd4905q1du4RRr/wfzZu3BuCW7o/jSTB89tlELrvs5rwlrXoncONNj0ZNkt5Um7W9zw8QExMbUZmNfNFLy5YJeBIMLpcbv9+HN9XS4fJqHDiQEVa9WWtp5zl0xv/pZ/uJiYmNmBcbWymsQsz+O72pllmzXufll+6KWiGGtq9b9wSmJv+u4JFiozGtgI9m72TXru14EgyeBMP69d85y4IJK9Qro+7J87ZX/7DI2e6kiU9FJIBzWrQlJibWaf/Z5wfwplr+dd7l9H8g9J53hxLNgQMZeFNt4HHWtoc8fp2zbW+qJTa2UtR5OSXP4Lb37NkZlqiC83/8cbkz/4PpW/CmWiUsUdIqKdWqHeW8QC+++Gp63RHnLEtLS45o//DD4/K87aZnXuBs+6abB0Usf+65T8LL30AC69Xr2bD5r475Kuxx4nXHk3jd8dSpcxx16jRg2JMfcPbZFzsJ8o03BkSdF3m6GB4G36/6OnryXf0NAI89PoX/XFvf2aaIklYJ8CQYbrqxMYsXf8ZXX81y5rds1Y5hT3Thig7VGTzoGudF2qbtdU6bvn3jnZ9U75SIbf++YS2PP/Yf5wdgxvQxAAx7cjodLq8a8Vw++vDNsMQZzfbtmxg0+D22b99EyrQ/2LlzO6ed1sKpjJKnjow6L1Tffq9hrZ8xr/ajfbusZHne+Zfn+nuff+42ps/YStOm5ytwREmrpMzz+vnjj58Y8PDlNGjQyHmRjxw5l7nzfOzfv5evvprFzbc8HjGIvfy7+c7Plq0bIra9e/fffPHFdOcH4JVX7sGbamndunPEONEnn+7jxRd7c9nl3XMcMPemWlq0iKf/Ax4Skx4AoGbNOnz33Xw8CYYrr+rN3HmZUeeFuvrqO0mZtplp017G7XbnaYC+VSsP13auR6XKVTWgL8Wu0Gt7m5gIYE1KSo7bDgR6mYv2L76YweOPXQuBQfuZs7YVScWnRJCnfjKHi0GA3OJQyia9e5gPrVt3LvKEooQlotNDEVHSEhFR0hIRUdISESUtERElLRERJS0RUdISEVHSEhFR0hIRJS0RkYqYtAJ3NNAHWUWk7FRabhe4XTTSLpACHPR0wKvASuwuD23bGoCfVXGJSJmotERElLRERElLRKQ0KdE7l3rXl83bLkvJ8jTWQLwqLSUsKUO8663iRkmreKX9aHEZnlD3yxHEkOJHSav4+C34LY+r++UIYkjxo6QlIqKkJSJSqPS9hyKlXODLZ+dQqdL9ZvLkdTkuz/py2o5KWiIVITH06AHwNdZeaCZMyNMlFaHfZB1kUlKMTUoC+AJrL4lYdphvv85l+RX4fENyeTpXqNISqWDJKl/rdekC0BO/Pyy52K5dAc7A57uEOnWqmzff3BtMRDYx0eb2WdtAsjtALld02KFDAVysXOkDwO2+CJ9vYUjSy1q5atUaZuLEPYG/rwq7d2cA0KxZLN9/nwncid//GvArcApu90XADny+7wGLMS7gd6w9ISQRb8XautGSbXHSmJZU2GRle/T4GmttfhMWgJk6Ffz+ccFEYZOSPgbA5wOfbw2AefPNvYHEAm53k8M/KQvWxgYTm5OAQq1cCStX+nC5xuJy9cDn+zr8iZm+GHOAjIzdAOzeDbt3Z1CtWl2qVavLypUHs7X/DvgWn+9rfL7vcbk6BX7/cqw9MdtzK/GEpUpLKmbC6t4dbM7ljO3ePXKZMU+Y8eOHZjvdw3bpYoCh+P1DbGKixe0+C58vfF2/H6BaHiq3SYHKDZuYaKJefG2MF2sxU6f2CcyZEKjkshYnJ4+yiYmjApUdQCoAe/f+FfJ8Hsbl2hlof02wEgw5fQVrm4dVb2735RF/l5KWSPEwEyYAGNu9O9ESQ17HtJyKC4baxMShgMXnSyYm5lQyM3+2SUmnmuTknwOne8ty3VBWYrsxe4Vlk5J2Y22NkKT1EtYmhCS6zvj9M6Ju0+0GeBmfL96kpBjn1PL77/3AnYf920KTp8/3KS5XVyUtkVKcvHKtjLIqkrlAu2wv9GaBZZOw9qewKii0ksl++ud2n4/P54yP2W7dAC4gM3NhtuT2obNuVqIjp3EyM2UKNjFxptN+5crAoJCrQKd4ZmpWhi7x/VbopXdIqZlTG33usGD63ZjAd4vSgv1X4eX0wenDvUOX62kj2PxUWnk45XsFv/9ejPkCa1uXhjGhgryegV9NSkpDVVoVgM/n49Im4d38yaoMKlWuku9tjZw4jwdvaa9OLeLKq9C2l1WY3GcTE+/D2hm43WeVmWSV9W7hFqytF0j+DUvLc1PSKibZq6NZk1/n5cfv4rQz4/jxh3QSb+3H3YNeDK0inPU8jQ3e9ZaP3n+T9IWpzvIqVauzL2MPALOX76ZqteoAHNi/jw5nVwXg89UHccdoN5doMkxJAehcpp5zcjJA/dL43HTJQ/Gdyjg/2XW942FS3n0prK07JpbZy3dHbR+0L2MPfQa/TExsJTqdc2istsPZVZm++C+mL/6LS5vGqvOlXFHSKia39nvS+Qn11ofL6D3g2axqacrbzvzPVx+garXqfLJqX67bva7H/Xz2w37ncb8bEwC49ry6XHteXQDef/M57QApN3TeUExu7jM4X+3739yekRPn0uHs/I19JfboGzZY7/f7cbl0bBIlLSnA6WFQ9/uGcnTdY3Ns+8mqDDqcXRVPY8Mk74/c5Dktz7/nkkuvifh9erdRyhNd8lAKXX5WVT79PiMs+SjxRD0QFOolD6JKSwqoZu06qpRElLTKjuSvNqoTRHKgEVoRUdISEVHSEhFR0hIRJS0RESUtERElLRFR0hIRUdISESnhpGUAw1p1vxxBDCl+lLSKj+c0A5Ym6n45ghhS/ChplUSxxUHtAilA7ChuKrAS+8B0QtZdDCp5f7QAa7Ccod0hhzslVIUlJX6XB89pBtCpooiU8tNDERElLRFR0hIRKU1KbEzLLn8OoK3f70vTbsjijhsY/Z7ns1ege+qHMDHxpuOZ89URqrSKld/vQwkrnC99hFXCyssRL1Nxo6RVzAkr/RkMxqvulwLnrdkrFT86PSzGgMsqHBLU/XIEUaT4UaUlIqKkJSKipCUiSloiIkpaIiJKWiKipCUioqQlIqKkVfIee/UzdYKIklbeueMGOj8j//t/xfY7g96ZvlhRI6KklffkUa1KLL70EfjSR9D/ln+HJbKOd78LwHEJw3ll8pe44wYS0/JRAF6bupAGnqectkE1LxqCO24gntvfjEiMkz5axr97vB6WuP7ctjui3dsfLHYeL/1hI+64gTS5+oVS139L1q1yfvx+f3jfXnkOplPzXNc3nZofto2IklY2uxYOC3tc6dxBNGlYD1/6CD79ai2btu4EoN9zH+FLH4G1h26QsGX7bnzpIwCYlfY99zw9k7pHV8OXPoL53/5MZqYPd9xA3nkiEV/6COrXqc7/jb8Tsu7AEJFAxw9Pwpc+gt7DPnDm/6ffRHzpI1j/27ZS13f/6tvN+XFf1QLTqTldRvTP+vs+Wh68o0SRULKTCpu0Hh8TPqbk8/l598lE5/GstB8A6Nn5X868jH3hX97ichm+Sv+VaXNXcmydoxjxTirD772MX/74G4Ae15wLwGUX5/5dGzdf2Spi3hcT7irV/XdOwzOws1dgZ6/g0yffIPmLrP58fc4UJ7E8PeUtp6rKKdms+nV91DbxA2515sVeFReWsJS4pDDElKUn60sfgTtuIE+9lQpAjWqVnHlBvZMuYMjYz/O0vU3eQbjjBvLNyg0ADLwtgd8+fSRse8EKyx03MKza+vnjAWHtyqLLWl0MwMLV34XNf7TrHTza9Y6wU8LsVVizu6915plOzWnR5zpSnxnH/JXfOvOPuzEeAvcEi7YNkXKftKKdpkWbtzl1cMSyu7pcyF1dLgTg4NKnc1z3hGNrRcwLfRycPrlB7Ty1KwsubNqC9J9WO4937NlF7S4X5+uUb/kva2n36G3h++E93atPdHoohWTN7z/neLpWu8vFnFzvuMNWRs/06IudvYIe7a/Bzl7BklFTnaSn00FR0pJCsfyXtZhOzWna+2qanNAwamLyffgdv23djOnUnEeSbou6HTt7BY+MfxnTqTnj587MCiaXi7fuG0rtLhdjOjWn1WlnRlRmp912hXaCHBFT2Bu0iYkA1qSkmMOc4pWJ+54/9upnPNSjDTVrVCmW35f9yy10j/hcT09NbjEIkFscStkUUxH+yOwD5vkZb3r67VR6J11QbElLRJS0ANjw2UCOr1+TpleP5OjWQ/n7i6ER7xL6/X5iWw0qUHITkeJRYca0xs34lmFvzGPdb3+x6L0+uOMGkjzyRicxTZ6TTmyrQc7V9iKipFWiYmPcnBK4TOGMU+oBMHvBobf5Tz3haADW/fqXokJEp4cl7+YrW3J8/Zphp37uuIGMn7mESrFuLmpxStiFqheec7KiQ0RJq2TkdLqXlwtVdaoootNDERElLRFR0hIRUdISESlzSctk/UtV98sRRJHiR0mrGH9p3CNYrEfdLwVOWZ2aKX6UtIr5F7vcuFzueO2CQ7J/WJpDt3fRh37DOiVGcVOBldh1WuachwHm6wWZl6pCiUukxCstERElLRFR0hIRUdISESmgEhuIf3fLGoC/LByj3SD50bN+E70poUqreE3Ytg6X25WohCUFMW7LGt0zX5VW8fL5/ADJ6n4RKROVlohImaq0RMqjV+wcgMp7dmzt7Dcm3loaY2wDoAGYGlg2GWM3Yc1mMAtduOYOrH3jEvWckpZIkXrqn/8CDLLY4aHzd+7YeuiBDQy7OaNvFuAUazkla9p29uFn+D8TIrZvDFvr1qzTsLe5aq96W0lLpGCJasd/AdZYa8+wRfzdudZSb+uO7XuCCS22Vu2aA8w1u7QXsmhMSyQXT++aytO7ptazWc4oiedwcMc/O4f/M0HvmKrSEjk8vy8DYIt6QpWWSJmwZMv3LNnyvTpClZZI2ZDpzwRg0ebltKjXlCruSsX+HL79cxU+69POUNISyZ/vth76RvLjq9fnpKOOK7JEuWzravzWr05X0hIpHH/s2cIfeyKHuowx1Klci5qVq1PZVZlYdwyV3LG4jItMXyYH/Ac56Mtk98G97Ni/mz2ZuqpBSasU+eW7lc700Q2Oo1b9ujkur3fKSVSvXSvqNqoedRTHNjol6noNWzSLaJ99nhQfay3b9v3Dtn3/qDOUtMqeYZdeF3X+uKw7XERd/twSL3VPOiFiG8F1clpv3JY1+H0+hl16XVhbkfJG7x4Wg3Fb1jg/AEtmf+4sa9TqnLBlkx89dJF1z/pNqFkv60YYf/32e9g2TzyrSdh6r93RTx0tSlpSNMbceo8z/dPS5fSs34Se9ZsAcN/E18LavrzqK047ryUP/6tdrts86ewm6lhR0pKiUbl6tRwrrWDyuuP4swF4rM2V7Nu1O2Ibv3+/JizZXdn3TnWsVAga0yomvsxMJxG99vOyPLVve3MX5/HG1evoWb+Jk9xOPKsJw9JmqWOL2ObNmwA47rgGJfo8Mvbu0c5Q0io+wWqIbAPqoaeHoctf75U1PtV95JPO/O4jnwxrJyWUvBo0gGL8FODejL3s3LFDOyBEod9r2yYmAliTkpLjtgMvXH0AVI7kQGAOF4MAucVhXpyXdkOOsRpbqRLHHH1Mob6K9u/fz99/b4+6bHH8ZN0bX5WWSMEdPHCAzX9uUkcUMw3Ei4iSlkhpkPjbb8TFxUU9tYuLiyMuLs5aa3XKpdNDkZITFxdHy/XrV+a1fcuWLf1xcXEsW7bMZYzROKsqLZHiS1ZxcXErA4PmZ+d3/UDyUuWlSkuk6JPV4d6JzukUMbfKy+VydV26dOlUf/LmrKN70nHqbCWt8iftv1OIv6VrqXpOwy69jsc/n1Zo29u5dZvzecjQ6ZKSnp4OYGzWt9+Yli1b+qO0MXlMdqvS09Oj3iLDn7wZV6uacFq1Yv8b7bQ/sX6duZaJ08PQiymzT2//I+sIOLp7H4Z3SIpYd/WXi1j95aKI+R+9/LpzZfq7fQfR57Rzw7Yf/GByz/pNOJCxz5nevzcDgJFdevJE+/8AMNTTmVE39gbgkzHv5JiwctpW6HOf+cKr9DqpOQBfp8yK+re/cvNd9KzfhNHd+wDQv0WbqL9veIckXg18vnHrb7876w+79Lqo2927c1fYR4LuPrUVY2+7L+q2Q5PUx2PeLjWxYozBGGOXLVtmli1blt+4XpWenm5ySlhO4lq6E3/yZvzJm7GLivCCz31+7LQ/D/0uJayyUWkNbXetc/X44NYdGbdljfMxltDpeyeMYcGkqRHrP3ftLRDlCvSz4y9xPqfXzNOa3X//47Q7uG8/dU8+kfRPvc56i2d9zLgta+jXrDUvrfyC/lPHHXqO3hnO9MVdr2X5vPmc065t+FE+l22FPvfTz2/FmxtWADDjuVecD0CH9sN9E1+jZ/0m3DthDADXDXogat8N/iT50FHJ7WLcljXs/Gu783duXLOeE5o05thGDXnjzv7c/NxQRiz8lN9WZt2Zs17DE/nzp18Ou4+SHnuw1MWNMQabmGiXNW6cdbq3fv3hklWBbj5mf8vA/pYR9fdzfGVM/UpwVAxUdUNlg6nkwu7zwz4fZPhh+0Hsn/ux2w8qC5WXSmvI3A/4beVqNq37kWELPuK3lasZMm96ntcP/RByqKc7Xe9UIa/d3pfL7uzhLLvzlBZZpw6Xe1jp/T/e7TuI866+glVpX9L4/JZZz8tzDX0a/wuAe04/jyGeawJJ8maWz50fUcXktq2cbP1lA5f1vjWiH4IvCr8/6wzo7XsGRF2/z2nnMiThagB2/bWdbz/8lJp160Sc5t351ktR16997LHs+uvvw/bxC0k9S32ARzs1DJ5WFjRh5ZrMrMVu3Id/2U78C7bj/3Qr/llb8KVsxv/RFvxzt+H/8m/8P+xWwiroganQd1op/xjPz+krODWueaFs676mF3Jup0vDPiNYkVhrsyqLkhk6KJaP8Zzbx0Np+cjZkjFevbNZEQfiCythAbyyemHFPuIZvYZEp4cipcqSMd4iOSMRJa0yKfgupJSZxPVaiTyBcxpX0qlhGUlawcHsH79NB2Diw0MB2LBqNS8k9ohon9NlDq/26ONcHjC6ex8eaP5vAJ7tfHOOlwNkfx4rU79wHs8e9YYzP7hO6OUTZLtEY/Kgp5x3CUMvUxgy9wMyD2owtqwkriVjvHcvGePNurgCc30Rnnf/0ajeMZWXjPGaJWO8ZknvNxUkIcrEJQ/Z1T6uPg+mjI+Yn9NlDveMH+NMBy8XAPD7fGFtQy8HCJXbt9sEl4VePhG8HGN09z7cO2EMNzw1yGmf/TKFGc++QuLg/orEMuTbMfMA3g/8OIIXuF5wT7vOPkw8xjYF0wBrGxhDbazZhGETlk0GFhHD3MWj5i2OmiTVzWUvaQXf6o+tHMtp/4rjhy8ODXrHVK6UawLJrteJzTi2UUOeXPARvU5qTr2TT+SpLz8+bJUX3N4nY95hxvOjef2XdEZcdQPrFi2h0/29w9q/dntfBsycBIHrqX5d8X1Yggx6+54BXNyls/NYCav8CLwxYYHpgR8pin4u7A3qzqV591CrBJ5fmqooLNjQQbFc8iCljwbiS5ASloiSlogoaQnAK7fcXWK/W98eLVJGktZ3n6dB4F0+wLk7Qm4O7j8AQMbu8C84Df1c4M/Lloct2/PPDuf/4HTotgDu++9YZzp4OcOskVkD7S91uyPieTx5eaIz/eZdhz5YfPeprcLa3XFC9I+/hV66cVcOnxEUUdIqRd7o/QAtLo1n4Qcf8fOyrLsfTB36LAALP/gox4QVG3hnsWqNGk6C6Fm/Cee0b8vkQU+x+cefObXlOUx/ZpSz3r1nnA9A9dq1qF67VsS2/tqwMez3BN9VvLp/H6YMeYaeo54GYMD57RnZJfJDxMs+mceA89sD8ND0CXn6+5teckHY4+C1YSJKWqVUi8sSAFjpXcCxjU7Jtiw+6jqLZ85xpt/tN5iTmjUFoP6pWetf0u1a6jc8GYAPXxyb6+8P3Vbdk06I2mbCg4/T9YlH6Ne8NQDPfjM37NY1QS07tOPZb+ZmVWCXJUbd1tqF3zo/0VyUeLWiVUSXPOTdhAcfp/sLw0rkd6/+clFE5VXR6ZIHVVpyGCWVsKKdKkqRstl+8nKR6GTg1TxuW5S0RIrkDMQATYHO2ZJNOyD7Eez6QLtQvYDuOWz/JaBGHtu/AFyRbd69gZ8KSV9sIZKzNUB9YEvg8Q6gZmD6sUBiCw5+nhBIbibw/wGgEjA+2zCMBfxAX2Az0CCH9t2A/wHvAbNDCgwL7ApMv1IRb5tTIpWW2+3C7XYl6TUhZcDWkOlaQBPg1sDj/wEdA9MbQxKIATqEtMtexbkD6x2XS/vTA/9fHEicAO8G/r8v8EMguSlpFbXux5yO3+dPMbBNrwnJr9wG4YuAzTb9VKAaAjgml3U2hrSL5sTDtH8ykMw+DCTO/UDw4sPxIRXZ+zo9LCa3Zl2gWVcvQSmFbJTqKCgR2JBt+cFsp4cA87IlpmjbDr3VSPb2jwXGzjIDjycHxrHuybYNnR6KVHAmyk/osnrASYHpywLzKwGxwFEh7W7IYX0DtAz83zGX9sFKq03g/1tD2sYCdSrqbaCVtETy568c5meGnL4B/F8u20iPMi+n9l/n8Lv+rqg7QElLRJS0RErHiZ5Zq05Q0hIpO6pUaaVOUNLKy9ENjNlhExP1kQUpdmGfO5w4cY96pBwW0EUSOElJAP9gbS11sZRIYOuD0iIiIiIiIiIiIiIiIiIiIiIiIiIiIiIiIiIiIiIiIiIiIiIiIiIiIiIiIiIiIiIiIiIiIlL6lNnvV7I33wxQnX37RgH/xtoztDtFpPxkZ7Mba7/F7R5tpkz5QB0iokKr6IurrG8N7g+8oF0nIhWw+PKb5GS3OkJEhVZRFVnWmdGsmdsMHerXLhSR8s526QLwCn7/vQC4XO+ZqVNvUs+IqNAqiiLrd5OScpJ2nYhUqGIrKQnAjbWZALjd1+ktRZHSz1X2SkNzpnabiFS4s+LkZLDW58zw+yeoV0RUaBVFstmt3SYiFZ61NdQJIiq0RERERFRoiYiIiIgKLREREZEyIaYi//E2LRXga7AXKhREpOiYhSY+4SL1g4gKLRVYIiKFn3UutGleq4JLpOKpcG8d2gVp4DJPqMgSkRIpuBakPaF+EFGhVX75/eD3P65dLyIllIOUf0RUaImIiIiICi0RERERFVoiIiIiKrRERERERIWWiIiIiAotERERERVaIiIiIqJCS0RERESFloiIiIgKLREREREpNDHqAqloft28mYbdbsi1TZ2jjmLbhzPD5vl8PmLaXXrY7a8aP46zGjbMcT2b5s1x3Q1btnByl255aisiIqWfRrSkYgV8vMcpsv7z739j07wRP26Xi+27dmHiPTz2zrio2zmnUaOI9VqdfjoAZ/fomeN6ACbeQ2amL2L+S1OTw4osERFRoSVSZrz3+VxsYHrA9d2Y9uQTUdtleuc608MnTsrz9vslJTrTv2zeHLVNy8aNAYhtfympy5Y588+9ozcPjH1NO0lEpJzRW4dSYVSOjXWm9+7ff0TbWv7TT5h4T9Rl5zVpwsRBj0Zddn07D/83ehQ1ruiEp19/usTHkzJ/Pn5riXW7OTDv8xy3KyIiZY9GtKTCSIxvS6WYrHOL0R9MJ+62OyLaZGb6wgqdV+69J+q2Qt86fP7O3s781s2b8c0buY9MVa9a1bn2ampaGn5riY9rwYF5n2sniYiUMxrRkgpl/9zP2Lf/AFUv78B3P/6Y4+hRXOPTWPb2W3na5oPduvJgt66YeA9frFiJiffk6SJ2m+ZlamoqZ5x4EnGnN9bOERFRoSVS9lWpXKlAn+Zzu925rpfTstzW65KQkOftiIhI2aO3DkVERERUaImIiIio0BIRERERFVoiIiIiKrREREREVGiJiIiIiAotERERERVaIiIiIiq0RERERESFloiIiIgKLREREREVWmWEAQxrtetFpIRykPKPiAqtcpzj2nrA0kS7XkRKKAcp/4io0CrniS7eA8YYjDmoEBCR4kk85qCJ9xh1hEjFElNxzyoTACoB2AVpAE9g/d2wnKGwEJEjTzKsxbjeN23ih6gzRFRoVex82CYeYEjgR0RERKRQ6FOHIiIiIiq0RERERMqWCvvW4fz5FuBUn5+fFAYiUpTcLhq1bWt+Vk+IVDwVckTLm2rx+bEqskSkOPj8/ORNtVY9IaJCq0IUWYASnoiURP5R7hFRoSUiIiIiKrREREREVGiJiIiIqNASERERERVaIiIiIiq0RERERFRoiYiIiIgKLREREREVWiIiIiIqtERERESkUMWoC0QqDk+CcaYDX0clIiIqtKQ4vfD8HcyZ83aubbIfpO+9tzWrVn6Z6zpDn5hGmzb/KdQDv8/n49L2hw/jTz7NoFKlKhV+3/bt9xqTJj7FQw+/o0AXEVGhJcVtzpxxTpF1//1juKbz3bm237BhLd1vaXJo/Y/3UKVKtfCizPs+w5+8nqFDritwQZUXTc+8gLFjF+baplvXU9iy5beswm9oCm3aXpdr0RecV6VKdZ54YhoDBnRw2lStehQTJ62lTp3jnHmzZr3Oyy/d5WwjWIBecUXPsOJm0sSnGDducNhz69X7Obp1eyhsXmbmQbrf0pRNm34Km9+ypYfhT82katUa+WoXfG4DHr48Yj988MFoXh19X9i8Nm0SGfpEcti87H/jHbe35Mcf053liYn9uLvPixF9P3PGWEaN6pNtrmHAgHe5vEN3vfhEpFzSNVoSpmPHns70qFF98CQYPAmGAQ9fwY8/Lo9oH1pkeVNtRJEF4PF0Y8J/1ziP+/dvXyTPffUPi5znG/ozaeJTTpv3p/zKjJnbAoVWIu3bxfD8c7c5BdXTI2ZHLQT37dvDgAEdeOnl+cz5eA/t299ERsYuEq9rEFaghf3dCYZVK7/iqqvu5KKLrwLg2WduxZNgGDduMFde2QtvqsWbarmi4228+cbDeBIMM2eMBeCpp27isksrsWnTT0yctM5pO+m9H/nrr41O8ZTXdjkJ/v2vjr4PY1y88eZSps/YyhlnnMuCBSlOP+b0NwI8/8LndO32MAApKS9FtPckGEaN6kPduic6z8+baul2/cNhxa6IiEa0pNwLFho+XyYTJw7nvUlPs3jxJyxe/InT5t3x33PKKWfmeZv79+91pmseVadInnfduidy1dW9I+a3iGsb9rhmzTp4Uy1du5zM1q0b+PjjcbhcbubOy8xTvwA8OmgiPW97khuuPxWAF1+8kwceeD2sfb9+r0c8n08/He9Mf/TRm3z00ZsRv2fUqD5c0/lu7r9/DPPmvgfAzTedHjYKNPa1Rc6jvLbLyccfjwOgUqWqfPLpof30+hvfMmf2O7zwwu0ALJg/LaIoenzIVOLjkwA499z2nHfe5TzYvx0As2e/TadOWeseffSx/P33n/z11+9hRdhZZ11E1V419KITERVaUnE8+8ytDHjkXdzuGHr0GEqPHkMDhdeh66GeGJrEuHdXMvl/PzvFhifB8N7kn2jQ4NSw7b3+2kNMnfqC83jI0KlFU2jVO4Gbbx6cp7bdbzmTrVs3OI/9fh+eBJPr25qbN//Kcced4jy+797WzvTll0e+9XX6Ga3yXLhFU6NGrYg2Bw8e4PLLKnP3Xec728hru8M5cCADv9+Py3VooPuFF+5wpi9p3TlineOOaxj2uHLlqlG3Pe2DzRHzxo7tT0ryi3gSDOMn/MDJJzfVi09EVGhJ+da/f3uWLZ0XNvKSXePGLXnzraXOgdabann6qZuZO3cSN97QKMf1xr27ioYNz8pxeU5vT/W+83m6dn3wsM89+NZh1MKq+1C69xjCzp3b6XzNMRC47mrOx7udwmvDhtV4EgwPPvRO2FuoQTdc3zDqtqfP2EqtWnXz1L/eVMugR6/m668/zPG5Bi/cv7ZzfXbs2JrjtqYmbwTIc7vcntOAh69g8eJPaN/OHbE8NrYyn362r8AxtX9/Bld0qJbj8gYNGqnIEpFyy5SFJ2kTEwH+n737jm+ifOA4/n2SDlBAAUVRARkKsgTBPUqrgMJPEG0ZLhBwoOJWxIE4wYnKcCGiIqMJoqCIggVEBUEsUwEZTpbKLi20yfP7o+k16Ya2QJvP+/Xqq5e75+6ePHe5fPPc5WIlyXi9xapz4JM932svZcNfv0tTpgx3HjdtepGioytq8eKZcrsjNXPW/jLxPLgdAkphnzroY1jwsbAkjocASh8Xw6NU9L/rdeeC5wceGK0qx1RXrVoN9d7Yn8tMyAIAoLg4dYhS16FjH3Xo2KdM1p1eLABAcdCjBQAAQNACAAAgaAEAAICgBQAAQNACAAAgaAEAAICgBQAAQNACAAAgaAEAAICgBQAAQNAqHavZ9AA49gAgaJWwuFgjudVIbrVh8wM4ZNxqExdrGtEQQHgJyx+VjrvESNJcSWbuXCtJLf1WL0s621pVYrcAUBzGaI+kRS6j+2NiTDItAhC0wlZMjJGkZElx7A4AAKAkcTE8AAAAQQsAAKBsiaAJpDnrrCQ96Ze6y+p0WgRAsRmtcUkT29Q3T9AYAEEr7MxeayVpv5Ui/ZYdAUAJszrdLw1KWmsHZeYupcc2MFE0DBBewvLUYdJaKytZK0WyCwA4NLlLkUlrLR/rAIJWOQ9Z66xkuGkggMN2DOL4A4SR8Dt1mPl5kuuwAByuYxDHHyCM8K1DAAAAghYAAEDZwu0dAAB5sr16SdJ8M3bs+aWy/G7dJOl0+f0LZG3VkInGLJTUxng8qSHzXH+9JNVUWlqSpNDfjnS5RpvExJtzrSc+Xs6FI5KM12uKXMfMeW+V9GZg1A7j9VbNVa5rV0m6TX7/G5Ikt/scM2nSogNqj2LUEwQtAEAZCVay9rzMEaXzJUk7eHDm+8+KFelBIeluuVxe+XynSeoka++TlCjpSkmyCQmS9KPS0loFhbHlMuYtWVtd0mPy+/va+Pi+gWkXGI9nfrHqmbnOFrL2zaDRx9r4+O+M13shewwIWgCAwx6scvn5Z0m6IigwbTOJia8HHm2UNFfS/TkCz05ZWyVQ/mLj8XybY6lPBXqEfpHUSNZ+bxMSbjQez4cH1Ta33CJJR2nbtuTAOp+V9KKs3SHpAtu16zCTmHhvEcNaQ1m7qoBijxivd0iueePj894gTZu6zeDB/qDlt5K1P+a79OjoWuajj/7K1euWH2Omydor85zm8bjUtauVdLys3RooP9V4PJ2D6i2nZ87lesskJt5G0AIAEKzym69nz6InMGOeNGPHDi6wSGKibO/e0yRV0a5dO2VttTxDhdvdwkyatDRQzyrO/LlDVuZ4r1c2Pv6MoNNvIyQdVNDStm2SlBJ4TmuNx/NYIEBcL2mc/P57bHz8D8brnZhvu8XHS9beI2lYYDkjjMfTPyggVQo8nz15LqBmzQpm+PB9ucLLihU+SSYQnO6V3/+KJKlChZPMuHGbJMl27y5JJykj42/t2/en7dathaxdmmNbLTYeT+tcy7f2ShnT3Xg8k3JNS0jwG6/X2Pj4fyR1lZQoazvZrl17mMTECSFljfkj3EMWQQsAwogZO1a2V6/zZUx22CpieDqA1cwp0iLHjJGk3Tm/lBUIIJ/K2k7y+ZbYhITFklpL+lPW1gq88ScYr9eTT+/RJidAGtP7oAJpjmulZG2DfHqXJtiEhB+Nx7M2n3aTpDinPlWrDggKi5K0p8A2CoSsfPn9mcvPkpa2OFB3KSMja+wmSZLPFyuXKzRouVz9ctT1N1l7aqB+kwqsW2ao9UgaI6m3/P7xtnfvz7R7946s52s8njq86ghaABB2YUuSc3F7rl6uvOcZXJJ1CASik2XtX4E3+XWSPpbLNUs+XytJnYICwMMmMVE2Pr62pFmSLpWUGAgUe+VyTZK11WVtp5AeuqzesLzXn18YfEPWTirsgvRA/VNlbQVZ+6tNSIiWtD9Xu3k8svHxnZzlbduWYhMS/pYxT8rv7xZ4Lvmup9BtmRl2rgyqb01Jv8rtflg+3/GSnpBUM+tUY6AHrOT2Ja9XNiGhj6S2sraWdu3aVZznQ9ACcMDW/rxEURUqqna9hjQGyk3wKvY6PR5Za/+W5FJCwluytq+kB+XzPRgosl5u99XBQcl4vZJ0WeBCepdWrPhYUmf5/TcFhbKnjMdT+I94WxuT53iX6zNZm32BvsfjCvT05BWgKgadatsnY0x+YUSSCQTD22XtCFn7dqC+09SkydVm8OCM4oSdoNOIN8vaN+XzTQ4sf6aks7Ou5yq1bZkZgvm2ZH5tVBYqGdyNW9wNmJT5Y9L83lg54vP51LZh4Z8ZZqxMVVR0hUNWr45nVlFqym5JUsvz4vTyuK/ZWJAkxTUwB3Uc4+v/ebRJZsC4Sn7/lNzvcGab8Xiqs8eVcJtn9ujFy1pPHm0eYTweH62UjR4tlCvHnXiKOl/bL89p7ohD+xviny/dxQYBSru3IDFRkj4pKx0H5aLNM68v89pu3YykMxUd/Zf54IP/aBmCFsIhaJ1wsq67/ZECy0wd/6ZeHdSvwDKNmp+jUR//kLMXotD1d7mxv/oPej3XekZ9vFCNmp9d5OXMWuOTy5V9jfCaFYt121Wt8y0/ad6fOr7mKewAAA5d4Jo0SZKW0hIF4yd4UK6sWvqD4hqYXH/jRj6bZ/kTT6mrpLXW+WvXpWfmcpYt1LpVy/IMWcHlk9Zadbv5oYOu74yVaSHLynLZ6W5n2DNmmBOyPN9vDCmf+N3fkqRuF9fS2l843gHAkYYeLZQrjc48V6MmLyhy+UGvh36D+coet+qrKe8HQttC1W/UvNBlnN7krIOub1R0dKFlkucnOcO3dm6Va3q142tKkpYsmK0GZ5zJTgAABC2gdPy1YY0G9bs6z2mxHbsp9n/dDmq5M1am6vImFaUinvorSc+9M81Z57Z/NunkOqfp5oeGaue2f/T+609q2z+bcp1qBAAQtIASt2fXdn07c0qe0+oXo7cnKrpCyKm99P37FRkVJUmaNXW8nrvvOklSp2v7lcrzylr3ZxPf0bDHb9PgO66RJLW6sK3emLKIkAUARyhu7wAUwZoVP+m2q1oVWCahz/3qN/AlGguF4vYOQPigRwsogtObnhXSo7Vl4x9K25uiOg3OoHEAAAQtoCSdcFJtGgEAUCgu7AAAACBoAQAAELQAAABA0AIAACBoAQAAELQAAABA0AIAACBoAQAAELQAAAAQvkHLZSSX0VNsegCH6RjE8QcgaJVfbeobWasnjLSAzQ/gUDLSgjb1zRO0BBA+wvK3DmMbGEk6f3bmjwTPt9J57AoASjNgxTYw59MSAEErLAMXuwEAACgNXAwPAABA0AIAACBoAQAAINyv0ZIk/9KhkrTKWtuQ3QHGmNWuMx9uVJxl2OnLJWmVrNinIBmtNh2aNaIhAIJW2LBLX5Skun6bsd5ay16A7H3D2oa+JUOsJLlMRD1z5oMbijTfl6skqa4y0teLXQohO4ca2s+XZ+4VEZH1TPtGG2gUIHyE3alDu2SIZDNa+m3GejY/CuK3GevtkiEtC92npq+UfL6Wykhnn0LBMtLX2+krW9IQAEGr/AYtI1mjb9j0KOL+UoR9xUqy7FMo6l7FvgKEkbA7dRg4U1iJTY8i7i+VirhTsU+hqDsV+woQRvjWIQAAAEELAACAoAUAAACCFgAAAEELAACAoAUAAACCFgAAAEELAACgLIqgCQ6N75J/04zv1mh3yj7FnlNfnWMbh8XzTvxymXoMmCBJ2jbvCR1TuQI7AwAgbNCjVYoWrfhT7hYD5W4xUJfc9JYk6biqR+vWpz6Wu8VARbR8pNw813GfJTvPNVjX9s3lWzJEviVDCFllxO9bNsp0bCbTsZn2pO6lQQCgGOjRKiX/7UjRedePkiT5lgwJmfbYLXEhj//aslN12g91HlesEKnUtHRJUo1qlbQp6VFJ0omxz+if7Sn5rjNrPW8kLtCdz31aaDlJTjCqUilanWIaa9znyZKkOicdq/XTB0iSnnxjlp566+s8l/X9h/30wMvT9f2S33MtM2s9OR8/+vqXGjpmTp7LG9injZ7p3z5kvrzEnl1Ps965mR0tv23s8ymiU4sCy0RFROiXN6eqXs1aIePHzJziDH+78idd3vqig6qD6djMGbafLz8kz/vaFx6SJFWrdIxG3P4oOwIAglZ5tXVbSpHLZoWs9dMfUp2TqoYElq3b9ui50bP1SN9YZ3y780/TF2/0zhVsUtPSVbFCZKGh6uFXv9DQe65QhdaPOdN27dnnhCxJ+n3jDs34brXanX+aE7JyBsYs88bepnGfJavnY4kFlpMkv9/vhKyc5dwtBmrIu3P09J3tZIxxxn/3QT+d17y2JGl/eoYqnv24Zi9az05WRM1PPV1LR04OGdfl6bv1yYIk1e/bQZI0/sHn1aNN5vB1sR1VPxC+zj69aa7lbdj8l2Ymz9eCVcsU06y1Op3bRlUrH3PA9fpm+Y/6bNFcSdJV512qCxoXHAzf/fJjLVi1VKeecLL6tr9aJ1Q9LleZCXO/kCSdXL0GQQsAQas8O6NeDbU9/zTNnP+r3C0Gqn+PC/TqgCsz32AWb1Bsn7fVrX1zjX++h5rUP0Er121RvQ4vOOHjTc8CZ1nBIUuSTjnhmIOqk8tl5Pdb5/G4Id3U7cHxkqTt3z6hKpUyT+1dP3Cixg3pnmv+1t2H68eJ/SVJja96RX6/1aqp90uS6teqVsQ6ZJ+tPufaEVo4/k5J0rnXjczuCQkKWTmfb1Qku2xJmPL4a5ltHeh1uvbFAeoec4WMMUpa+oP6jXxGkrRw2ARVr3KsJGnb7p2q3j2zdysqIkLHHFVZ7836xFlm/IVt5XnklQLX++/O7Tr+2kucx22atZYkvTh5rDNu3yc/KSoy8wNDw5v/pzUbs3tLXcbIb60e+3C4JCk6IlJpn/6kDoP66YvF3zrl/v5vq/PcDlVvGgAQtA6xGYFep6WrN6ntraM1fML3kqQK0RH6aGh3db/8TEnSssn3SJIGDJvu9DqdeFxlrfr0fp1W57hSq19822byLRmiKV+v1Ilxz2rf/gxVOipKfbqcHVLOt2SIrLW66u4PnPpd0qquZr3d1ylz/pl1tHXOY6rX4QW5WwxUlUrR2pz0mKKjcu9iviVD5PP51fHOsc7yLj23gfYvflZuN5cNHkoXNW6pb3/O7MlMXveLzmqQ/5c0qlU+Rvbz5UpJ26uFq1fo960bJUm3j3pGqfv3yfvdzELXlxWyTqp2vJ698S5nfM9LO+uxD4fr7/+2Kvqqs2Q/X67ewx53Qta60dNzneIMNv2pN0KC48nVa+ivD75mAwMgaIWDMxvW1NY5jxda7vl7O+j5ezvkO33z7MfyHJ/zFFy/ruepX9fzcpVL/+m5POfvcmkT7V34dIF1M8bo09d7Flim+rFHa+f3TxZaP0lyu11OEM1PfqcgCzo1iaJ7c/okJ2RJKjBkKcc1V6vfnqbYM8+RJD3+4Qj99d+WA1r3f7t2qFfbq0LG5XxcqeJRzvBf/24pMGgBAEELwGGx7Lc1ISEpp+d63qWBXQ/siwWXDuyruDPP0QdJ0w5oPvv5cpmOzbQvIz3fOmWd6nv9toHauy9V7341RTEP35Rn2QY1a+nX0dOdx5HuCKX7MkJOHf4xdqZqHX8iOwKAw8KUhUra+HhJspJkvN5i1TnQG2LZ9Cgqd4uBprDwEG771LwVi3Vx01bFXs5f/27W71s36cLGLQstuz89XT+sXqa6J56sU44rODhl+DI0b8VPOvv0piE9Y0fMgbdjs4M6jgUfC0vieAig9NGjVb4CQZ7jH+kbq6fvbFfq6/39y4cP+kJ9lC0lEbIk6ZTjTiw0NGWJiows8noj3BHOqU0AIGihRP351UCdVKOKJGnD39vUoOOLem70bD3Y6xINvecKp9zaP/7Vo8O/0p+bd6jd+adp8O1t81ze5FkrNHryQllJfbqcrYR2zWhkAAAIWqh7cjW53S75fH5Nn7daQ++5Qj0emqDEr5ZJkhaOv1MtG9XUhTe+qaffTpLyuNFoVKRbG79+VEZSzUufVfeHxoeUAwAABK2wUatd7gD05O1tnTvSZ4Ws/74ZpGOrVJQkzR93uxOsHn39Sz1+a/bd61MXPRMynFVu3/6MPG/fAAAACFrlVvCpw7wkvnSduj7wkapf8pRaNjpJF7aooxET5zvTn70r8ydwWjSsqSWrN8ndYqDi2zaTMZLnq8xvhLVsdBIhCwCAQvCtwzC3Y1eq/tyyU81OK/iC5D827ZC1NuQngsIF3zpEiR94+dYhEDbokghzx1ap6Jw+LEjtmsfSWAAAHCB+7wQAAICgBQAAQNACAABAOAYtYyRjtIdNj6LtL2Z3EXcq9ikUda/aTRsABK3ye4izkrG6hE2Pou0vNqYIpSQZ9ikUNb3H0AgAQav8HuNaDJRMRLLLRNRj86PAF4eJqGdaDEwudJ/q0ERyu5MVEck+hYJFRNYzHZok0xBAGL3sw/ID5ZkPStIGSca/dKgkrbLWNmR3gDFmtevMhxsd8HztGzn7lJ2+XJJWyYp9CpLRatOhWSMaAiBohSXXmQ9LEgdBlNz7aodm7FMAgMycQRMAAAAQtAAAAAhaAAAACPNrtN7/71dJivf5/B52BQClwe12JfSsfpqXlgAIWmHjva2rJelfn89fnV0AQGny+fyeMVtXy0j/3VSj4XG0CBBewu7U4Zitq2UlayVCFoBDxkrVx2xdbWkJgKAFAAAAghYAAMCRK4ImAAAcDkNtoiQd49+depXfbzoaqYOVPfpw1snIpFhpustlP3dVrvjJw6brTrYUCFoAgCPOc7s+lKRO1m/HWtmqOadn7EwNemR1JFzAFgh6CX6/Evw7U/XMjvfzC2Tbjcv0eqTKDVPZ0iBoAQBK3bM735ekrdbqeEny+/3l9rla2arWbz8NDmLG6J9Hj+lZgz0BBC0AQIkJhA1rw/w7ldbq+Gd2vG8l6bFjexr2DIiL4QEAAEoPPVoAgGL5YfMyZ7hVjcaKcIXnW0uGP0OLt/7MDgGCFgCgdOQMGlWjq6j+MbXkdrnL1fP0+X1at/NPbd+3i40OghYA4PDYvm+Xfty6Mt/pbpdb1aKr6JjoKqoaXVkuc3ivaPFbv7bv262d+3Zp275d8vl9bEQQtAAAZZPP79M/qdv1T+p2GgMELeBI0rtGw0LLtLziMvV/f2TuT60+n/rWbFzo/PdNHK2mcRfnO/2R8y/X5nUbnMdjMn+w/KDWF3NjN/V86ak85zmlcUM9NYfb9QBAWcO3DlEujNm6OuTv2e+/kCQlfzFLvWs0LDCU1Turea75L+jaWZL0Sve+euu2+/Oc7507HgoJWUUNf6c0bhha1++mS5LmfjBJvWs01Jb1v7FBAYCgBRy5ajaopzFbV+vVn+c74245pWmR5t2xZat++Phz5/ENLwzOVSZpzEea7/lUkvTiT7NDerJur3vWgdX1tPp6el72+t69ayAbEADKCU4dolyrclw1Zzhjf3qeZdb/tKzAnqhNa9apfusWzuPflq7QuIczT/F1e3KAqp9ykiTprT+X69ZazZSWkqKn2sVr0FfePJf37+9/6bXrbpUkbdu4SX+uDD3d+MhnE9hwAEDQAo58wQFq4LTxeZapd1ZzPTbDk2v84zFX6u9f1ujZDt309l/LFREVpbQ9KXqq7TVOmUlPPK9JTzyfa97flizXuIef0vVDB+WalpaSoqUz50iSjMulk884XZ0fuFOtr2zPBkOZtO2//yRJ1apXpzEk7d+3j0YAQQvlN1DlZIzRu1tW5Tu9sB6tytWrKiIqSpJ0e72znID07uZf8iw/+s6H9H3ip0oa85HqtmyuC7tdFTKdC9tR7oJF+n5J0ubNmyRJxx57rCpUqBhWbeDz+fXvv1v5HSLkfg8qC5W08fGSMn/Y3Xi9xapz4FoaXgkADteHgoM+hgUfC0vieFhSzp5zbaHH1QoVKqpypcpyR5TtG5daSXt271ZKyp4Cyy1qM57fOoREjxYA4FBIS0tVWlpq4W9KERGKjIxUVFSUIiOjFBFRum9TPp9PGenp2p++X+n792t/ejobCwQtAED5lJGRoYyMDKWmptIYKBe4vQMAlFHWWtOiRYsVBzJPixYt1KJFixXWWk5tAYcAPVoAUDZClSSZ+HPP1br9mRefq2VL/0EurknLli39LVo4ty1ZmZyc3MwYw/WrAEELAMInWLVs2XJ5IBiV5uoIXgBBCwDKn7POOkuSuvr9/knB4w8kWLVo0aKkA1HO4OVwuVzdfvrpp8SQkbszMv9X5i0FIGgBwBHE7XZL0kpJT2aN8/v9/STVKOoyjDFzDmSd1to2B1B8q8vleiOovitzFvDP+De7Li2qyJx2VHhuzBSf/NP/YacGQQtHtt41Gmr0pp+1ev4ijeh5h0auW1zmn0/wbyFmeeSCK/TUnE+dm6EGG3LltfneyV6SHj63nYb+8JUk6e7G5+u1oN90PJLc1/xi9X5tiJrGXlTkdgk3ixYtygpawQFmsPI4fZjfMpKTk2OLur5AL1VBPWDFOm1ol+ySXbIrO3hVdMucc4xUI6p8bbg0v+wPO2S37uegjQLxrcOD8N3EKVo09QtJ0pb1v+u9ex+TJM35YJIWfz5TkrQvZa+GXHltyJtKlj4nNHKGn2p7jf5e9ask6bn/9VB6WsE/3bBn2/aQv30pewssv2DyNI3uP8B53P/0c5zhB1pmf6gd1v1mZ/jDhwZr93/bctXb7/Pp8Uv+l+s5ZezfryfiOuf5XB8+t522/vanFLgD+9SXR0qSPnn+dW1Ysjzz4/Jvf+rhc9s584zZulout1sbV63VqS2aFbo9DqZe+bX70plzNKrv3ZnvNnO/1+RnX5Ekpafty3MdBe0PBfFlZOj8hE55hizl8XNBM0a+qzULfnTaK9juf7c5w/3qtizSvjWsR+b23rR2vcYNzPzdxr27dmvCY89p+dffKGnMR/pixGjt3bVbknT/mZc4884b79WSr2YX6bXyyrJ5eYYsSRq6cJYWTJ7GAaXgnioZY+ySJUuaLlmyxCQ3aGCSGzRQ/agSDS0rk5OTXUuWLDGBv6YleW2WTfXJP3eb/J7Nef5Z7xbZb3fIrtsr7fUf/kbPsLJ/7ZMW7pT9ZGu+9fZP20rIAj1apWXFnG9188gXJEkn1Kuj6IoVMsfPnqfb331dkhR99FH69YfsnpjTzm2VfeDJ8RMNJzc6TZJ0Ufcu2vr7nzq5YYN8112pWtUDrm+bG7o5wyk7djrhpNMDd2Q/p9nznOEbXhis+5pfrNpNzwjpcfjn9z8VE7SsRheeK0navHZDyPicapxaSwr8puCkJ4aq0/13aMXsebpqwF0h07PcWru53vpjmS7te70u7Xt9oc/vYOuVX7u3uTFzniYxF2juh5mXzWz6db3ObJfdaTB608+F7g8FcUdEKGX7zgPa5y6/o0+e7VWxSuXs3op2sYU+x/R9+1U58GPbNRvUC6nHKY0bqkbd2oo++ijt3Pqv0nbv0VFVKmv7pi1OmYuvjS+R11HKjh2qcjy/jXcwvLVrZw54PCYzjxX9Tg3JycmS5AoOUwcyf0mz1kqb0qRNabLadcS0Md8CQIl9YCoLlTxSf4Jn7aJk1TuruVzu0J+UWLvwJzU456wjou0WTJ6mE+qfqgqVjtbxdWopIjIyZPrW3/5U2p4U1W7aKGT8rz8s1raNm3Vul465lrll/e86uuoxqlT12Bzjf9OxJ9RQ9NFHhfRoDf3hq3zbZM2CH3X6ea01+NIuGvz1lGI91wOp18H65/c/Vf2Uk3Jt84L2h3z3xbsHqsczj6pi5UpFXv+vPywOCe1Z0tP2aceWrTq+Tq0iLWff3lRtXrtedZo3OaDnv2HJctUtQi9jUfQ//RwNX7Mw7A665fEneFrdEUc2yWHxyCTuUwaCVjjYueUfRR1V8YDezBU4bdYk5oJirz+/YJBl+vB31OjCc1XvrOa8GkHQImgRtFDucOqwnDvmhOMPar6SCFnKcco0Lx3638xGAsrHR/ZVsmpEYwAELQBACVo8IkmSzmjd/zJJGmb9/nvCM3CaXxeP+Pp09ggQtBBWCrqNArcYAErOj8NnSdK9gT+1uqe9JNU06ekfWunSchaqNhqZ634cMWsOWx4F4fYOByG/r/Ov+3GJFn463Sn34UODneFPXhiu12/oJ0maMvQ1+X2+AteR8zYOOb+pWNQ6HYpbThS0rJe79XGGP3/tLe3657+QeX5fnvntvXduf9AZn99tJx48K9Zphy9GjNYv8+YXuqzCbqPALQaA0rP41S+1+NUvN/04MumyxSOTTM6/H0d8bX4c8bXLuN0dZcwoSb8fAdXeY4yZ5DLmhsrHV6+cV70Xj0wyi0d8fTIhC0VBj9ZByO/r/O7ICKWnZd5XJes+VMFufuNFSVKXh+8udB0HehuHw3nLCUmqXD27vhcFff0/IiJ7F9uxZWuu+eo0a5zZNqMy26ag207899dG52vol1yfoOnD39EZF5+f77JUhNsocIsB4HB2ChkFLqKfHvi7g1ZBudvPy0Ily9LtHfx+v9YvXqoGZ7c8LG11OG85kbpnj3Zs2qKap9XPEWZ2au/OXUW+9YAKuO2EtVbrFy9V/dYtir7NC7iNQrjeYgCHT3n81iEAglapBC0AIGgBKAjXaAEAABC0AAAACFooR4r648FZls2aq0+efz3PaQ+eFZtrXJ8Tz9DNJzVR35qNQ8b3rtEw5C/Y0+3z/q294PIPtopzxq9ImueMn/thoiRp+6YtudaRcz35ub3uWVo6M/eXjf76eXXINx4BACBoHQRrrfrVbal///xbT8R20t+r10pFuL3D3Wecp7kfJhbpDd2XkaG7Gp2n7Zu26K1b79Oq735wpvU//RxJ0oKPP9N871Rn/IKPP9Pb/R7Qto2bdVej83KFkA3JyzT+0Wc1uv8AZ/yjF14RUibL4s9navHnMzX7vfFa/PlMpe7eU2i9JGnxZ185Pxad04s/hYa2Xf9uU1TFChq28ruQH2nOMmbrauevKM675kqn/IuLk5znkbJzlzO+0YXnyu/zqWrNE5xx7sjIA1rPqA0/6cy2bXKNP6VxQ13U42qtXfgTLxIAAEHrYD3dLl5vbEjWcbVO1pOzpxZ664MsQxfNUswNXYv0hv74JVeq84N36qfpM9XgnLOc+1pJ0vA1C9W7RkMtmzlH58d3csa/fdv9qt+6hZK/mKXOD96pH6d9KUlaOnOO7k8co7otm+vaZx9V3+HPF7r+Vh3bqlXHtqpRt7ZadWzrfGOvoHql7t6jkxrWL3I7vtt/gN7YkOz8CHRRe5QORPRRFZW6a7fzeN54r3Zs3lpq+8ZJpzfQX7+s4UUCACBoHaxBMyfrndsfVO8aDfXwuW2d8fVbt9Dnr76p3jUa6tOXRhzQMnOGjOe+/0K/L1upjwY+rXnjJ+vSPtdLktL2pOiJ2E4as3W1bnnjpZD5xmxdremvv62PBj6tX39YrNZXtpckndm2jfw+n3rXaKg+JzTS/tQ0Z57zrrlSvWs01BNxnfOslzGukHXkVy9Jqli5kj4e8mqRn/O9E97RsB43O/UasfbHXG2S1ym9DcnL85y2YPK0XKcOm8ZepDPbxTrjz+3SUdVOrlmkbZHzf5GeU7OL1KZnd14kAIDM99GyUElu71C2fP7qW+p4z61h97ynD3+HH8lGUT5UlaXbO+T3q/B/SdpyJL9tlLX3OZRf3BkeJS4cQ5YkQhbKox8PoKyrmB9is+b9W9IpND3KC04dAgCKwuTzl8UvqUvQ422B8JTXX/ugctNzBLSTg8pleaSAZRXWs5aRxzybcpQ50OUvKqB87xxll+dTbgG7FEELAICiBLAsHwcNnxo4axIcyp4JTJshqWtguEOOZfydR4h7TtJN+YS8GoX0pL2UxzwnBuapeBDL/05S6wLC55jAtOqB+ZpKGpejzARJ53IZC0GrXOpdo6GMZIz0H5sfwCFMI/8V5/qsI9hpQcN7goa/zaM36bGg6X0PYB3HSHovj16hong4x+PgHz0dcxDLv1DSl4HhnOV9ko4KTJsVNM/1Ocr1CJr2Iq8Ogla5c1ONhrqpRsPj3G6XcbtdCewGAEqL2+1K6F2jobmpRsPjytHTipB0bSA0ZN3PZJ+kyoHhsZKaZWdM568o4erkPMbtCPz/I5/TlgUJvs6sRo4w2OMglz8jn94vl6SUwHDrnLtCUNlqgbBmJHGX43IurC+G71n9NEny8q0UAChUfj08j0l6Nse4XpI2SxqQY76CQkV0IKwFr2u9pPqBkOKTVDtompU0NI8eq2ApkqrkUfcPJd2YIwQVdflvSbpF0rA81jdXUtbdjH2B95Y+kkYHHgfbzi4VHsLu9g4AUGaTzqG/vQOAYuJieAAAAIIWAAAAQatU2fj4EWw2AGHPmHdpBKAMvFTLRLjq3l2SWioj46fAAWaq8Xg6s/kAhAM7eHDmB+MVK7IuqLbG6+WMBEDQKuGDTY4LQQNGyu1+3UyatIbNCaBcBKuEBEmqJJfrYvl8b+f4SZoHjNf7Mq0EELRK7yCU1cPl830vayuwGQGU7yO1mWI8nqtpCAAAAAAAAAAAAAAAAAAAAAAAAAAAAAAAAAAAAAAAAAAAAAAAAAAAAAAAAAAAAAAAAAAAAAAAAAAAAAAAAAAAAAAAAAAAAAAAAAAAAAAAAAAAABwkU1Yrbrt1k6Sr5fP1lzGtZW0lNieA8nN0NmskzVOFCnebDz9MoUEAQlbph6uuXSVpnPz+69h8AMKEVVRUXTN+/O80BUDIKp2jTEKCJPlkrYtNByAMPWC83pdpBoCQVboBy5iNkmobj8fHZgRQHtn4eEnqK+kdZ6Tb3cFMmvQFrQMQskrmQJP7FOHrxuu9m80HoNwHrcGDJcmlFSucD5TG6zW0DEDIKslPczazxmaj8XhOZtMBCJug1bu3JFXWrl27AsfBKcbjuZqWAY5sR/y1TbZbN8ntDj6Y1GazAQirT8Njxki7du2W9FfmgdF2oVUAQlbx+XySz9ffOdhwDRaAcOR2S273LTQEUHZEHPkf4YwktZa1bC0A4cvvl6R5NARQdhz5PVnWihuNAgh3xuORrN1DSwCELAAAAEIWAAAACFkAAACELAAAAEIWAAAACFkAAACELAAAgDASEe4NYOfOlaSWkv9lWZ0tcU8uAMVl9shokeS638TEJNMeACErHMNVXVnfenYDACV8hKkkq1jJ95OdkyQZdz0TE7OBdgHCS1ieLrTfJEnGF0PAAnBoDjq+9fabpBgaAggv4dmT5ZckzWHzAziEx505kgwNAYSPsOvJsnOSJGkVmx7AYTj+cOwBCFnlXkM2PQCOPQAIWQAAAIQsAAAAELIAAAAIWQAAAIQsAAAAQhYAAAAIWQAAAIQsAAAAQhYAAAAIWQAAAIQsAAAAQhYAAAAIWQAAAIQsAAAAQhYAAAAIWQAAAIQsAAAAQhYAAAAIWQAAAIQsAAAAQhYAAAAIWQAAAIdaBE2AcLTpv/8Ud+99WvXHnyHj+3bsoHcefCDPeUybuHyXd0GTJnp/4MNqcMrJ+c5nJPnnJBVYr33796tCu8slSZOfGqyrL7mEjQUAZRQ9WQg7F93ZXyddk5ArYEnS6M+ny7SJ08fffHNAy/x+5Uqddv0NOrHLNfmWsZJe9XgLXE71Tlc5w36/ZWMBACELKBta33Kbvlux0nncrG5djbj7Lj15Uy9Fut3O+GsGDdb8lSvzXc59CfG6LyFed19ztc5u2NAZv2X7dnV+5LF857t35Kh8p81OTlZKWlpQKCNkAUBZxulChI01f/6pxWvWOI9TZkzXURUqOI8H9bxRE79OUo+nn5EkXXBHf9l8Tu+9fMftIY/3p6crum17SdLU778vsB7Nbuqt5e+NyTU+7t77Qx7TkwUAZRs9WQgbZ9/azxme9/prIQErS/dL49Sodi3n8YdfflWkZUdFRha5His2/KaN//4bMq7XkKG5yllLyAIAQhZQBuzau9cZvqh5s3zLffrsM87w+19+WSp1OTm+qzPs9/v1fiDM9WzfjpAFAIQsoHw6vVZ2T9bCX1YVaZ7Wt9zmDEdF5H8WfuXY7NOEL06YKEk6vnMXZ9yzfftkhy9CFgCUaVyTBeSw5Ne1zvBFzfLu8Srodg7/Tf0032mNTz1VtY4/Xn/+848eeuttXdrqLG3bvVuStOqDsTLGOGXpyQKAso2eLISNU44/zhn2zJmTb7krBgxwhu+65uoiL79qpUryz/5alY6qWGC5PzyTnOFWgR6wk487Tg1r1yZkAQAhCyh7Fr/9ljPcdfBT2rBpU64yD77xpjZv2+48vvzcc/Jclp2T5Pxl2b5nT5GD0ZM39Qp5/Jc3UZJklB2yOF0IAIQsoEyoUbWq4mOy76Ber8d1Orr9Fer9/Avq/MhjMm3i9NKkRGf675MmFGm5GyaMd4YrBu7WXphBPW90hu+Jz76BaVBHFj1ZAEDIAsoOz5ODdcdVnZ3He/ft03tfzMh1b6uf339PtU84oUjLPLXmibrqogslSfszMnTP8BFFmm/LlMma9MTjGnbnHUEhK7gny88GAwBCFlB2jLjnbvlnf63rLrs017Q377tXdk6SzqhT54CWOeWZp53h1yZ/rO2Bi9kLUqNqVXWNjQ0ZF3pNFtsKAMoyc6RX0MbHK/Czb5kV9nqLVefANTS8fQE4PAfdNnEHfQwLPh4W91gIoPTRkwUAAEDIAgAAIGQBAAAQsgAAAEDIAgAAIGQBAAAQsgAAAEDIAgAAIGQBAAAQsgAAAEDIAgAAIGQBAAAQsgAAAEDIAgAAIGQBAAAQsgAAAEDIAgAAIGQBAAAQsgAAAEDIAgAAIGQBAAAQsgAAAEDIAgAAIGQBAAAQsgAAAEDI0mo2PQCOPQAIWSXItImTpEZsegCH4fjDsQcgZIXBs3apDZsfwCE87nDMAQhZYfBp8pI4ybrnyrjrsQsAKP2DjrueuSRuLg0BELLC45gXEyMTE7NBxm1k3GfJmNmS2cMuAaAEjjB7ZMxsGfdZpk2cMTExG2gTIPxEhP2hMCZGkpIlxbE7AACAksItHAAAAAhZAAAAhCwAAABCFgAAAAhZAAAAR7Sw/3bhnDlWkp70S91ldTq7BIBiM1rjkia2aWOeoDEAQlbYmZ0Zrub7rc5jNwBQoqxO90uDkmbbQcZoQWwbcz6NAoSfsDxdGAhY+y0BC0Bp5y2r82bPsftpCYCQFS4Ba761imTzAzhEQSty9hw7n5YAwkvYnS60VpLowQJwyI89HHeAMBNWPVlz5li5jJ5kswM4TMcgjj8AIat88mf+dWezAzhMxyCOP0AYCa/ThZmnCrlNA4DDdQzi+AOEEW5GCgAAQMgCAAAgZAEAABCyAAAAQMgCAAAgZAEAABCyAAAAQMgCAAAgZAEAABCyAAAAQMgCAAAgZAEAABCyAAAAQMgCAAAgZAEAABCyAAAAQMgCAAAgZAEAABCyAJRJa9cu0R9/rKYhAOAQiKAJgPBw7z2xWrp0jiSp81V36O67R9AoAEDIwqH23LM3aNascbnGPzTgPV1+ea8855k44QW9/faAkHEVK1bWCy9+qSZNzs9V3ufzqe1lmbtgvXrNNfrdpQdcz7hYU6RySbNt2G/TNWsWO8N//P4LOzkAELJwqBUUXF54/iZt/Hudevd52hm3efPvurbHqXmWT03drf53XqDKlavp06n/0biH0bTPdujOO85XhQpH6+VXvqZBAICQhUOpR/fssHTKKafrsccnqGrVE7Ro4Qy9++6j2r59S0jA2r8/LVfA6tbtQdU5tbG+/26qvv12iiRp9+5tatc2Wl/N3Fdqde/T51k2YAFcLpdGvfEDDQEAhCwcDlu2/O4Mf/Bh9gXSHTr2UYeOfXKVv7z9Uc7wxRdfrSefmpw9LXBa8bJLI+T3+5SRsV9j3n08JKSVpOuuf6TA6bt2bdNVnas7j4NPIQ557kbNnPmhJOmJwR7FxMRr6tQ39eqwfk7Zq7ucoB07tjrz/O/KW3XffW+GrCOrF7BChaP1/ger1a3rKbnWtX9/mnr1bKzNmzc4404++TSNff9nud2hL8lPPxml1167I8czMRow4D21v7znAZULfj6j3lioRo3Odkr6fBm67dbWWrcu+5RtZGS0hr06R40bn5fvcxwxcr769mkeFOTcmvbZTlWseHTIPBkZ6ep5YyNt2rQ+ZHzLlnF65tlPVbFiJV58AMrfh1uaAPlZMP/zAqenpqZIyg4PwQEr2Fcz9zvD48Y9c9ieT5Uq1XTrbS86j+/qf7Ek6bfffnYCVqMzzlVMTHyueeNiTUjAkqTPpr2lyy7N+3NKWtpeJ2AFW7N6sS5vXzEkYEnS33//qraXReqff/5yxvW77Zw8gpMkWb377qMHXC4/69cvV9vLIkMCliSlp+/TnXecr0cGXpnPc0wJCViS5Pf71LFDJfn9/uxaWKt2baNyBSxJSk5OUkREFC82AIQslH9XXnmbM/zII/9TXKxRhysqadKkl3KV/e7bT5zh7j0G5L+TuQ7NbhYXa/L8C9at2wM6/vhakqQVK77V0qXfqPdNTQJTjUaNWpDv8lu1aqup03Zo5MgFIaFi2Cv98gw4ktS8+SUhpzFvu621Mzzlk3+VNNtqyif/Ztevay1nePXqRZKk4447RUmzrfPXvccAvf/BqgMul5/goBSfcJ9mfJmm55+fkR22F3ymNWt+ynf+O+54VU89PSUkLF13bT1n+LnnbnCGPxz3q1O/cR+tU61aDRUZScgCQMhCGLj3vjfUJrZbrh6Lt958UHGxRn16Z78hrwq8uUvSaaedVeByK1Q4+oh5jpMS/8h+vvfEOMMzZ6XnO0+dOo314ktfqVKlY3RG43NDTv9Nm/ZmnvO8O2a5Xn1trnMa0+MZ5kzzeDfqmGMyT10ec0x1JXr+dqatXRvao7Rnzw7t2PGP8/iWW4bmeXqtqOWCBdepS5f+uv32lxUVFa2zz2mvT6duc6b1v/PCPOef8WWarom/WxdddFXI9XbBp533pe11hhcvnuUMn3RSvSKFQAAoq7gmC7kMGjRRgwZN1LJl8/Tu6Ee1fPk8Z9qGDct12aWRmvV1uho1OscZv2L5t4qN7ZrvMtPSUkq93jf1Lvq1XlM++VddrjrOefzyK0lyu935lu/f//UDrk/duk1DHn//3VRnOCH+pHzn+3HRl2rQ4ExVrXqCtm/forS0Pbq6Sw1neuPG52vEyO+dx0Utl5f5309zhu+489WQaZUrV3WG09PT8pw/Kiq60HZ4aMB7zhcgXh3Wz7kuTDIa9cYPIdeGAUB5Qk8W8tW8+cV67fVvlDTbyjt5szPe78+QJMXFdc8OLVOG57uc1NQ9h6S+N9zwWJ5/efnhh+khj0eNvLfAZe9J2Vns+gX3KlWrVjPfv4jA6bPJH2/W44Mmye2ODFnOzz/PDzkNWtRyeQnuYUxPL51vflaqdIySZls1aXJBjilWt/c7R2+9NYAXGwBCFsq/deuW6e+/1+YaX63aCTrqqCqhO4/LpcjI7J6Mm/u2yDWfz5ehjh0qO48ff3ziYX+Oqal7NHTIjTme91LNnDku33mGBF1XJEl79+4+4PV27NjXGW7X/kZ5J28M+Uv0/CXv5I2Kj7/HKRcb21UzZ+13rmOKT7jPmfbHH6sOuFxBdbr3njYh0375ZaEzXKNG7WK3+/AR3zn1+/Kr7EA3aeILvPAAlEucLkSI225tLZ8vXca4dO65HXRJzDWKjIzWxAkvaO/eXbnKz/gyVZfGuZygEhdr1LJlnOrUaaz58z/Tli2/OWWrVDlOsXHd8lzvxo3rdE+ON/ksr746p0h1H/T41flOe+rpj7ODRVDoS5ptnd6eIc/doIsvvloVKhyVa/59+/aqwxWVdPMtQ/X7779o6qejnGl33zOqSPW78KLOzvDECc9r3jcf6+Zbhmrnjn/0/vtPatu2TZr1tc/5okCHKypJMrr7npE677wOioqqqBXLv80VfIparrA6rVq1UD2619UNNz6u5J++1tdfj3emvfX2Twe9T2XdOqNTp35q2+4GNWlyvlau/D4orLt54QEgZKH88/kyL/621q8FCz7TggWf5SozddoOZ9gYoxlfpuny9hWcccnJSUpOTgqZp1q1mvJO3pjvetPSUrRs6dxi1T3rup+CBN9sdez7mT8tM/2LFHW44uhAYDk635/gSUtL0fDX+4eMO/XUJurcuV+R6xjcVn///asGP3FNyPQhQ27Uo4+O0759qc51bM8P7ZlrOTVr1lOFCkcVuVxBvpixV1dcnllmy5bf9NKLofdDG/Dw+85F+gej542NMvebqW9o6tQ3ck2fOOkPXngAyiVOFyJE0myrl19JUu3aZ+Sa1qVLfyXNtqpU6ZiQ8VFR0UqabfX4oEmqUiX3m/Hn0/c4AWvDhhWH7bl99NEQ51tvbdveoNq1M9/8K1Q4KuT+WVmhINioNxbq2msHOr0u0dFH6fXh32nMewf2fLLa6r7735Yx2S+/Vq3aalLiX3r00XGB5VeUd/JmXXBBJ0VHZ4ek5mfG6MWXZuqj8esOqFxBoqMrKmm2Vb9+L4eMv/iSazRzVrrat7+xWO0+5ZOtuvfeN1WnTmNn3LHH1tD/rrxVSbOtjjvuJF54AMolc6RX0MbHK/iOl8brPeg6B3oo+KXg0t5m1jqnEBW4c3iHjn01a+ZHSknZoZdfSVLLlrFH/PMo6A7pwMGKizUHfQwLPh4W51gI4NCgJwsln9yNUdJsq2OPzbydQHr6Pn36yUilpOxwHgMAUN5xTRZKzcdTtiglZZfeHf2o1m9Yriuu6K22ba8/ZHeABwCAkIVy6+ijq+iuu4eXybp36nSbOnW6jY0IADgodCkAAAAQsgAAAAhZAAAAhCwAAAAQsgAAAAhZAAAAhCwAAAAQsgAAAAhZAAAAhCwAAAAQsgAAAAhZAAAAhCwAAAAQsgAAAAhZAAAAhCwAAAAQsgAAAAhZAAAAhCwAAAAQsgAAAAhZpclIMlrDZgdwmI5BHH8AQlb5fbIuaSKbHcBhOgZx/AEIWeVTmzZGfqsn2OwADtMxiOMPQMgqv4yRjNECNj2AQ3zs4bgDELLKt9g2RpLON0bpbH4Ahyhgpce2MefTEgAhK1yCVhSfLAEcgoC1ILaNiaIlgPATEa5PPKtHa84cK0lP+qXusjqdXQJA8ZOV1rikiVyDBRCywlqbzLD1ROAPAACgRHAzUgAAAEIWAAAAIQsAAICQBQAAAEIWAAAAIQsAACDchP0tHOb+ZiWppT9DL0s620qV2C0AFIeR9kha5IrQ/TGnmmRaBCBkhWO4quvL0Hp2AwAlKfBhLdaXoZ+S1lq5I1Qv5lSzgZYBwktYni5M2mDls4ohYAE4FHwZWp+0wcbQEkB4Cc+eLJ8kaQ6bH8AhPO7MyTyTCCBchF1PVtI6KxmtYtMDOAzHH449QBgJv54sK0lqyKYHcBiOPxx7gDDCLRwAAAAIWQAAAIQsAAAAQhYAAAAIWQAAAIQsAAAAQhYAAACKLYImAACgeGx8vCRNz3psvN4OBzR/166S1EF+/52SpKiou8348b/SsoQsAEB5Cw29eknS5ZImmLFjq5ZiMPlQ0vW5Jhpzk/F4xuYzz0OSns8xabeMaW88nvkh5RMSJMktazMCo5YZr/fMA6yjDapXZePx7Mmn+BXFbJLazjJ8vifYCwlZAIDyGK6s/SIQKnaUYsCy+Rew79muXeubxMTHJclee60k1dH+/b/lM0dlWfu9TUjYZjye6iVSx27dJOl/8vmC67VUUn32FBQF12QBAGR79ZLt1etyWWudgFVa68oMWNlhyZg1crtbyZhTZExfGbNFkpyA1auXFBVVIVfAMuZFGXOTjJkSFIKq2YSEfSVSUZ9P8vmm5Rhbj70FRUVPFgCEebgK6bk6dOo4WcnjCf5Nx3cDf9n27JGkvUFjPjZe7zVBj8cGTgtmyFq3rI2yXbs+nRXSDqpduneXpJOUETjL6HJdK79/fCAkJhqvt+sBhsq+kt7JERI/MR5Pl3znS0hYKGvPDho1zHi99+VRTpIelbXP5Fj+Q8bjeTFHPWxgWorc7iuUkfFN0BybjNd7UmB5S2Rt9mlVl2uUSUy8w95yiyRFatu2/YHlrDMeTwNnHf37S1K0Nm1KC0y/33g8r4Tr64ueLAAI03B1qHquCq1LQkLHfKfdcINUseLRkoyTHUIDVqYmTaQmTaKcx37/Y8WqVGYv1vLsitgJMiYl8CjhAJ6bZMy2XAErc5lX2fh4m8/6cwYsSbrXJiT8kEfA2psrYGUu/wWbkLA174rZo3MELEmqaRMSMgL7ROh1a37/7TYh4Xvz9tvStm3pkvYFlhN66nTzZmnz5jlBAfqVcH6dEbIAgHB1OLwZ9Ib/mY2PtzYhYY/t2vWBkFKpqVJq6lVBY57Pa2Fm8GBpxQp/ibTR4MFSkyYuWVstMOrTwP+LnDLx8fcXKWBJb8narC8OWEVEnB04LTrbKde1a2yeCzBmiVyutnK5Xghqq3NyLP89WVsxUP5t4/UaGWNkzLuB8sfb+Pjb861k5unWvkHLdweGdsjtvlLGPBs07XxJktstud0XBLVFcBnJ2vMCy54d7q83ThcCQJiEq4M6LWjtsbZnT1vU4ub9902hZbxe2YSEfpKqytpuIb0r1r5o4+NflDHLjcfTXMZI0tmygSq4XD8VEBgkKUXWHl2sxlq5UpKSnMceTxdjjGx8/JKgUi9JermQtpOkW4KetysoWMXJmLtMYuLryr6FQ/Bz2WA8npaBEDNL0gmSekqS7dGjuZkwYVlg+b2yFmk8nluV2XskGx/fV1LvQA/gSEmjctXP43EZY6zt2lUy5lf5/XOD6lo1EOQ+kzGNZW0XZZ5GrWUmTvzTxscHb4dHJD0aeA73yu9k3bbh/rqjJwsACFiHnPF4ZDye7oqIMIqIuETSvBwBpZmNj08PPFoYNOWiAkNNcQNW9nJiAmEn1RhjnRBnzFCnWPfuFxf9CZvUkIeJicoKWPnUYUBIeDTmA+dxevo5ea3BxsfbrL/AtVem4CplPi+TmCj5/d8ETVidoy0mOI/9/lY5wpUCYayZ/H7J738lsIw04/H4wv21R08WAJRzZuxYSZphe/UyBxy2jEnL7xRdidRt4kQFAtYltkcPSTpB6embnfeoJk0kaaJWrPgo8CbfX9JduTJJ5qmzSk6P18Hmq8yLw4cGhYyKznVTOZft882R5C5icKtwQBVxu3PeqiK1kDkyJP1TQptlY1A9MtftC81LxuuVjY8fIum5wKjvFRXVVPv3Z813Aa88QhYAELYKlmbGjh1ckvUIhKnmysjYazyetU79JkyQTUjYImN2ydoqClxrZePj/YELraMDgWqJ8XhaOMsbPDjz/WzFit1B4bB7Mao4oIjByWUTEqoZj2dbUZrfJiS4s3p3AqHwR+PxtC6p93Pj9Z50aHcoI0nfyNpLZG0lpacvCgrPybziCFkAQNg61KcRM2+L8KOsjbQJCX5ZO13GTJYx+2TtQ1kBy+HxSFJFJST4A+HmTBsfb2VMkqSftXLl/2TtqUFv/v8aj2dSPsGgvk1ImJNPzdpI6hLUY/W08XoHheSqG2+UpOrau/ffwKjlkk4uIIT0lbWjA/XOsF27Dpffv0nSIFlbIdBL1lPSBwfcji6XJPWT3/+GMnvhrIwZKGN+kNRFfn9/GTPJeDzdS3FrxgV60SRrjw/UaxCvssAmogkAIHzDlhk7dkbg22hXHLIVZ17nExkYdkn6n6x9T37/eFnbIiikHJv5z0h33WVVs2aFHMuJk7V3hgQsaZPxeI4vYN1Hy9qYfP4kaz92Vp8jYEmS+eADae/e/4KWl2/vkckMh+/KmE+ckZmnO58LOn34n/F6Pzio7ZeYKFn7poyZFlSfIfL7kwLrkaztZnv1qlAq+0/m8/Plcb3Z07y6CFlAqfL7/VowZzoNAcJWzvV5vZLLZeRyxcmYX3K/M7mGG6/XGI9npzPP8OEyw4fvC8zXTdJ/uearWLGS8XpPst26yXbr1vTAK2ZqBz0q7MeZb3ZyTXz89EKCSBcZU13GLAialCFjOhuv97hiB53IyE6KiqomKbiHbpOMecV4vcaMHZtWahszIkKKiDgvqA0X8ooK2j5HegVz/r6V8XqLVeektVYF/l4WUELiGpic+x2guAbmoI9hwcfD4h4LC1xP8LcRjdlRWj8QXaw6Zp7SM84pxEz7JI2WdJ2kY+VyxZnExNnsdSXc9oFr6syECcsC15bND7o3VrTxePbTSoEMShOgPIWZIgTsQ/kGAJTNT99Z12zddJORFHNE1jEzq1obH28kbZFUI3Bh/B1BL8RotmYpSE+XpKU2Pj70G5fGrCZgheJ0IVBKbwD3PPWGjjvxFD3/3pc0CMrmfvzeezLvvTf3iK6j1ytFR5+g6OhjZMwIGTNXUk81beo2Hs8MtmIJf4Ds1k1yu0/P46C3y3g8jWihUPRkoVzpc9+zR0xdOl17mzpdexsbBSjtoPXRR5K0S1J/Z6TXS8OURltPmiRJa2xCgpFUUS5XUzNp0iJahpCFMHDd7Y8UWibr9GKFikdrhHe++nZs7kxzudyatmSnKh6V+6bRa39Zqn5dzpYvI90ZN2z8XL037HEtW5R5s+TgU5J5XZM1dfybenVQP2fczVe21Lpfsn+pI/6me3X7o3n/nuq4kc9qzLDQ37y9ZcAL6n7zg2x4AIc2bGVe0J8qiYBVAE4XImylpaaEBCxJ8vt96ti8kvz+0N+Z/WD4U7rlyhYhAUuS7r02Rst//Pag1h/XwIQELEnyvjdMt199bq6ylzc5KlfAkqS3n39IXc6pwcYEAEIWULriGpg8/wpyx2Ov6qlRUxQRGeWMu65NPWfYWquxrz3hPO5+ywDNWJmqNz/5Uca4ZK3/oOtb/4wWevH9mep280POuFXLQr8B/fxDN2n/vszb0Pyv+y1KWmuVtNbqioQ+kqSd2/7Rp+NGsfEBgJAFHDlmrEzTNb3u1kXtrtJXv+xzxm/Z+LszPOLpu53hu58cpVseGqqo6Ao6vWkrff3rwf/+6Ymn1NU705LV6sLLdOuA59WuS09n2rpVy5zhLz8eGxgyuu+Zt5zxDw4Z7dyF5bXBd7AxAeAIwzVZKFduuvfAbjQcFV34N7yXLZrnDHe+rl+J1fWWh0J/c7fd1TfqqynvS5JWLf0/e3ceZ1P5wHH8e+6dGYaxM5bIbmQJSVptpY0WRaiQUfQLpWjRKllSKbKFUiSUKSVKyFaSfWTJln0d6zDGmJl7z++PmTnuNXfGrMy99/N+ve7Luc/Zn3Oc+53nbKtUteb1l4xhZvhxFQAAQhaQozr1fDPHp1m1Zj3r2ql/N6zSdfVuypHplilfye17vnzB6Q5vsweoaPFSbGQAIGQBvqHXWyOsFqaejzbW5AXbVKFy0mNinn240RVbDqcjURErDrFBAICQBVx5b//vkTT7DRz3Q5amGVK4qMLqNtK2jUl3KndpGXZF16nPwHHWYx9aVDP0dL+huq5eY/25YJZmTRmlZq3a6+2RM9j4AEDIAnLPnwtm5cp0x81apVEDX9CsKZ+6lTdv1UGL5+ZuwHnw8We1cskvWrHoZ0nS5x/1d+u/ZO63eu2DrxSULz87AADkIdxdCGRQ77dHWo9P+H2HU4t2mnpr5PQrMu/BE2brp7UnVa9xM6useKmyahv+khbtNAlYAJAH5flblVzfOq8cePN88pO3eXsvMuXooX3q1+kuTV6wVTbbxb9NRrzTU7O/SXpG1XX1b9aYiBVUFtLVopqR5WOY6/Ewu8dCALmP04VABnRsUkmSqbtq2NMchoAFAHDF6UIgA158b1ya/QoXLaEFWxOoJACAG1qygAx4oGMPPdCxhyTJ6XRqy/oVqlHnxgw9zBQAQMgCkAE2m011Gt5GRQAA0v+9oAoAAAAIWQAAAIQsAAAAQhYAAAAIWQAAAIQsAAAAQhYAAAAIWQAAAIQsAAAAQhYAAAAIWQAAAIQsAAAAQhYAAAAIWQAAAIQsAAAAQhYAAAAIWQAAAIQsAAAAQhYAAAAIWQAAAIQsAAAAQpb3MSQZ2samB3AVjj8cewBClu9qUdWQTNVk0wO4Cscfjj0AIcvH2SXZ1YzND+AKHnc45gCELD/4a7KyIbuhpfYAVWEXAJDr+SpAVVpUNpZSEwAhyy80rWSoaSVjtz1Ahj1ANxjSYkOKYZcAkF2GFGNIi+0BuqFFNcNoWsnYTa0A/ifA3yugaSVDktZLasHuAAAAcgqPcAAAACBkAQAAELIAAAAIWQAAACBkAQAAELIAAAAIWQAAAMg2v35OlrlhmCS1dZrOmewKkCSbYWtn1Hs1Isv71C+bJamt2KeQwrC1M+6vHUFFAH74m+KvK+7cMFSmnMcJWHDbL0znTOeGocezFrA2STKPE7DgvmM4Z5q/bDpORQCELL8JWJKOm6ZKsAsg1W+iqRKZDVpJAUvHZZrsU/C0U5UgaAGELN8/1m0YJkO2tgQsXC5omRuGtc1YwNosyWhLwMLlg9bmtlQE4D/87posp+mUJE7nICP7ysykd/1e7seTfQoZDVoZ3KcA+ATuLgQAACBkAQAAELIAAAAIWQAAACBkAQAAELIAAAAIWQAAACBkAQAAELIAAAAIWQAAACBkAQAAELIAAAAIWQAAACBkAQAAELIAAAAIWQAAACBkAQAAELIAAAAIWQAAACBkAQAAELLgU7bvPaZ7nv1CJ06fozIAAH4lgCrIfaZpakLEKq3atF9VK5RQnyduU4HgIL9Y9+se+liSVKbFYCWsG8LOAAAgZCFnVLl/mPYeOu1W9tbo+coXFKDYVe/5zHra6/eXJG364UVdVyXUKh/U+269OWq+fvusGzsDAMCvcLowFwU3etMKWA1rXaNxb7ZR6yY1JUkX4hM17ru/fb4O+ndrLkfkULW4qSo7hJe48YX2MlrVVat3nqMyACAbaMnKJV/+uEbxCQ5J0uIvuqtJw8qSpO5tb5Ik/fbXdt1zaw1r+FY9v9S85dvdprHvt9d0Teki1veU1qLXn26uIZ8vtsp7dbhFI197MNVwq6f3UqOOo63yateW0LbZ/dzmMWLqn+r70Vy3st2/vqpryxZ1KyvTfJCOnbp4XVWRQvl18o933OYnSXUe+USSFP3XAIUUyGeNF/7wjZo44FFruJJNBurUmfPW96KFgnXij7et7+O++1u9hvyk0OIhKlmsgLb8F2X1+33iM2rWqAo7WTrW7tjssbx8ydIqXaxkmuOdvxCntTu3SJJ+WfNHluf/2S/f6n9jBkmSVn0yXY1q1GGjACBkIWc8PeB7SdL1NcpYAcuVa8ByDTD58wUo7kKiJOnae97X3t9eU3mXoCXJLWBJ0ugZK/Roy7qp5uMasCRp574TuuuZiVo48RlJ0msjftWHXy2TJN13e5iOHD+r9VsPqfJ9w3R82dsqVjg4VYgqWihYp8+eV/TZOAU0eF2J6zN/nZXr9IoXKaCT0bE6ffa87PX7yxE51G3YqJMxijoZ41Z25zMTUw0Hdzf26XDZYR6+uYVmvTXSrSw4X36vXef3v/tc/+xJ+kNl2isfsBMAuOo4XZjLuj58Y7r9D0WdsQLW+dXv6dzK9+SIHKqalUtJkqq2Sv1jMeLVB+SIHCpH5FCFFEi6gP7FD35ONVyFMkWs4V7t2lSStHj1Lqt/SsA6u+JdzRn9lNbM6K3xbz8iubRIPf/+bGt4R+RQnfjjbTkih6pBzXJWwHINPJt+eDF5ufJ5XN9eQ35ym96xpW+5jd976E+pxjmz4l1rPVLMXrKFnSubfvx7kYxWdWWaplu5OXej9fEmi/9ZpelLf9X0pb+ycQHkCbRk5bJ/d0Wl2//Ln9ZY3UGBFzfH3NFdVbXVB0pMdKYap3fHW926h36xRJHbDqcabsYHj1vdA567S8O+XGp9dzovTrfQLe+kGvfI8bOSpAkRqyRJXR68wa3/mhm9s1Qfn/+w2uP0Oj9wg6b8vE6f/7Bao/o/5NavoIc7Mf+K3KsHm9ViB8uAS8PStgO7VbPHxdPLttbXuw0z5feLwbrznQ+6jet0OrX4n1VasH6FggIC1bLBLbqjTsPML5NpavTP07R25xY1rFZLvR98It3htx/co+lLftHhU8d163X1Uy0XABCy/EibFrU1a9FmTYhYpXFvtklzuBJFC3gsP3LibIbmkz9fYJr9XE8zugY4SbLZLjZiDup9d5rTKFY4WFEnY3T42NkcqZeU6R05HuMx1KWcokyLzWbI6TTZwbIhrHxlmXM3ymhV1yqb9ddCtbn1rqQA/PEbHkNW8fa36VTMGbdpvTdjvCRp3sDPdE/D2zI0/7rPtdGmvTut75N/n63nx7+vxmF19ffH09yG3Xv0kCqF3+NWNv7Xmery8Rsa2f1VPf/Qk5Lkti6u3+9teJt+HfgZGx3AVcHpwlwS8fGTVre9fn8dPBotJd9VeN1Dw2Wv318JCQ492+5ma7ix366wum/rPE6SVKda6Vxf1r8i96p/t+bq3625urVppMZ1r1X/bs2TlumNhyVJ81fs0K4DJyVJx0+dk71+f/3w+6ZU0/rpMqfxRvVP+tH+7a/t2nvolCRp/5HTmr9ihyRp9OsPsfNcIVHTLrZsdhz2ymWHdzgcVneNchXd+t379rMZmmfFp1paAatQcAF1bvGACgUn/aGxcttG3fLSxRat0zFnUgUsVy9MGKat+3exIQEQsvzRPxF9rO5r73lf9vr9VeCmt7R973FJ0op/9kmSXn6qiSSp99DZstfv73Zh+AaXaeS0PfNelST98sc2a75lWwxWy+6f63TynX9t7qyt0iVCJEnVW38oe/3+Kt086a6xoZ8vsab1YLPrJElvfPqb7PX7a/DERR7n2bZlXZUsVlCSVOX+D2Sv31+V7h0mSSpZrKAeuZO70K6UUkWKW90XEhMuO/z+KQuVODtS5tyN2jZxjsy5G/Vmh+5W/++WzUt3/BNnTmvfsSOSpCebt9aZiJWa3HeIzkSsVMem90mS/t72jzV8uU4trO5f3h1rXSd24cd1SYH8f6+rZoWku0zNuRt1d4NbrOFThqUVCwAhy0fVrlZajsihev7xW93KWzepqcT1Q6y7Ad/vc5+2ze6rsqUKWcP07XxHrt9BV6FMUSWuH6JH7qxtlTWuW0En/3hHRV1O2x36/Q1999ETCgi4uLtMGfyYVk/vZX2fNaKznm3X2Pp+JiYuzfkeXfymvh7SXjabIUkyDENTBj+mo4vfZKfJwwoXCJHdbtf2g3s0bclcfbXgR1UtU+HiPrDi93TH7/fFR1b3nfUa66sFP1qfuxtc/D8yI/nC9fPxF6yy+268w+oOCgyUOXejerbuyEYBkKcZeX0BzbZtJcm6CMeIiMjWMicHFy7qQYbY6/e/7P6WfNF4ntqnXK9RSusuwR0H96pG99aSpJD8wTr7/ap0x73+uUe0ce+ONOfZsv4tmj94gpTGc7Ia9G6ryF3bLrvs/R7pog+79bOWo0LJ0to3eeFlx7vnze6av35FuuucR7ZNlo9hrsfD7B4LAeQ+LnwH/FRKwJKkee+NT3fY3yP/tgJW29taaubrH3sMdOm5vdYNVsg6Nm2ZShYplqHx9h8/ysYC4JU4XQj4kURHoqYtmesWjPIFBOq2Wg3SHe/rRRefw+YasL747YcMz3tE91et7lKPN3F7jMips9G6960ebsNXKVPe6u700cXrFP/dt0tGq7q6vV8nt+HrVQmzun9euYSNDeCqoyUL8HHptTTZDENxP6277DSeubetJic/P8toVVdd73pYC9av0IETGW9lstvt6tziAU1JDmz2B+qlGua5Me9pbM+3JEn/ffGrtexTF8/R1MVz3IZd/m+kYuPOq0D+pOsHn7mnrT78/itJ0oMDe1vr55jzDzsBgKuClizATw3q1DvDAeS2Wg30attw6/uXC3/UgRNH9WF430zNc3LfIfr8+Xc99isWUtgKWCnMuRsVkt/zs9P2TPrNCliSVP2aimrVqInbME7TTPVEewC4Yn/k5vUF5MJ3XE3eeuF7bjoefUrn4y+oQqky2ZpOoiNR63b+q+rlrlWxQkUuO/zuIwd05NRx3VSjrux2e7rD7jy0TxcS4lW7YrW8d9DlwnfAb3C6ENmyauN+/bz0X0nSe73upkL8QEYvWL/swcceoJvC6mZ4+Mplyquyy3Va6alW7lo2FABCFnLGc4N+1PiIlanKa1UN1aKJz6hU8ZBcme/afw9qyOeLCVkAAFyCa7J83Jb/olSmxWBNnbOeygAAgJCF7HBEDrU+DWtdI0nq8uZ3qYZ797OFuq3zOD3W7xtt33vM47TiExLV/d3v1bD9p3pmwPe6EJ9IBQMAkAGcLvRxq6b1cnsXoiQtX79HTbq6P3zy+4WbVKxwsI4ve9sqe+K1GZoxb4P1PXLbYU36cY063FtP37zfgcoFACAdtGT5uGMnY1KVpQSsG2uXV8K6wVozI+mZQqfOnNfjr06XJP27K8oKWENfuFeOyKEa9mLSS3xnzNugrbujqFwAAAhZ/mX09L80evpfCn97psq0GOzW75u5F6/NWvlNT9lsNjWoWU4zhz8hSfr2t6TnJj30whRJUt3qZfRK16aSpH5dmqhOtdJu/QEAgGecLvRBLwz72e17YIBdcWuSXta7eafnJ3Q3b1TV7ft/+08kl1dJNdymnUe1c98JKhoAgHTQkuWDxr7xsMa+8bDmjH5K8WsHWwFLklo3vc7jOC8Pn+v2/a6bkx7i+NlM98dCpDwmouUt1aloAADSQUuWD+rRrnGa/W6tX9Hqttfvr54dbtHf/+zT2i0HJck6bTh39FPKd+Obik9wqOhtA9Sz/S0a+90KxSc4rP4AACBttGT5ocT1Q5QvKClfj5mxwgpYH7/cWo/cWScpfQfYtWPOy5Kks+cu6P1JS3Qm5oIkacecl2W3s+sAAJAe3l3o5zbtPKJrQouoWOHgtENZokOR2w6rXo2yCgy0+1X98O5C5PhBl3cXAn6D04V+rk61y7/kNyDArhtrl6eyAADIBM75AAAAELIAAAAIWQAAAIQsAAAAELIAAAAIWQAAAIQsAAAAELIAAAAIWQAAAIQsAAAAELIAAAAIWVdxhQ2bbIatHZseGdhXMrafGDaJfQoZ21fYTwBClg8f4+q9KlPOCMPQCTY/0txPDJ0w6r0akaFh768tyYyQYbBPIb2d6oRxf+0IKgIgZPn2StfrL0klCVpIK2DZ6vUvmalx7q8jSSUJWkg7YNUpSUUAhCy/CVqGbCU5dQi3/cKwtctswHIPWkZJTgnBfcewtSNgAf4pwK+PffVelaQISQa7AnJkn7q/NvsUACDpD3eqAAAAgJAFAABAyAIAACBkAQAAgJAFAABAyAIAACBkAQAAgJAFAACQB/n1w0gnHdsmSVtlKoxdAUCOM7QtvFRYTSoCIGT5jSnHdkhS00TTuYRdAECuMRU2KWqbGWDYmnUuVX0pFQL4F787XTjl9B4pMLAyAQvAlZJoOpdMOb2nMjUB+Be/a8lKjL8gSbvY9ACu8LFnF++0BPyLX7VkTY7aIbtsDdjsAK7SMYjjD0DI8k0OwymH4RzOZgdwlY5BHH8AP+JfpwtNSVIjNjuAq3QM4vgD+BF/fE5WCJsdAMcfAIQsAAAALxRAFQAA8qLhsdMlqUJcQkItwzQqOW1mJZlmRckoItMMkYxCMswQQ0aIaaqQYaigaeqcYeisKTNGphEjmWdlGDGSGS3D2GtzGntMw9yTPzBwS98CHfdTyyBkAQB8zpAzkyXpFtM0Wsk0W5lSfdf+5+PjrW5TpuS8+M3610zuJ8lM+ifENFNOyyYPZ17815k8zvn4eA06PTnVMhlSpAxjrmGYc18v3GUFWwmELABAnjY4Zqok3Wk6nH1kmq0lyZkqNF19plRfplnfNPWGWwgzjDmG3TbijZAnf2drgpAFALhqvjQXS1L+g2cOfCbT2cVMdHj3CplmazPR0doKXoZt8jWFyz/b1Wgex9YGIQsAkOuGnPlakvodjN73oU+vqOnscjB6X5dBpyfLZrO9/HrhTh+x9UHIAgDkuKFJLTztHU7nDH9bd6fT+eGg05M/tEsd+hft8i17A1LwCAcAQLYMOj1FDhnrHNIMf64HhzRj8Okpa9kjQMgCAGQ/YEVPkQz1kUzey5h0F+QNg6Kn9KEmQMgCAGSP05Sc5iAqwiVomc4PqAUQsgAA2bI/5rD2xxx2UBMudXL2SCK1AHHhOwAgOw6dOyZJhYvnL6aCgfn9vj7OJcTpSOzxYewZIGQBAHLEphPbVSJ/EVUrWtFv62Dn6b06ERctwzDYIUDIAgDknBNx0Tpx5B+VLVhK1xYq6zfrve/sYR1OatEDCFkAgNxz+NwxHT53TDbDpkqFr1Gp4GI+t47Hzp/SnjMH5TSdqXua6ijpXfYEELIAALnCaTq1K3q/dkXvlyQVzheiMgVKqVi+Ql63LqcunNWR2GM6cyEmA0ObnC8EIQsAcOWcuRCTKqSEBBZQsfyFVTSokAoEBl/1ZYxNOK/T8Wd1Ku6MYhJiszYRw5jG1gYhCwBwVcUkxComIVb7dcRj/3z2QAUH5FeQLUj5AoIUZA9UgGGX3bDJZthltxkXuw2bHKZTTtMhh+mUw2la3YmmQ/GOBF1IjFe8M17nE+N0wZGQW6tFSxYIWQCAvO2CIyE3w1DuMM2+kgaw9UDIgtfas2FTqjKbPUDla9WQzWbL9LiSFBAUpPLX1cjSMlSqVyfT8ytdpZKCC4Vka9oA8ljGkjGbWgAhC17L6XBoYMtH0x3GHhiowct/VWilCqn6XW5cSSpfK0wDl8xO549V0206jw9+U3c908njsBmZ3+gdq1WgSGGP40yK2sZGB7yEYWg7tQDxWh34MkdCgl676S6NffqFLI1/YMs29areKM3+Hz7Sxe37tDey9/q2XtUb6dTho2w4APARtGTB63lqcRrVpafW/7pQkrRm9jz9/cMc3fxIa4/je2olCg8NkyTFRp9Jc75bl6+UJBUOLakzUcclSf+t3aCqDeulu7yXzm/E4931z8KlkqR+9Zvqi6Nb2aiAFzNklqAWIFqy4Kt6Tx6jl779wvo+4dm+OTr9iMHDre6P1i22uoe06pDpafWZNsHqNk2TjQd4OaeMZ6gFELLg0+o0v93te0YDzM8fj7W6C5fy/AfpLyOTgpFhsykgKEhNOz2WNA+nU7FnzlL5gF8zR1AHIGTB59VqeqvVvWvtBo/DhIeGuX1mvT9SklS2ehWN2PxXquHXz/vd6n5x+kRJUpfh71llbzd9IFPLmN4pSQDex5HoLEotQFyTBV+XEHfh4s4eFJipcQ/v2KVe1Rtp9I7VbuWjOj9ndbu2lhUqUUxnT5zSyYOH053uyCd6SJKcDqd2rlmv8y4tX7e2f5iNBng5w2Y+I+l/1AQIWfBpO1autborXl/b4zCeLnz/vPer+uvbHxUbfUYz3n5fHQa+Jkk6eejiU6kD8+fTW00uXkwfFBws6ZQk6dPOz+n5KWM9zm/DgiUey8uFVdPTo4ax0eBVTp48IUkqXpxrvVM4HeZpagHidCF82eKvpmd5XNews2DCZKvbNVQlxF3Qwa07rM+JA4esfpEupxTTU6hkcd362EMau2udBv0xl40GrxMfH6/4+HgqwsWJE8dGUQsQLVnwRYd37tLIJ3ooavc+q+yNX77N1DQmvfC61X1tneuS/jp1Oq1TeyHFi6lhq5apxju2d7+2LFshSZo7Yrxa9emReto8WBQ+6MiRwwoNLX3Zty34NEM6euQIOwMIWfAdB7Zss55r5cmjr7+kqjfWT7N/euNK0rMTPpEkDXvoSatswKIfVbxcmXSn9/2Qjz2GLMBXRUUdVWBAoEqWLCl/exjJmTNnFBt7TpJkM4xC7A0Qpwvhy8pUrazP9m7IctCxBwTond9nqXSVitIl13elFbAk6dq6tazuLcv+YkPAryQkJujwkcOKOnpECQkJPr2upmnqxInjOnLksBWwJMlpmr3YEyBasuC1fx3Y7dk67ZaVcTM6zoDfZ13R+QF5kTM5gEiSzWZTSKFCKhBcwOvXKz7+gs6ePZtugLQZxmj2ABCyAAC5H7icTp2JjtaZ6OjkEGJT/gL5FZw/WIGBQXl2uR0Oh+LOn9f587FKdDgyPJ4pkycSg5AFALgKoct0KvZcrGLPxbqV2wybAgIDFRQUpKDAQAUEBubqhfSmTCUkJCgxIVHx8fFKiI+Xw+nIgSkbTdnKIGQBAPJU+IqPv6D4+AtevR6madZla0Jc+A4AQM4yDHFNFghZAAAAuYXThQDgherXry9J7SS9ExkZWScT42yS9G5kZORMahHIXbRkAYCXWRATI0mmpO+yOInv6tevb9avX78dtZnzTIe6UwsQLVkA4B3q16+vBjt35nQo+i65desxWrZy0DlHKJUAQhYAeEG4Sj4t+F0uzoawlZOOxe+kEkDIAgD/DleErVxgFLLHUAsgZAEA4Sp7YetYfNK/pYLYeMnMkkE8JwuELADII6HKzMYkatevX9/MpcVLCVuWyMhIwy1QLDslSTIeLc3GTKmTLed+pxYg7i4EAGQrUDjNpM/y01SGJB2Jl/lvzJ1UBERLFgBc5b90k97N927Kd6fTWSv5dGGGGIZxTtLqTMyykWmaBTMx/EybzbblsmHrUJw066iMNmWy2TDnxYFzyUmZx+IlGTzxHYQs5E07V6/Xul8W6O5nn1LR0r57J/TE517WPc9107V1arqVH9u7X6UqVkhzvC/7vKGuIwZLkqa/OUQdB72eZ9cxcv5i1b+7uVuZ0+FQ33pN9cmmP9nZJa1bt06SBriWZea6LNM090RGRjbPyLxcHkZaOwODZ/ridzPRlDnzsFQoQLY7S0iBhn+EqzXRMnefdwm+5ln2bIjThchrvh/8sbYtX6W2b/XTp52e0+mjUV69Pr98OkHnz6a+0cjpcGjfpn9TBayUYJKeM8eOW91nT5zM0+v/6ZPPpj7o2O1q1qW9dq//hx0+rXAaGankgGNIeuwKz/6xyMhII1t3F55NlPPHo3LOPCJz/VkZvtiwtTNWZsSRpHV0CVhJwddoyl4MQlYWxZw6rfDQMIWHhmnT4ot/jcecPGWV//vn31b5wJaPalSXngoPDdOge93PAgx7uJM1zslDR9Kdb+yZs9q6fKXb53LCQ8P0v8oNFB4apt8++9LtR75b6ZoKDw3T2G7PW+ULJ36t7X+vcRvfVa/qjRQeGqbPe73isfzLPm+4lX/S8Rlr/Y7t3W+VR+3Zb5V/0KazVb7+14Vq1aeHbDabXv7hK62YOTtD2ySzy5VWvYeHhqlntRsVHhqm3z+f6jbOc5VvSFVf6e0P4aFhihg0XD2rNkxVj1+/MkDvLZvjcV3sAakbmE8ePGzNI/bM2VTBNDw0TC/VvSND62iaplU+Z8RnbssbHhqmBROnKDw0TLOHj7H6rYiYfXH+0Wcy/H+lx/iPPZY/9HJvfdz+aQ4meStsZT9ceWrl2XlOjuQw4px7TObOWO88m3gwTubik0nrMfOInOvPyExzPUzuLoTE6cKseT6ssSZFbZMkdStdU18c3ZpUXvNmq/yFWrdo5JYV1jiP9O+j3pPHaEjrjkqIu6DA/PkkSdv+WuVxWp7kKxCs8tfVyPTyjtu93go8dzzeVgUKF9Lkvm9b81o29TudOx2tgkWL6K5nOql7+TqacGCTtv+9Rk+PHmZN57XGLfXptpWy2Wz6vNcrOnnoiIqXK6OXb2iuUdtXyTAM/Tr6c/37xwpdd8ctkqRNi/6w1i88NMzqfu2mu9zWO8WgP39JCoFOp16oebM+23f51o6sLFd69T5m5xpree98+klJUt96TTR29zpJ0h/TItxOg6W1P0yK2qafPxmn5k91VEixom7LvOybCHUZ/p7H9WnR9fFUZf0aNHOrR1cV6tTUpKhtijl1WmOffkHPfT4y3XUc3+Mlt2m17nOxtWlS1DZrO4WHhunBvj2VEHdBv3w6weN2vJzGbVql2e/c6WgOJpkIW5Jmzr/3XkOS+cqRIzkdrq7MM7FiHTLXn5G53iWoF7TLVi6/VC6fFJoHHgMRnZgUqA7HyzwZn6VJGIa4JguErKyq3rih1e364xx2SyOru81rfbRv01brdNA1NatLkm7v0EZRe/frmrBqqaZlmun/ebdr7QYNfcD9BzijP3aS1OG9/vr7+5/Vouvj6jpisN696xEd3rlLnYYNUMGiRazhqt7YQKZpauQTPTTmv7UXW59270u5SFdPj/7AKj9x4JAMI+nai/t6Pa1RXXpaYabunU2s4W56+H6P3dff5d6yPvG5l7V34xZNOLApQ+uVleXKSL0XLXPxerBTh4/qneYPWt+LlS1jhay09od0/7p3OjO1z7nWY72Wzdz63fRQUl2GFCuqNbPnedxPXdfx2QmfaOZ7H+nXURMVXLjQZee9du58xcfFWesfEBTIQeAqaRkSIklaX62aGuzc+Vg2n6WVNx44es4h545z0o5zafx1aZNRJEBGwQCZBe0yCtikILsUYCT9ggXYpEBDRoBNZoAkh2QkOmUmmjISTJmJpuQwZSaYMmIdMs85pHOJUnSizFgHOxUIWXnNkZ27rO4vX3xTXT8ZJEk6/N9uq/zQ1h26td1DOR7uMhOqUi33jl0qU7WSJCli0HC9s/AHSdLefzZrav+BenLo20mtJhFfakzXXipUskTagW/dPzKdTlW9sX6q1oky1Spb3xMTEqzuwy715trtOszYp1/Qo6+/pNJVKmZpHTO6XFnx7uLZmdofXBJOqnEKlSyeuW3nsm8lXLhwyeRNK0wGFwq57LSer3mzPt36t9q91U+9wxpfdvhyNaqp0YP3qe2bfZNaGR38MOWR1q2ZDRo0MCQ1yXgLiyFJz61fv36Z16zoBafMqHiZSmpVys6ZRpPdBlcY12RlQWjlipo35gttWvSHVs66eF1N8bJlNG/sJEXOX6xFX05TUHD+PLG8U18bqH//WKFRXXqqVpNbJUlVbrhewx56UlF79mv5tz/qmrDq1vD2gABtWLBUr8ya4jadF6dP1NAHHtf+zVs1+L7HrCDz/Nfj9P6DT2jvxi3qXeMmtXurnzXOlqV/acmUb7X06+8Uc/Lic3TOHjupZVO/05LJM7R5yXKrfM3seVowcbKm9h+oqf0Hat0vC9yW4bnKN2jDgiXZXq7MenH6RH3S4Rkd3LpDL9W9Q/Hn4y67P0hS8y4d9MEjXfTjB6Pcyu9/vruijx7L8PydDqeWTJ6hJZNnaMuyFW79+tZron0b/9VrjVvq7QU/XP43KzZWGxYs0dyR4xWbgVN219a9Tr98OkFblv2l5TNmaUjrjpKkbStWKzw0TMu+manXGt+t8c/21eR+b2d4nSrVq8PBJJvWr1+vzASmzA6PLIY5U09RC1DyxZR5e2dt29btDxAjIiLLy5zcCpQjf8ycj4nR6cNHVbZ6VffyszGKOXkq3Vvwr6SU62f2btyiinVrXfLD7dD2lWtV8fpaCg4J8The6oOHqf9Wr1e1m25IVb5r7YZULUgjHu+uHhM+VnxsnIqElnTrFx11XKbp1PgeffXqj19n86CWueXKqt2RG1W5ft0M7w/p6VntRuv6r4yIjjquwHxBKlCkcKp+/63doKoN62V4Wnv/2azytcI8XmSflmN796tE+XKy2e3ZrseJz72szh8NVL4CwX530A0PDTNy4niYnWNhTmrYswWNRKl+WY2Na0f/fj0VAVqysig4JMTjD2pwoZA8E7BcXRqwlHwrfc1bb0oVsC7EnlezLh3SOHYYqYJMSnlaQSY4JCRVwPqk4zM6umuPHAmJ2vbXqhw4pmV+ubLCU8BKb39Iz6NvvOR2N+LlFAkt6TFgScpUwJKkitfXzlTAkqRSFSvkSMCKizmnEwcO+WXAgr+0XpjfUwsQ12T5vpe+/SLT4xzff1CdP3w3R+bfpn8fj+UvTp+o/Zu3as2c37J1nZk383QXoT/IH1JQr83+hv+c8OX2izLUAURLlu+r0/z2TI+TcudjTvDUgpaiQu2auufZrmwkwJsZkgwtoiJcmM4nqAQQsgAA2VO3mlS32r1UhEvGMmzPUgsgZAEAsmVtjwnSpl0JstlaUxuSIWPe2tELp1ETIGQBALIftEYtlEoEz1WpggVlGE5/rQdbQEDTNWN+v489AoQs+I2Jz72sfZvcn8TudDj0Yp3bqRwgp4LWgJ+1dsDPsXZTdruMMMnwm/cm2WzqunbMImP1yPk8gwxuuLsQPs3pcGjfpn+t1xtZB0W7Xc26tNfu9f+ocgMeZwPklFVjfpek7ZKKNux9lyT9zzCdn5qmb/3eGIZtdOuSt78wYMAAJ1sdaQZwqiDzYk6dVnhomMJDw9yec+T64t7u5d2fZv1Mudp6rfHderpsrcu+GHffpq3aunyl2yeryxRz8pRV/u+ff1vlA1s+qlFdeio8NEyD7m3nNq1hD3eyxjl5KGMvoh39VNK0+tZzf8PHG7fd57F+JOnnT8apx7XX66Xr73ALRd1K11R4aJjGdnvebfjVs+dZy3Uh9vxlpyVJX78yQO8tm+NxmR96ubc+bv80OzSQS9aOWqi1oxaOWzN6UWCALZ8RYMtXQYYxUoYR723rYhjG9zZ7wG1rxywy1o5ZZKwZvbA3AQuXQ0tWFjwf1th6tlO30jUz9FJgR2Ki3l85X5K0YOIUtXymc5rDlqpYXo6E0jmyTM/XvNkqf6HWLRq55eIrWR7p30e9J4/RkNYdlRB3QYH580mStv21KlPrt3zGLDV+pLV6fTVGR3ft9fz+Pg9mDR2hSVHbdHTXXh3Ysk3la4Vpct+3rfktm/qdzp2OVsGiRZQYH685I8ZZy3XpE+k9TUuSln0ToS7D30tzGc6djmaHBq6AlaN+laQDkvokf3RTr7slqbIpx4Om1No0zTuv9ptIDMNYb0pzDMOcs2bUolVsORCyrrDqjRta3RkJWJdKL2BJ0piuvVK9n+5yD+xMa5nCbmlkdbd5rY/2bdpqnTq7pmbS+wpv79BGUXv3W8/Hcp2WaV7+bRkLJk7RgN9nSZJKV6mYoYAlSS3Cn7DGSdF1xGC9e9cjOrxzlzoNG6CCRYtIktbP+10d33vdGq5IaKnLTkuSTCd/aAJ51arR8yVpt6SRyR83N/W8U5JKOA2jriFVdhpmJcNUJVMqbkghpsxChqkQ0zAKGVKIaZqFJOO8YeisKTPGMI2zphRjGDor6YykvaZh7LEZ5m6nYWxZO3LhPrYCCFl5zJGdu6zutFptEuMTsjz9fhFf5dgyHf5vt1V+aOsO3druoRyvj7LVq8jpcFivXJn2+iA9PuRNSVLChbTPCgQEBaUqixg0XO8sTHrJ8d5/Nmtq/4F6cujbKlutiravXKuatzWWJEVHHbvstCSpUMni7LCAt4awpOu7TkhakvwBvArXZGVBaOWKmjfmC21a9IdWzrp4vU/VRg307YBhmj18TJ5ZpuJly2je2EmKnL9Yi76cpqDg/Nmaz2/jJmlgy0fdyrqP+0jPVqynfZu26q0mrdW8a0er3/F9B/THtO818smMPZuvyg3Xa9hDTypqz34t//ZHXROW1NpWvlaYpr76rjYvWa6IwcPVsPXdGZre/c93V/TRY2n2r1SvDjs0ACBXGHl9AV3fOq9svnk++ZRbjrwt/nxMjE4fPprqpcBH/tut4uXKZjvM5OQynT8bo5iTp3L9xdU7V69XlRuuT/US4Z2r16taowYZno7T4dD2lWtV8fpaqV5efXTXHhUtHap8BQtkeHo9q92oMTvXpCqf+NzL6vzRQF5UjCsqPDQsy8cw1+Nhdo6FAK4MThdmUXBIiIKrh6QqL1O1cp5bpuBCIQouFJLr808rSGUmYCn58Qo1b73JY7/SVSplerkefeMlbVr8p9t7HONizunEgUMELAAAIQvIqhZdH09Vlj+koF6b/Q2VAwDINVyTBQAAQMgCAAAgZAEAABCyAAAAQMhCHhUXc057N27xu/W+EHteO1auZQcAABCycHnfD/440+M8V+UGVaxbK1X53z/M0b6N/7qVzRnxmfXC558+Gm2Vzx4+xioPDw3T8hmzrH6v33Kvx/mmvFQ65eOqV/VG6l6hrnpce71V5jpsymf++Iw9af/S6UtSvgLB+qBNZ3YaAAAhK7tOHT6qnavXu5W5vmz40hcPp3zPzAuJTx48rD0bNqU5j8T4eCXGu7+25r+1G3Tq8NFU00q4EK/I+YvdyuJizl3sH3fBek+h0+HQudPR+u2zL3XudHSqZfa0XJK0ecnyNB+LMKXv2zp1xH25fhjyiSZFbdOkqG2a/eFot35D/55v9butQ5sM1VfK8K7vefzw0af0/sr5mrB/owb/+YuGtO7oNuxtHdpY3Xf3eCpD80l5kfalxu2N1BfPv8Z/DgAAISur3runrTYuWqaoPfv0bMV6VnnvGhcfoPlindvcxnk+rLHGhPdWxHsf6bPuL152Hm/efr92rl4nm83u1nKSGJ9gvaKme/m6bu/sCw8NU2BQkLatWK1hD3eyyjcsWKLRT/VUyQrX6OmyF1uZxnR73uqeP/4rnT1+Mil8nYvV1uWr5IhP0Nblq7R1+arLLpckffXSm6px840e12fs7nWq17KZW1nR0qGaO2K8lMUXbWfEv3+sUEjxYpKkkteWV+cP3832NMfv+8djeUBgoFurGwDAv/Ew0iw4cfCwmjzRTpJ07tTpDI1jmqZ6ThqV4XmcPnpMNz3cSpJ0b89uio0+owJFCqtIaEk5EhM17pkX9dH6i+9L3R25UW3f6qdr616na+tepy96X2xRGflED6t1570/5ujEgUMqUb5cmvMuULiQGrZqKcNmU8NWLTO0XJJ04sChTNXjxxv/UNSe/epVvZHCbr1JvSdffOfjh492kT0wafcctmphhqb36k13Wd1pjVP+uhrswAAAQlZe5foOwJbdu+TKPAoWLazfv5gqSSpRvpziYs5ZYeaupzvp007/0/8mfmINf2zPPp08dNgap8NAz6etylarkmvLlRnnz8Zo7qfj1faNvhq9Y7W+eulNbVuxWmG3NJIkvfz9ZJWuUjFT08xIGHur6QN6b+nP7MQAgFzH6cIs+M/lWixPF0Er+bReRu1ctU4xl7SIHdt7QHd2e1J3dntS/62JVPFrylr9xoT31sRDm/XS9XdYZTe0ulubFv1hjeN6EXeZalWUmJC0POOeeVHH9u6XJJWuUlGxZ85KkpZMnpFquUpee02qsvSWq3rjhhle5+BCIfpl5ATr+4XY8ypYtEiOb6s7nminrX8lne7csXLtZYNb7Jmz2v73GkUfPabdkRt1eMd/OrprLzs9AICQdSWM2bXWuiPtlVlTrPIhK+YpPDRM3cvXUb6CBTI8vY/bP63/1kS6lY3bvd66Y652s4svNn65YQuN3bVOhmGo+VMdtWnxn1Ly9UCdPnhX4aFh6lW9kd789buLy/XXr3q5QXOFh4YppHhRqyXuyaFv64WaNys8NEy1mtyaarn6RXylPnVu0w9DPrnscknS81+P06z3R2Z4vYf+Pd+qx/wFC7idyut/890e7y7UJXcGxpw85bE8RddPBumnYZ8qPDRMU14ZoF5fjk53mfZv3qr3H3xCGxYu0fgefTV7+FjNG/tFhtbn4Lad6jpiMP9BAACSJCOvL6DZtq0kmdYCR0RkeZmTr0sy2ey557kqN2jsrnV+ue7hoWFudzYCaewnWT6GuR4Ps3MsBHBl0JKFHDV21zpFRx33u/U2TVOfbPyTHQC+pqGHT708/tvxbHIQNSU1YhPiauLCd+S4IqEl/W6dDcNQkdKl2PjwJXZJay4zTLyk6yTtyua8XpOU8rTgx6l6+ApasgAAWRUk6T9J32VzOs0ldUz+AD6DliwAwOX8k3ya0NUsSQ8nd7dLDkjTLxmmsqSWkm6WtFTSbEmnstEo0Dx5evGSFkj6IwPj5ZP0hKTGkn5PJxBmdvqFJbWVdJukvyX9KulAGsM2kdQ6uftHSX+xSxGyfFWMpBA2PYArztBZH1qbNpLulvRb8vdpLiHrdUmX3mrbNfnfKEmlXcovvRkp5fs8Sfcld5+UVOyS4d5K/vdel2W41GuSHnH53l3St5JaSHJ9z1hmpl9c0olLhg1328oX1ZZ06TvIXk7+t2oOnGZFHudfpwsNSYZWs9kBXCVrfGx95ns4ykrSZy5l8ZKOuXwPlTQzk/Oxu3Rvv6TfvHTGeySN8kWXBL3MTN81YC2XNFXSvuTv/Vz6lbwkYC1J/qT4L/l0KwhZvsFu2mQ3bX3Z7ACu0jHIF48/C1y6Gyf/ezK55cpIPl0XekkLT9tLgtn8VH8OX2zFkqQKyWdeDElhyf8Ocun/2GV+51Km2cOlfFs2p/+1pNsldZJUMXmc4S79D1yyTs2TP671wB/9Ps6vThd2Ca2uSVHb1rPZAVylY5AvHn+CXbrjXbq/klRQ0k3JIUSSzl8yfEadSf63hqQbXS64T9EmjWutel9yOnKCpPHJ3UWyOf1Okp6U9JOkL5OvN3OVL/nfQ5KeuqTfQUnXuNxRCUKWj6xwUD5JqpIYf4Fz4QCu5LGnio+umuurH9a5BJjTOTiPfyTVTad/iTTKl+XC9Ku6BDAj+eL/lBsARicHO1flkkMY/JDfPcKhc9FKUkLC7gDD1ozND+CKBCzD1qxz0Uq7fXDVnk2j3DVghbmcrjuQhXnc6RKAIlymlZEn3j+eC9PfldyvYPLpR9c30/fycJ3VhUumaWRyHUDI8rKgVaq6OpeqvlSGDBniPSgAcoehbeGhYUbnUtWX+tiahUnaIWmcS9ktHobbd8mF5OXTmN4Gl+4HLunXyaW7nUt3twws56uSqrl8/9Wle0sWp/9KcktdbPLpx5bJpxhT1Er+N+XN8vmSl8PVl1z0jjzBbNtWZtu2ZsqHGgHA8fCKHAvtLq+nudyn/6WL6vLZL2myh3FcVffQ35Hc77ZLyiclT9O1zPXC+WczuMxGFqd/uekqi8PCB/HEdwBAVm2TVEDSUA8BLUV5SZ2TQ8X7aUxnh6S5Hn6fjOTHJAxzKe+aPM2XM7B8DdMoD3EJOZmZfjFJCenM75pLvhtSms9Ga8/u4/vy/Plg17fOizfPA/BjrsdDLzoW3pHBJ7OnqJZ8im2zh34lk+9O3J/JZciXfErvb5cWMuXA9BtJ2pnBp9iXT77Lcjl7sv/gtToAgNz0RyaH35lOv+NZXIYLGQw3mZ1+Zp5zdSCLF/7Di3G6EAAAgJAFAABAyAIAACBkAQAAwJ9ClmFIhrGdTQXAn5nt20t2ew1qAiBk5bQ/2FQA/JrDITkcz1MRACEr5+TPL+XP/4L111zbtk+z2QD4qZ6SJMOIoyoAQla2GV9/LZ0/f87lgaQTzQEDuJYMgN8w27WTDOMnq8Buv5VaAQhZOSMoSAoKqmx937TJYYaHF2LzAfCLgCX9JNN8MOkvTyPamDFjPTUD5H1e84qa5NdJ9JX0kUvxAdnt3eV0/mHMnBnD5gTgE8GqfXtJqpF8DVZPt4M2rxYDCFm5eOC5Tw7HL2w6AP51tDaijZkzi1IRACErd8NWUvP5LJnmw2xCAD4eruJkt9/KKUIAAAAAAAAAAAAAAAAAAAAAAAAAAAAAAAAAAAAAAAAAAAAAAAAAAAAAAAAAAAAAAAAAAAAAAAAAAAAAAAAAAAAAAAAAAAAAAAAAAAAAAAAAAAAAAAAAAAAAAAAAAAAAAAAAAAAAAAAAAAAAAAAAAAAAAAAAAAAAAAAAAAAAAAAAAAAAAAAAAAAAAAAAAAAAAAAAAAAAAAAAAAAAAAAAAAAAAOBFDKrgyjE7dJCkBnI43pJ0n0wzP7UCAADgzWnaiJP0q+z294wZM9ZTIQAAXIGfX6ogd5nt20vSfXI6p8s0i1AjAAAAvpyujWjZbB2Nb7/9lcoAACCXfm6pgtxhtm0rSX0lfZTOYAck/SS7fa6k/+R0HjJmzoyh9gAAAPJYtmvXTpJCZLOVk1RVDkcrSQ9JKp/OaP2MiIjh1B4AADmLxqycDjqPPy5JFZWQsMHjlViGMVuFCj1pTJp0ltoCAADw8uwXHi5JhXT27FSZ5oMesl+0AgPrGdOm7aW2AADIGTRm5WSYSXkmVmLi2lR1axizVbt2G2PAACc1BQAA4GM5cMAASbJp8+ZZHhq1TAUENOSZWgAA5Awas3IqwHTqJEkFFRd33MOD3Z8xIiI+p5YAAAB8PBMmPWriaUkT3VO3Eaf8+UsaX399jloCACB7bFRBDomLk+LiRnpoyBpDQxYAAIB/MCIiJOlzSWPcephmfsXFjaSGAADIPhqzctYdqUrs9k+pFgAAAD9it6eVAe+gcgAAyD4as3KKaUqmWePSYuPbb7dTOQAAAP7D+PZbyeHY7iEv1qB2AADIPhqzAAAAAAAA4DVozAIAAAAAAIDXoDELAAAAAAAAXoPGLAAAAAAAAHgNGrMAAAAAAADgNWjMAgAAAAAAgNegMQsAAAAAAABeg8YsAAAAAAAAeI0AqsC/mcsWS1JbOc1BksKoEQAA4EW2yWa8aTRpHkFVAADgP2jM8kPmskWS1FROfS+nWYIaAQAAXipMTnOmuWSRJJ2QTY8aTVospVoAAPBtNGb5EXPpUkmqLKdjtSQasQAAgC8pIaeWmEsWnZBhb2Q0bbqbKgEAwDfxzCw/YS5bLBnOtjIdu2jIAgAAPqyETMcuc9nitlQFAAC+icYsP2AuXSqZtgZymjOpDQAA4Bec5kxz6dIGVAQAAL6Hxiz/SHOSnMOpBwAA4GcZiPwDAIAP4plZ/sCUJDWiIgAAgJ9lIPIPAAA+iMYsP0lykkKoBwAA4GcZiPwDAIAP4jZDAAAAAAAAeA0aswAAAAAAAOA1aMwCAAAAAACA16AxCwAAAAAAAF6DxiwAAAAAAAB4DRqzAAAAAAAA4DVozAIAAAAAAIDXoDELAAAAAAAAXoPGLAAAAAAAAHgNGrMAAAAAAADgNWjMAgAAAAAAgNegMQsAAAAAAABeg8YsAAAAAAAAeA0aswAAAAAAAOA1aMwCAAAAAACA16AxCwAAAAAAAF6DxiwAAAAAAAB4DRqzAAAAAAAA4DVozAIAAAAAAIDXCKAKAMA/bdi5UzsPHtL+qCjtj4pS7IULKl+qlCqEllKF0FA1vu46FcifP0vTXrtte4aHLVywgEoXK6bCBQtmeV0unV++wEDVqVI5R+rp4LFjOnLylFtZ1XLlVLRQCDsRAAAAcBXQmAUAfsDhcGjQ11M16OuvlehwZnr8ZvXr6evXX1f50FIZmteNPZ7N1vIakro/0Frvd+9+2UajtOZ3fZUqWjthvAIC7FlejiFTv9Ebn3+Rqjzi3QF6tGkTdiwAAADgKuA2QwDwYfuOHlXoQ20UcGdLDfhqcpYasiRpSeQGVXisvYxmLfT5nLm5vtympPE/z1GxBx7Ute3a6+CxY5mexj+7dqnEgw/pyImTWVqG9gMGemzIkiTTNNm5AAAAgKuEK7MAwEd1fX+Yvpr3m8d+dSpX0vi+L+nWOnU89j968qQGTp6isT/NTtXvmY+G6+1JXyryi4kKLVYsw8tzfZUq2jDp8zT7b927T/3GjdPcv1e6le8/dkzXPtZBW7+erOrly2eqDs7Exqrso221ZMQnalq/XobGSUx0qP7Tz2jznj1pDuM0nexgAAAAwFXClVkA4INe+HSUx4asWhUr6ty8X7Txy0lpNmRJUunixTXmxT4ylyzSwK5Ppep/+ORJ1e3aTRfi43NsmWtWvFZz3h+qmQPeSdXPaZp664tJWZ52sz4vavi33112uKMnT6rEgw+l25AlSVyYBQAAAFw9NGYBgI/5a9MmffrDrFTltSpW1ObJX2b6oe5vdemsj/6X+plUUadPq+eIkTm+/LUqVfRYfiALtxq66jfuM3Uc+F6a/Vds3qyyj7TVmdhYq8xIY1inkyuzAAAAgKuFxiwA8DGL10d6LO/V5uEsT7Pnww9nal5ZFR0Towf6v+Gx3/0335ypaQ3r0V3NLrm1cMaixardpasSEhPdyj/7abZu7dlbrhdcVSxdWlu/nuxx2qa4NAsAAAC4WnhmFgD4mHyBgR7L4y9pwMmMBEdipublyd6jR/XYgHfdypxOpw4eP649R47oyMlTaY7b7f779PqTT2RqmQ1Ji0d8otfGT9Cw6TOs8i1796r4Aw/q38mTVT60lP738Sf6bPbPbuO2bNhQ84d/mOaD57nNEAAAALh6aMwCAB/TrH59j+UfTJ+hXm0elt1uz/Q0h0z9xmN58wb1MzyN6HPnNHPJ0kzNt/F1NTVn6FCVLFoky/Xxfo/ualzrOj3y1sVnccWcj1OFx9qrUpnS2nPkqNvwr3Ror2HP9pAkGYbnGw25zRAAAAC4erjNEAB8zI01wzSoW3iq8kMnTqjMI4+mebVRWjoNHqL3p01PVV6jfHmN7vNCpqYVaLen+nhqLioUHKzd06fp73Fjs9WQlaLNHXfov2lTlT/I/UqySxuypr/1ptWQpXQas7jNEAAAALh6aMwCAB/0RqcnNeTpbqnKj0efUfl27VWs9QMa9f0Pio6JSTWMaZpasGaNbu/VW0azFpq6YGGqYW6oXl2RX0xMs7HHk+urVFH87wtSfRIXLVST6693G/bs+fOq3PFxvf/NtByrkyrlyun0nJ9V7ZpyqfoF2G3aOOkLdbizhfuPZJpXZtGYBQAAAFwtNGYBgI/q/+QTivl1rm6oXj1Vv9Mx5/T8qNEq2vpBGc1auH1sze/U3f1e0fJNm1ONVyBfPi0Z8YnWThyv4Hz5cuaHyGbT0k9HaNIrL6deh4mfq3aXroq7EJ8j88oXFKQd30xV26ZNrLLSxYrp+E8/qk6VyqmGT/PKLB6aBQAAAFw1PDMLAHxYweBgrZ04XpI0568V6jXyU+09ejRT0wgOCtJzDz+kwU93U76goFxb1q7336fWt96iOk+FK+r0aat8y969KnDPvZr/0Ye668aGOTKvme8OyNBw3GYIAAAA5D0GVZAzzLZtk/6+ubSCIyKueh2bSxZ5XDYA/i0hMVEHjx3X/mNR2h8Vpdi4CypfqpQqhJZShdBQFS5YkEoC4P1ht1mLq5LF8nI2BADA23FlFgD4qcCAAFUqW0aVypahMgAAAAB4DZ6ZBQAAAAAAAK9BYxYAAAAAAAC8Bo1ZAAAAAAAA8Bo0ZgEAAAAAAMBr0JgFAAAAAAAAr0FjFgAAAAAAALwGjVkAAAAAAADwGjRmAQAAAAAAwGvQmAUAAAAAAACvQWMWAAAAAAAAvAaNWQAAAAAAAPAaNGYBAAAAAADAa9CYBQAAAAAAAK9BYxYAAAAAAAC8Bo1ZAAAAAAAA8Bo0ZgEAAAAAAMBr0JgFAAAAAAAAr0FjFgAAAAAAALwGjVkAAAAAAADwGjRmAQAAAAAAwGvQmAUAAAAAAACvQWMWAAAAAAAAvAaNWX7BkGTEUA8AAMC/IpBxlkoAAMD30JjlF0FOkqHVVAQAAPAza6gCAAB8D41ZfrOZbX2pBwAA4GcZiPwDAIAv/sJTBb7PaNpUMpzrZTPaURsAAMA/Uq7RzmjadD0VAQCAD/7MUwX+wWjSXDJtETLsVSSdoEYAAICPOiHDXsVo0jyCqgAAwDcFUAX+w2jaVJJ2m8sWlZTUVE59L6kENQMAAHzACdn0qNGkxVKqAgAA30Zj1v/Zu+/oKKo+jOPPbBqhh95D71URkVdAkKKCBU1C74Igig0VFKVIsxcUFEGaAimKDUSQZkNUpPfeIZTQQ8ruff9ICGx2E5IQyibfzzk5mjszd2Z+OzvZfZi5kw1ZTZpL0nJJhcyvSyUpSA4zSlIVqgMAADzIVtmsoVyFBQBA9kKYlc1ZTZpJUkTiDwAAAAAAwC2NMbMAAAAAAADgMQizAAAAAAAA4DEIswAAAAAAAOAxCLMAAAAAAADgMQizAAAAAAAA4DEIswAAAAAAAOAxvClB9rV0qZGkICONklSFigAAAA+y1ZKGNmtmRVAKAACyF8KsbGbJr0aSmsqur41UkIoAAAAPVcVI4UsS/nHuhLz0WPMm1nLKAgBA1keYlU0sX24kqZzdrn9EiAUAALKWgrJr2ZKl5oSXTXc0bWrtpiQAAGRdjJmVDSxdauRwKMju0C6CLAAAkIUVtDu0a+lSE0QpAADIugizsrjly41sNtUzUjjVAAAA2YGRwpcvN/WoBAAAWRNhVhbnMJLD6F0qAQAAstlnID7/AACQRRFmZQ93UAIAAMDnHwAAkBUwAHwWZ4wkKTeVAAAA2ewzEJ9/AADIorgyCwAAAAAAAB6DMAsAAAAAAAAegzALAAAAAAAAHoMwCwAAAAAAAB6DMAsAAAAAAAAegzALAAAAAAAAHoMwCwAAAAAAAB6DMAsAAAAAAAAegzALAAAAAAAAHoMwCwAAAAAAAB6DMAsAAAAAAAAegzALAAAAAAAAHoMwCwAAAAAAAB6DMAsAAAAAAAAegzALAAAAAAAAHoMwCwAAAAAAAB6DMAsAAAAAAAAegzALAAAAAAAAHoMwCwCALObIkb3q90R9NW9mJf0MGdxG0dHnKA4AAAA8njclAJBedrtdGzf+qd271uvUqWM6dfqYjDEqWqSMihUrq6LFAlWsWFkVKFDsmte1Y8daHTq4Q5HH9isycr9iLl5Q4cKlVLhIaRUpUlrVqt2pHDlyZqjvbVtXubT55cipwMBqN6yW7rYhoypVvk2WZXGAZnMxMdHq3Km8jHE4ta9cOV9P9r9TU6dtpEgAAADwaIRZAK7K4XBo8uRXFB72nuz2uHQvnzt3gNq3H6TOXV5JdT673a4vZ47SzJmj5HDEp3s9derco1denanChUtddV673a5+/eq7tJcvX1uTp6y9IXVNaRsyasHP0fL1zcEBm835+fmrS9ehmjljpMu0/k++S4EAAADg8QizAKTqu+8m6sMPnrymPs6fP60WLbukOP3o0X3q90R9nT597JrWs3btMrUPKS1JemHQ52rT5nFeQGRLPXuOUM+eIygEAAAAsiTCLAApWrfuN7dBVoUKdfTBh78qV668KS4bFxer5cvCNXfux+radaiKFi3jdr43x/XUzz9PczutbNmaev6Fz1SzZiO300+ePKoZM0bq++8muEx7950+mvrF6/p88hoFBBTxqLpXrXanJkz465r62L17o7Ztc72FMXfu/Prf/x5Kcbno6PP69devXZfLlU//u/vhpN/379+mTZuct9HLy1stWnSSJMXGXtSe3Ru1c9c67dq5TjExF1S0aKBKlKyohg0fkL9/7qvuw9XWIUlRUZHatWuddu5Yq3z5C6t1626p9mmM0bp1v2nnzrU6FrlfUaciFZC/iAoXKa3KlW9P8Vi7mvPnz2jf3s3avWej9u7dpHNno1SocKmEW2ILl1L58rXSdMVgZvXnrnaS1LBhG+XLVzBN27Bjx1pt2bxSx44d0LFjB+SXI6cKFy6lokUD1aDBfcqTJyBN/VztdTTG6MiRPdq5c6127liryGP7VapkJQWWra6KFeuqSJHSt8RrAgAAgFsHYRaAFLkLQyTpnntCUg2yJMnHx1ctWnZWi5adU5xn/Phn3AZZgYHVNfHTf646FlaBAkX17LOf6NlnP9GMGW9o2tTXnaafPHlYvXvV0pzQffL19ctWr125cjV04cIZPTOwicstm7lzB+jzyWtcAsaffpqqt9/q5dJXu0cH6umnP3RqW716iT54v79Tm6+vv3buXKvQOW9LMlfdxoCAYhr62izVq9fM7XR368iRI5cKFSqhkSPa69SpSKdp99/fy22YtXv3Rr0xsoP27NmQ5vpVrXanhg6dpRIlyrudfubMSb30Ymtt2/Zvul+bQS9O0QMP9Lqu/bmrnSRNmPh3imHWwYM7NHp0F23ZvDLN67bZvNSp0xB17zFMXl7eaX4d/fxyKjJyn6ZNHab4+Nirrqdo0UCNGfujypWrmeI8mV1DAAAA3Lp4miGAFDVp8phsNi+X9ilTXlXzZpZ6dK+uGdNHasP6PxQfn76xtDZs+FNzv/nIpT0wsLqmTtuY7kHdu3V7Tf36vePSfupUpD78cIBH1d1htys6+lyaf1KqfY0ad2nRL7Fq2LCtU/u5c1Hq2CFQU6cOkyRdvHhBvXrWdAmy8uQpoNlz9roEWSmJjY1W6Jy3XIIsy3L/pyYq6oheeL65Hnu0uE6ePJqmdVy8eF7PP9fMJchy5/Tp4+rQPlC9e9V0CbL8/fOoTp171KpVN9Wpc4/8/fM4Td+yeaW6dK6gAU/epbg457BlyZI5euThgi6hiWXZVKPm/3Rvi85q0aKLatVqrCJFyki6PCh/v37vuIQmmd1fep05c1KdO1VQ1y6VUgyy3J0HJMnhsOvLL0epZQsfTZ78aprXGRNzQZM/H5KmIEuSjh7dq969aum77ya6nX6zawgAAIAbiyuzAKSoSJHS+mZupF4c1FLbt//nMn3fvs2aNm2Ypk0b5jKtRIkKatW6uzp2fFk+Pr4u09esXup2nY+0eyrD2/tIuwH69NNBaV7XrWrbtn/V5oE8aZ6/V69R6tLVfZBgWZbGjP1BGzb8qWefaep0ldbMGSP1zdcf6vz50y7Ldeo0RI/3GZOh7e/Q8WX16TPW7ZMVf/xhkt577wmntqioI+rerYoivj4sPz//NK2jVKnKevGlKapV626300+fPqGQ4FKKi4txam/RooteeXVmiv2OeqOTliyZnfT75s1/qX+/O5weCjD3m/Euy7Vs2VVDXpmRoXpldn/pcblOF53abTYvjXvzJ9Wv39Jlmfj4OL35Zk8t/uUrp/ZZX43RieOH9PLgqWle/8OPDNCAAe/L29vHqX3z5r/19FON5HDYndo//GCAWrfu7hJ238waAgAA4MYjzAKQqrx5C+izSQm3G27bukrffTdBf/zxnc6cOZHqcocO7dS0qa9r2tTX5e3tq37939Gjjz59+cuyl/srPeLjYjO8rSldoZQzZ55s/zrWrNlIi36J1SuvPKiVf81Lak8eZAUEFNWkz1erYMHiGVrP0wPHq10qgWTbB/uqcJHSGjL4Aaf28+dPKzzsvRRDuSu1adNHLwyalOo8n04c5BJkFSxYQrfdfq8WLJiW4nL172ildet+1fHjB5Padu1apyVL5qh58w6SpDsa3KeNG/90Wm7RoplatGimJEvFipVVhQp1VLFiXVWsVE81azZSvnyFUlxnZveXHp99+qJLkCVJM7/cruLFy7n/4ODto1df/VIFChRTeJjz0xF//nma2rV7SpWr3H7VdffuPTrFJ5xWq9ZAz78wSe+83TvZFKOVK+eradOgW6aGAAAAuPEIswCkWeUqt+vFl6boRU1xao+OPqe1a5br778XaMGCqbp48bzT9Pj4WH08fqC2b/sv6aqNunXvcbuOOXPe0iPtnpJXCmFXar760v2VRA3vautRdc6MAeDdsSxLY8f+qNGjOmvx4lku03PkyK0PP/otw0GWJNWu3STD8+zenbYxrZolhkqp2bFjjUvbiROH9NabPTO0X9u2rkoKs7p1e00tWnTWBx88qX//+TnZnEZHjuzWkSO79ccf3yarv00PP/yk+j7xptOVRZndX3ps377apa1w4dIpBlnJX8fkYZYkbd+xOk1hVr3bmqc6PTCwmtv2c+dOubTdzBoCAADgxiPMAnDN/P1zq+FdbdTwrjYa+Mx4RUbuV+dOFWS3O18ptWLFj0n/X716Q3XpMlRffjnKJXB47NFi+nzyGhUuXDLN2zBmdFf98suXLu2lS1dRjx4jeJESB0J/sn8DxcRccDv94sVz6ta1cpqufErJ4sWzVKFC7avO407Vag3StI60XGlXq9bd2rnTOdDy8fFTWPiBTLkip0SJ8nrrrQVX1O6CdiU+uXH3no3au2eTNm36SxcvnkuaxxiHvv32Y/344yTNm3/W6fbbzO4vrdzV6dix/Vq37jfVrt04Q69jrVqN07TulMbhulVeEwAAANy6CLMApGrc2O5auHCGbDYvtWjRWZ27vKrSpSunusz8+VNcgiy5uRqrV+83lCdPgCZOfMGp/cyZ42ofUkq5cuVXz14j1apVN+XOnc9pHmOMVq36RdOnj9DGDX+43Y7y5Wvr88lr3I7dlN28MbKjli6d49L+1FMfasaMkU63jc6b97kWL56liZ/+k+LVMSmZM/tN/bfqF732+hyVLFnRaVpUVKTGje2uf/5Z4LJcYGB1BQc/l2n7O+CpD7RixQ86enRvUltcXIzaPVJYffqMU/sOL8pmcx2Y/uzZKE345HmdOHlYo0d/n2K4MWf2W/L28dV99/VU7tz5lCNHTlWv3lDVqzd0mm/b1lXq16++U1t8fKz27t2kihXrXrf+rqVOkvTsM01033099fTAj+Tvn9tp2tat/+qNkR106NBOl/769BmnMmWq3JRj/GbVEAAAADceYRaAFE2aNFgLFyYMoOxw2LVw4Yyk39OrXr3mGj4i3KU9OOR5tWrdTUOHPuISSp0/f0ofjx+oj8cPTNe68ucvonfe/UXly9dK93bu2rVOzZulL/x6ot/bat9+UKbVfcvmleneBknq3n24uvdwHox/y5Z/NPDpu12eGle+fG1NmLhSvr459OhjA/Xeu0/oxx8vX4118eJ59exRXa1ad9fgwdPStR3btq1S1y6V0jx/gwb3a+y4eZl67Hp5eWn2nD1JYeyVPv98sD7/fPBV+2jdyk8PPdRfzz43wal9xow3NG3q65KkCZ+4BnA2m7fTQPsu/bbu4RSaZHZ/GanT6NFdXAZ0X7BgqhYsmJrGfnz0zru/qE6dJjflXHUzawgAAIAbz0YJAKTk8cfH6NnnJqpo0cAMLW9ZNrV98Al99/1Jvfve4hTny5evkMaP/11Llhq99nqoAgOrp3tdefMWUu/Hx+jHeWf0zdyjGQqyshJjjIYMaasn+zdwCbJefnmaJk9ZK1/fHEltz7/wmT6b9J+8vZ2vRFr483Td1zqndu1an6b1Dho0WeXKpa32LVt21bz55zTuzfnX7eq5wUOma8lSo0GDJsvfP+0PAsidO0CvvR7qEmSdPRul48cOyMvLJ8VlUwpNatdpqrDwg05P+8vs/jLq1Ve/1OIlDj311Ify8cmR5uXKlaulyVPWadEvsTctyLpVaggAAIAbh3tvMuuLY1CQJBmXAkdE3NQaL1lq3G4XcC3OnTutPbs36PTp4zp7LkqxsReVL18h5c9XWIUKl1LJkhUy771ljPbt26JZX41NfDKZqzJlqmnEyK+dbomLj4/TpEmDFRH+vp5//lO1fbAvL1wm+v77T/XB+/1d2idM/FtVq96R9HtsbIz27t2kmIsXVLRYoAoUKJ6hwf0zm90er5Mnj+j48UOyx8cpsGx15ckTcE19njp1TEeO7JHdHq8yZarecv1lRExMtI4fP6jjxw7K189fRYqUVkBAUbe3aN6KboUa4uZq3uzm3Wd+q342BAAgK+CPaRb/wEKYhazmiymvuQwanxZ58xbSV7N2KleuvBQxE6Q1zAKAm4kwCwCArInbDAF4lF6939CSpUbfzI1U69Y95Ovrn+r8lSvX16zZe/Ttd8cIsgAAAAAgC2AAeAAeKX/+wnp58FTGurlJbJZNNpvrnxCeHAkAAADgeiPMAgCkW9sH+zIOGQAAAICbgtsMAQAAAAAA4DEIswAAAAAAAOAxCLMAAAAAAADgMQizAAAAAAAA4DEIswAAAAAAAOAxCLMAAAAAAADgMQizAAAAAAAA4DEIswAAAAAAAOAxCLMAAAAAAADgMQizAAAAAAAA4DEIswAAAAAAAOAxCLMAAAAAAADgMQizAAAAAAAA4DEIswAAAAAAAOAxCLMAAAAAAADgMQizAAAAAAAA4DEIswAAAAAAAOAxCLMAAAAAAADgMQizAAAAAAAA4DEIs7I4y5IsS+eoBAAAyGafgc5SBQAAsibCrOzhH0oAAACymX8pAQAAWRNhVlZ/gS3JZukFKgEAALLZZyA+/wAAkFX/zlOCrK1pU0sOh1ZbUjDVAAAA2YElBTdtaq2mEgAAZE2EWdlAs2aWbDZFeNlUXtIJKgIAALKoE142lW/WzIqgFAAAZF3elCB7aNrUkqTdS341hSQ1lV1fSypIZQAAQBZwQl56rHkTazmlAAAg6yPMymaaN7EkabmkQkuXGkkKMtIoSVWoDgAA8CBbLWkoV2EBAJD9EGZlY82aWZIUkfgDAAAAAABwy2PMLAAAAAAAAHgMwiwAAAAAAAB4DMIsAAAAAAAAeAzCLAAAAAAAAHgMwiwAAAAAAAB4DMIsAAAAAAAAeAzCLAAAAAAAAHgMb0qQvS3dZSQpyBiNklEVKgIAADyGpa2WpaHNylsRFAMAgOyDMCsbWrLbSFJT2fW1caggFQEAAB7JqIoxCl+yw0jSCXnpseblrOUUBgCArI0wKxtZvsdIUjl7vP6RCLEAAECWUlB2LVuyw5zw8tYdTctauykJAABZE2NmZRNLdxk5HAqyx2sXQRYAAMjCCtrjtWvpLhNEKQAAyJoIs7KB5XuMbDbVMw6FUw0AAJAdGIfCl+8x9agEAABZD2FWNuCIlxzxepdKAACAbPYZiM8/AABkQYRZ2ccdlAAAAPD5BwAAeDoGgM8GTMJ/clMJAACQzT4D8fkHAIAsiCuzAAAAAAAA4DEIswAAAAAAAOAxCLMAAAAAAADgMQizAAAAAAAA4DEIswAAAAAAAOAxeJohAAAAgHQzPXtKUlNr6tTlHrsPwcGS5CUvr0aKj68lqbCkwrLZLEn7ZMwe2Wx75XDsscLDj1zTutq3l6Q6MqaiHI7SsqzSMianLOuAjNkvm22/8udfaU2adCGD+3G7ywSb7YIVGrr5utXv6aclyU9HjtR0M/m0FR6+I139hYRIUj85HBNdJnp5NbBCQ/+57sfELbANAK6OMAsAAADA1b/k9+ghSfdJGiZjGsrhkCzrlKQAj9mH4cMlyaYNG8bIsp6XMT6SpPh45xkdjsv/b7cnLBsUlPC7ZUXJst6xwsLGpLieSyGZMUMlDZXkfamfyzMZ5/86HNLJk5fXIy2Tn19X66uvDqS6T5fX9a/LRLt9naQ616WWCdttKSRkrYyp4naeoKCBVkTEeN49ADIbYRYAAAAAFy7h1aXQxVP3JzhY2rixv4yZkNCQ4f3JJ2O+THEdUhlJ/8qYwte4yfcoJmZ/YrjVx4qImHxLFTThCqbFKQVZiT4y7dsftEJDv+EdBSAzEWYBAAAAyHLhldO+deggSY0VHz/BZaJlrZWvbxPrq6/OuF02IaDylTHBsqynJI2ywsP3pTDfVBnTw+1GWNYGeXk9Yc2Z86fLsh07SlJR2e2vy+F40s3Sn5ugoJHy969rzZwZedPrmbCvM2RMs2T7eETGFHNqs9u/Nh06NLTmzFl5Q7Yt4XbOynI4GsuYUrLZSkmyy5j9Mma/fHx+tmbPPprh/i9d3bd5cxXZ7TVlWTUllZRlbZe0STbbGmvOnP0Z6vvS1W7t2zeWw1En8VbUIrKsSBmzX97eq9wdPynWwG5vmOz1ibfCw2cl7oO3Nm6sJqmupLqyrLwy5pAs609Vr77YGj48PoXjtLbs9lYyppQsK68cju3y8toky1przZmzx2WZbt0kqaAuXGjjmkZ4b03LcZF462cTORxlk+3PYSs8fBFn7+yJMAsAAADIhrJyeOUi4TbC291Os6ywlIIsSbLCwyUpVtJXiT+utQwKkoz5UFIPN/1vUkDAHamNhWXNni1JRyUNMCEhAyS9JodjZLLZiis6er15+uky1vjxMTftuEkIFsbI4eiabD+PSgqU9ISkj5ym2e1/mA4dKroLO655ezp1kqRAxcVNlzFNXW7nvPKWUUmKi7t0K2e8bLYXrLCwj9K8MofjFW3Y0Nbpe7Sb20UT+98rL6+2VmjohlS3PyEgqqH4+DkKDnYeeyx53/HxV96GulK+vp2sWbN2uXZqJKm5pOTjfkWboKAa2rhxsIyxpbiuDRtkgoOjJXWQZX0vKUTGTFFcXG63yzjfintAlvWAFR6+XpKsGTNkgoNPJAZzo5K/L01w8P1WePiCqxxvXeRwzEx2vJ1XrlylOJNnXzzNEAAAAMgGTI8eMj163Gd69Fhhunc3MsbImJ9kTMMsv/Pe3pK399eyLLubgGK0CQoyJjh4kwkOft2EhPzP9O3rk+a6duggeXs3kjTQZaJlbbLCw2ukZ1B3KyxMcjjekDTIzeQiOnLkk5t2DAUFSQ7Hk3I4hiTbT7ukBlZ4eKwsa7wsa1Ky0MNL8fHrTHBwvkw+nvMrLm6rYmP3yJim7gtqOVI6KuRwfGiCgi6ajh2rpm2l5pF0XBASKLt9vQkO7u+2q44dZTp2LKT4+L2Ki9sgY5IPon9W0jLZbDMkLUv8/Up3KjZ2pwkOXmGCg33TuP3+kl5xCbJSmteY7+RwGDkcoTImdxr3u5SMWWeCgnomvQQJgfBoWdY0N/P/aIKDy7jdhPbtJcu6zSXIkiSbraE1bdopzuzZF1dmAQAAAFnQDbryKofp0WP4ddqFZda0acsyoyNrzhyZ4OD9korIshbJmNvcfHmvJmmEjBmRbCB2ybJ2yrKmy5g3rfDwWKflEq5KaZbCqj/O0Abnzi1Jn+jcuXfcbGezm3I8Jdxa+JCM+cRNsPCAFRq671JwYYKCnpBUU1KjK+bKI2mdGT68grtb2NK9LefPF5B0IDGgufK1cshma2uFhv7kZvt9Jc2TMS1kWUdlWW8of/5J1qRJcelY/ScqUOC5K5dJ7LuBpD9ljFey1+sT07fv9CsDzStuvTsgyS9Z/19aERFd3e53wjE5S1LHK/pvKOmfdA70P8iKiHjXTW0WpHh8WdZuSfdceYtt4u27jRQf/7skK9n8nxhjplmWZZKOi+DgnrKsijLm7iu230vSPyY4uPSV763EK+4CFBf3u5ttefRqV7wh6yPMAgAAALKAm3LboDE5JA27Ln1blhKvSMmc7hKuDjkp6fbEL++3y5gnJT0sqeBV9rOCjBkpaaQJDo6VMYOSPaXPnsKSvhnaWJtNknxSqMvZG35sXa7Xd2625wUrNHShU1vx4pLUXEeO7HcaCN+YMtq48c/E4Odaj4135HD4u0zz8ank7ta7K24XbZnh9dpsr7p7iqUVHi4TEvK3pL4yZkryyYqKekBSRFJLdHTC9icPsizrkKTFJji4RypbsVBSExlT8oq22iYoqIMVETEnDXvxnBUR8YHL9gcHxyaePy66BFNSjMLCKlwKppKWmzNHJijoT0kvJu7Ple8Zf7Vvf4+kpUltNWpIUjNt2LBb0pW3CBaRtFhSY105dlhw8EpJ/sleg8FWWNhczvggzAIAAACyAGvaNElaYHr0WCDLuhxqQSkEG6sk9U78Sfj+nRDa5JbUNPGLfU8ZkyvZl3RfSR+Z4ODbrPDwnonB0zKXsZoSvGSCgz+2wsPt6drAs2cl6ZUUpv54I2tlOneWpFKKjV3hWkgrWlJPExzc06n9yJFLtXK9vdKYO0xQ0LdWRMQjGd8oI0n13GzPfrdjSGXagWMtuco2bU5hWn43rXXdzFdC0tQMbt3tkuakYR/+TOk9YYKDY2VZe2VM2WSTVyQPspJ4eUnS1hSOf6fbSq3hw2U6doyXj089xcfvTwzDL+373SYoaKIVEdE/8UmZ30qqlKy/L6ywsDc5g0GEWQAAAEDWcinUSvxxvWIrc7/cn7KmTQvIMrVLCLnOSZonaZ7p0OFpSaVlt++UMcmvlGorSVZoqExIyF+y2UbJ4RjqEk5Y1hETHFzXCg8/mJZtSBxMfqakLm7qvfW6XQnnbluCg6XY2NwyZr3bK8USbvGrmYGuHzZBQR9bERFPZfC4k6TfZEzdZNtT2oSENLHCwn69TiWxZ2Jfv7sJtGLk41PKmj37+HV7UW02k4F6Z9plntbs2TLBwccl3SVpdbLJ/UxQ0HpZVik5HA8l24bfrfDw3pzhcQlhFgAAAJCF3dBw6xaW+FS06XI4usmy7LKsr2RZo63Q0G0pLpTwJLzeboIsXXkLpBUWJhMc/JosK0rGvOu8YlNI0gETFHRK0uuyrBlWePjpy5MTb6kKCWmR+Jr8L4WtWaewsLpWJgYLqdZr+HBJsmnjxjWS8icLFo5L+iYd3ZWXMS2StQ0wQUEHrYiIseneuOrVJelZbdjQRlL5ZK/ZchMU9KUs6ymnOrdvL0nVZLf/lnRbqWX9IelFKzx8xU04JJ+V9GDiEyAv8VNc3DETEjJY1au/bQ0f7jR4/RXjSL0nqbikh1zGcPOEc1LCbZlrZFlBcjgikk3+xOUJlJZ1SDVqNFNC2AxIhFkAAABA9pIdw63Ep/CNk9QtocF4yZhukro5DfSenCOFB+FZ1hIrPDzY5Qt6x47vSZqh+Phv3YRS+SV9JGM+clpncPDVNj9SltXCCg9fn3hFUnrUNkFB6Qu/bLYXrbCwd7RxoyQtlzEVku27Xb6+9ayvvjqQ5vqHhEiWlRAkOhuTGGjNSNcxnBC0OUxwcAVJk2VM8it2usiYLk51dncbnDH/k2XNMH371knPEyev+T2YEMrYTUhI2aSA1fm4G6cNG8a5HJuxLrlVjAkOnmiFhz/pceehsDCZkJCvZbMNTnxvpvRei1WOHPWu9aEByHpslAAAAADIvqxp02RNm7bAmjbtLmv6dEuWZcmy7pdl/ZVldrJmTalmzVdks/WXtDdjhbIcstk+k69vASs8/F63s8yeLWv27ONWePjdstks2WztZVmbMrCu45JeUd68ea2IiKJWePj6G1muxPBpttNT5y67Pz1BlhKDCxnTXZb1n5vJ002HDvdm6CUJD5cVHv544oDlfWRZ59JR4//k61vWCg+vdCODrOR1scLCuie+5x6XdDYd2x8lm629JwZZTseF9KZstsmpzNbYmjkzkjM1XI4fSpBJJ/yE1NzlXz2siIibXuMlO4zbbQMAT3Tk4F4NH/CYtm1YldR2Z9MH9PpHofLPlZsCAXDSvKJ1Uz6L3cqfDdO9L6ldueXhY2YlDvieT5ZVU5ZVSA5HgCwrh4w5LumYbLYDVmjozkxZ16XbCTt0qCqHY4iM6ZpCSLFZNttjVmjoZkkyfftKko+iosbJmOdkWf2s8PBJvLuv+rr6SiopL69Sstvj5eu7X7Gxh9M9GP/N2P6EK8+8tX17McXGlpBl+cjbe5M1a1ZUFn2tKkra5HI7r83W1QoL+5IjGm5PlZQg639gIcwCbn1XBjPXqlKN22RZWfP0HnMxWg/Uyi1jXG/7CKxYXVMXbORgAuCEMOs67NuV4ZZUNSsNAH9D65gwhtcbLoPGp+lbnHVcvr4VrK++OkMlccsf65fHhftPxpSWNFk223+SysiYx9ze3myz9bbCwr6gekjxNEgJsv4HFsIs4NZmt9vVskrmDWG4YGO0fP1yZNl6Tf1gmGZ+PNKlfdyUn9Sg6X0cUACcEGbhlv8ekXBlSmFJb0lqn/iEwJT8K1/fIGvWrL1UDh5xfF9+kMB6GVM9DYuckpfXvVZo6H9UD6nhj2k2+MBCmAXc2gizAOD6IcwCgJv8XblXL0nKo7NnB0nqJmMCnbIIyzomaaL8/T+yZsw4QcWQFjzNEABuUVXr3KkJX1/72Lv7d2/TptXO/Xh5e6vFQ50SPmAYoyMH9mjn5rXauWWtIg/vV6mylRRYsboqVqurIiVKZ3jdUScitXLZfB05sEfHjhxQvoBCqli9ripWq6uSZSvJy8tLkvTPrz/r5PGjTssGVqymqrXvSNP+SFLDZm2UL6DgLbPvxhit++c37dy8VscO71fUiUgFFCyiwsVLq3LN21Xz9kYc5AAAIMuzvvhCiYPbD0v8Aa4ZYRYAZHGrVyzRB6/3d2rzy5FTkYf2adqHwxQfF3vVPoqWCNSYyT+qXOWaqc5njFH4lPc0+d1X0tSvzctbfQaN1Z+Lv9f6f39zmtau29Nuwyx3+yNJE7752yXMupH7Lkm7t23UG8900J7tG9L8+lStc6eGvj9LJcqU52AFAAAA0oAwCwBuUQ67XdHn0/6EaR9fP3n7+KRp3piLFzT5nSFp7vvoob3q/UAtPTNigh7u3N/tPH8u/kFDn3g41buaLcuWOAioSdzHeH325os3tK7XY99PnzyuJx6+XZGH97lM88+VR5Vr3q6iJcro6KF92rZhlaLPX37y9pa1K9WleQVVq9tQH8xaLh9fXw5+AAAAIBWEWQBwi9q24V+1qZMnzfP3em6Uugx4NV3reLjLAA149X2XEGzz2r/1dHAjORzOT6/+cNgAtX60u3L453Rq//f3RRr6xEMu/fvlyKnxYX+oYvW6btf/7++L9HLP+9w+nfB6y6x9Px11QiF3l1JcbIxTe4uHu+iVd2emuP5Rz3bSkh9nX17vmr/Uv90dmjxvLQc/AAAAkAobJQCA7Kn386P1zPCP3V7NVa1OAz0/epKbpYxWLpvv0jp3xni36wj740CKQZYk1b+7pT799l+P3vdPxw5yCbIKFimh2xrdqwVfT0vxp37jVipUtKTTcru2rtOSH+dwcAIAAACp4MosALhFZdYA8Cmpd1fzVKcHVqjmtv3cmVMubReuuG3uEh9fP+XMdfUry/ImG+fqRsjMfd+xeY1L24nIQ3rr5Z4Z2rZtG1apedsOvAEAAACAFBBmAUA2ZUt8kmBmaNyqndauXObUFhcbowFBDfVx+IoUx/I6d/a0nmnf2KP3vVb9u7UzWaDl4+unsN8PKF+BQhxoAAAAQCYjzAIAXLNHuw/UoX279M30D53at21YpVbVfOXt46tKNW5TYIVqcjjs2rN9k7Zv/O+mjJWV2QYM/UArFv+go4f2JrXFxcaoXYPC6vPiOLXv86JsNte7+s+ejtKE0c/rxLHDGv3Z9wz8DgAAAKQRYRYA3KK2rF2p5hWtdC/XfeBwdR847IZv71OvfaD2fV7Uyz3v057tG5ymxcfFavOav7R5jettk/kLFNGpk5FuerQ84nXy8vLS7F/3aNyL3bVw7gynaZ+/PVifvz34qn20ru6nhzr117MjJ3DgAwAAAFfBAPAAgExTuFhJffHTei3ZYRT6+wH1fmGMqtZuoPwFikiy5J8rj6rXu0tt2vfRyAlztWSH0bgvfnLb121XGdfqVjP47elassNo0JjJ8s+V9qdQ5s4boNc+DCXIAgAAANLIogSZwwQFSZJxKXBExE2v8ZIdxu22AcD1sGXdP6pUvZ68vK9+8a89Pl792t3hMuaUzealnzZcyBK33tnj43Xy2BEdjzwke3ycAitWV558ARwowA3SvKJ1Uz6L3cqfDQEA8HTcZggAyDRjXuiqX777Mun34qXLq3LN21WmfFWVqVhN+QsU1tGDe3Vo304t+HqaTh477NKHzealCd/8nWXGkPLy9lbh4qVUuHgpDhAAAAAgExBmAQAyxUcjnnYKsiTp8P5dOrx/V5r7qFC1jsaH/6kc/jkpKAAAAAC3CLMAAJli4LDxGjhsvBwOh/77c7F+XzhXB/Zs15EDu3X00D7Z4+OumNtS4eKlVKJMBVWv21Ad+r7ErXcAAAAA0oQwCwCQqWw2m+rf3VL1725JMQAAAABk/ncOSgAAAAAAAABPQZgFAAAAAAAAj0GYBQAAAAAAAI9BmAUAAAAAAACPQZgFAAAAAAAAj0GYBQAAAAAAAI9BmAUAAAAAAACPQZgFAAAAAAAAj0GYBQAAAAAAAI9BmAUAAAAAAACPQZgFAAAAAAAAj0GYBQAAAAAAAI9BmAUAAAAAAACPQZgFAAAAAAAAj0GYBQAAAAAAAI9BmAUAAAAAAACPQZgFAAAAAAAAj0GYBQAAAAAAAI9BmAUAAAAAAACPQZiVDVgJP+eoBAAAyGafgc5SBQAAsh7CrOzjH0oAAACymX8pAQAAWQ9hVnZ4kb0lm7deoBIAACCbfQbi8w8AAFnxbzwlyPqalrXkcGi1ZVMw1QAAANmBZVNw07LWaioBAEDWQ5iVTTQrb8lmU4SXt8pLOkFFAABAFnXCy1vlm5W3IigFAABZE2FWNtK0rKWmZa3d8lIheekeQi0AAJCFnJCX7mle0SrUtKy1m3IAAJB1eVOC7Kd5OUuSlksqtHSXkaQgYzRKRlWoDgAA8BiWtlqWhnIVFgAA2QthVjbXrLwlSRGJPwAAAAAAALc0bjMEAAAAAACAxyDMAgAAAAAAgMcgzAIAAAAAAIDHIMwCAAAAAACAxyDMAgAAAAAAgMcgzAIAAAAAAIDHIMwCAAAAAACAx/CmBJAks2asJNVz2KxHLIcayzIlJZUwRrmpDpD1WZbOSTokYx00Nv1mc5hvrbpDVt9S56n5GyWpnmQekVFjWSopqYSM4TwFZI8TVeJ5Sgdl6TfJ+tZ6oMZqCgMAQDb8WEAJMulLVlCQJBmXAkdE3JI1NmvflqRyRvZZxpiGvIIAUv7+aP1lyauTVefF3Tf0PPXzFkkqJ3vcLBlxngKQ2ifav+Tl08lqXXX3rbJJnvbZEAAAT8KVWdmMWfeWJDU1DvsiI+NDRQBc9bxhTEOj+F2ONePiLJutpVX7peXXdX3zN0tSU9njFsmI8xSANJw41FDxcbvM/PVxkndL64FqyykKAABZF2NmZSOOteNkjGOFw2FfRpAFIP3fFY2Pw2Ff5lg7bsV1W8f89ZLiV8jELyPIApCBE5WPTPwyM3/9CooBAEDWRZiVTTjWjpOkLdxSCOCavysa09CxdtyWTO93/npJ2sIthQCu/YSihmb++i0UAgCArIkwKxuwrxsnY2mEMaYK1QCQKd8TjaliXzduRKb1N3+DJGuEjDhPAcikE4uqmPkbRlAIAACyHsKsbMAyRpYxHagEgEw+t2T2eYXzFIDMxnkFAIAsiAHgswGT8BydylQCQCafWypnZmecpwBchxMV5xUAALIgrswCAAAAAACAxyDMAgAAAAAAgMcgzAIAAAAAAIDHIMwCAAAAAACAxyDMAgAAAAAAgMcgzAIAAAAAAIDHIMwCAAAAAACAxyDMAgAAAAAAgMcgzAIAAAAAAIDHIMwCAAAAAACAxyDMAgAAAAAAgMcgzAIAAAAAAIDHIMwCAAAAAACAxyDMAgAAAAAAgMcgzAIAAAAAAIDHIMwCAAAAAACAxyDMAgAAAAAAgMcgzAIAAAAAAIDH8KYEADxVTGy8AluP07Go80ltwa1qac5bnSgOAAAAAGRRhFnweKfPXtT42X9q+vertOvAyRTny+HnrUea1dCop1upXMkCFO4WFB9vV3RMvFNbLn8f2WzuLyI9fOysTpy+4NS2+2AUhQQAAACALIwwCx5rxg//qfewCDkcJk3zX4yJ15wFazVnwVpJ0ss9m2rMM/dRyFvInAXr1H1omFPbhm+eU7XyRdzOX7ZkgOL+GyO73aEDR08rsEQARQSuA4fDoXW7t+nQyUhVKF5aVUqVoygAAAC4aQiz4HEuxsSp8oPv6GDkGaf2nDl89M37XdXyrkouy8TGxeuFd+ZpQuhf8va2afqoEHW4r06K69ix77i+mr9Gm3ZG6sDR0zLGqFTRfKpevog6tamryoGFU93GF9+dpzPnY5J+7/RAXTWtX17rth3WwhXbtW7bYW3be1wli+RVjQpF9dA91VW/RqkU+1v+7y7Nmr8m6fe8ufz09gttFBMbr4hF67V262Gt3XZY0RfjVKNiUdWpUlw9HrpdOfx80lTT89GxCvt5nZb/u0v7jpzS2fOxKlkkr6qWK6yO99dVnSrF0/z6xMfbteDPbZr/61btPRyloyfOKSCvv0oXy6d776yoR++tKf8cztu1esshnToTrS27I136W7l+v44cP5v0e5Pby8nLy5Zirf9Xr6y6PXhbitsXGxevH5Zv0c9/bNX+I6cVefKcChfIrdJF86lVo8p66J5q8vP1vmmvBXCraTa4p5at/9elfUCbDvr4yVdv6LbM/+dXffzDbJf2D58YrEolA3mxAAAAsgmLEmQOExQkSS6XCFkRETe9xvY1Y91um6eq32G8Vm855PwFZ0JPtW5U+Zr6/WP1Hj38zAxFnYlO0/wBef31/Ufd1aiu6xeoYs1GOY3jlMPPWxeT3T7nTveHbtMXI4Nd2ieG/aWnxnyX9PulMMdud6Tan6+Pl9ZGPOM2fLPbHQoe9JW+W7opTfubP4+/Fk3qrduqlXQ9/o1R72ERmv79f2mu9+v97tWwfi0kSY17fKo/1+xN03Kn/xyu3Dn9Uqx1r0fq6/Phjzkt43A41PWVsKSr8tKiw311NHNMiMstjtfjtfBkXnWHZMo5zsxbn6XOU9flXG63y/uhuuleztvmpWIBhVStdHmFNGmtxxq1UECefGl7XYxRvuCGOht9wWVa89oNtHjslBtag0/nh6r/J6Nc2v9+f7buqFyTgwTuP+y2qXVTPovdyp8NAQDwdFyZBY+yatNBlyDrhW6NrznI6vjSbIUtXOfUVr9GKU149RHVq5pwVdLabUf05Khv9feG/ZKkqDPRatzjU7VvXVuz3uyYav8XY+JlWZae7niXglvVVonCebVx51EN+XCBNu48mjTf9O//08WY+Kv2dyk4qVimoN4Y0Er1qpbQ+ehYRSxarzenLk+69TI2zq5qD7+nTd8+ryplL4coG3ccVe2gD5z6fLBpNU0Z8ZgK5s+V1Db/ty0KeXGWoi/G6dTZaN3R8WMN6X2PRj3dOmmerXuOqfoj7zn15ePtpaF9m6t/yJ0qmD+X9h0+pW8Wb9CL781P2rbfVu3Wum2HVbtycU0c+ojOno/Rz39s0xuTljj1NXNMe5Urefn2wZw50neF0+Zdkar56PtObb4+XhrxZEv1eayBAvL669SZaE2e+49e+3ihYuPskpR0S+rGuc+parki1+21AK63eIddB04c1YETR7VozQr1+Wi4JCmXn7/e6vW8+rdpL8ty/93asiydCluhSQvCNXXRtzp04pgqlSyjwcGPq9VtjSjuddJ6aF8tXL3Cqa1kwSI6MGMxxQEAACDMgqeJPHnOpa1QQK5r6vOreatdgqzwdzvr0Xud/5W/XtUSWvHlk/pm8QYFv/BVUnvoz+vUtmk1dXog5SsmShbJq90/vex0e1zZkgFq06SqugyZo9k/Xb5i6Mdft6Rpuye8+oieCL7Tqa1u1RLq/tDtqvrwu07tPyzf7BSgPPLsDKfpXdvW00s9m+roiXM6euJyjcuWCNCyKX3VqNvEpNBm7JRl6vRAXVWvUFSS9ODT0536qlmxqNZGPOvUVqZ4fj3b5W492+Vut/tSs2IxSdLO/a4D+NerWiLFMbPS4uFnnPe1VqViWhP+jFNb/rz+GtS9iQZ1b6I6QR9ow46jTstv/X7QdXstgGtVME8+hTRu7dJ+5sJ5bTmwW9sO7nF7ZdX5mGgNmDhaAyaO1pDgxzWmxzNu+7fZbOr3QHv1e6A9xQYAAMAtgTALHuWe+uVls1lOg76/N+M3Pdflbvn4eGWoz41XBBeXNL+jQorzN3MzzV0fV2p5VyWnIOtKya/6OR8dq+iLcS7jSiV3/91V3LZXCizkUqPjV9yGdzEmzuWpjzN/XK2ZP65Oc83Wbjus6hWK6mJMnHbuP+FcuwYVbpnjxd32NbujfKrLNLujglOYtWPfCcXExqc6jlZGXwsgM5QsWFQTBryWpnl/+vc39frgNR2Jcn5fjA2frK+W/ahdUxbIy8v5XJqRW/vOX7ygLxbO1fvfztTuowdT3aZcfv56vl03vRTUS7n9c16fc0FsjN79ZrqmLPwm1e2pVKKM+rQO0nPtusrbK20fkRwOh75YNFeTf/5aK7euT/kDl81LbRs01cvBvdSwquuYjSFjX9CixKuxzrkJHw+diFRAiPPVcC3qNlT4K+/xJgAAANmOjRLAk/jn8NHCT3s7tR2LOq8cdwzViE9/SXXZs+djFPT8lxow+ls5HJfHN2rbtJrLvC+8Oy/Ffl50M61t06qpv9GszB8ew2bLWJ85/HzUomFF5y/DRfLqwt9vyL5mbJp+Ot5fN6mv5APufxq+Ulv3HHO77n2HT+mz8JWKj7e7ne7lZbn5Ehqf4Rq529dPw1dq+97jbuffvve4PotY6dTW8q5KqQZZ1/JaADfa/fUb6/CXy9Tv/hDX9+exI2o1tO81r2PItA+U+7E7NfCzcVcNspR4hdgbcz5TnqA7VaRjEx07fTLT9nfV9o3K2a6+/NvV19CZ46+6PdsP7dNLU9+Tz0P1VKRjEx04fiTFebce2K0C7f8nrwfrqM9Hw1MNspR4u+e3fy3RXS90kdWmlsaGfe40/Vz0BZ06f1anzp9VvMP1HGmkpOmXfs5dvMBBDQAAsiWuzILHadaggo4tf013dPxYew5FJbWP/HSxRn66WDabpZoVi6p00fyKjDqnNVsOKy5ZePJp+Eq1a15DEe91UaO6gQp7p7NCBl2+dXDad6s07btVqle1hBrVDZQlacW6fVq1yfWLUPi7nXVXHc96ita8j3uoYZcJSeOPHYw8o5wNXlO+PDkU0qq2KgUWUvTFOG3aeVQLV2xX1Jlo5c7pq8Wf93F56uK8j3vorq4TkmoTG2dX9UfeU84cPmrdqLIqBRbS2q2H9dt/u3XhYpwk6cnR30qSvhgZpO4P3Z7U133/c73CqVnvSep0f10VK5xHPyzbrLkfdFWpovnSta93dv5Ea7YeTtq+qg+/qzy5/NS6UWVVLF1QOw+c0M9/btOZczFOy9arWkLzPu7Bmw5ZzsSnXtO3fy12uUJrybq/dfjkMRUvkPFbYcf2eFZ+Pr4aMWuiKpcI1JCQx9Woel2VL1Yq6WqnE2dO6e2vp+qdb6bJfsU/Lhw7E6UinZpqw4S5qhFY8Zr2sef7QzXtl+9c2vveF6Qx3Z9Rwbz5k9pOnDmll6e+pykL5zptS+nuLfVJ/1f1ZNsOTn08MX6EJi2IcOnbktS/TXv1bPmIapSpqJNnT+uXNX9p+uLvtHTdP07zTvn5GzWsUkfN6jSQJD3XrquC7m4pSXpv7gxt3LfTaf6A3Hn1Tu8XnNpKFSrGwQwAALIlwix4pAL5cmrn/Jd09nyMnh77ndMtcg6H0bptR7Rum/t/UW9Qs7QmDn1EdauWSGp7rEVNxa8eo49m/akhHy5QTOLVQKu3HHIZcF6JA4iPe/Z+DezUKMWBk2/pN763l/6d87T2HopSr2ERWvbPLknS6bMX9fnXf7tdJiCvv85diHVp9/Ky6e9ZT2nf4VPq+Xp4Ul8XLsZp7pKNbvu6986KmjWug8t4ZwF5/bV/4RDVDflQJ04lXHFw9nyM09VSzXpP0rYfBqW57t7eXloVOlC7DpxUt1dDtWLtvqR+Ixa5v5KiYe0ymjmmvcqXKsCbDVnW/bc31tRfvnVpX7Vjk9o2aHpNfQ/v/KSGd34yxekF8+bXuJ7PadCjPVS4UxOX6RG/L7ymMOv9uTNcgixL0sGZS9wGdQXz5tfkZ0ZqZJenVKrbvU6PnxswcbT+V72e6pRPCNs/+Ham2yDrqbYdNb7/K05tJf1yqHuLh9W9xcM6F31BXyz8Rr1aPer2dsqW9S7fQhj66wKXMCunXw71avUoBy4AAABhFjxdnlx+mjYqRNNGJdwy43A4dPjYWe0/elqHj51Vnlx+KlYotyqUKnjVMagsy9Iznf+nZzr/L6nt1JloHYg8LWOkUkXzKSCvf5q268jSoWneh6F9m2to3+apztM/pKH6hzRMc59x/41J03yBJQK0+PM+Sb87HA5Fnjyvw8fPqmC+nCpdLF+aQ6MyxfM79WW3O3Tk+FkdOXFOAXn9VapoXvn6XP2UU6JIXkUuuzz+z9ETZ3Uw8oyKFsit4oXzyGazZajW5UsV0O/T+yf9Hh9v16FjZxV58pwKB+RSicJ50zTu2vV6LYAbbe4K90/Ga1St7jX3bbfb9fUfi/TetzOuevudO39sWnNN6/9+5VKXNiOpRNfmGerv5//+SAqz3PXt7+unD58YnGofuf1zauDDXTjwAAAAMgFhFrIUm82mkkXzqWQ6bkNLTf68/sqfxgArq9SvWKE8KlYozzX35eWVOa9F0YJ5VLRgnkzfV29vL5Upnl9liufnjYNsp/XQvjp1/qxLe/vGrVUgT8bfs3a7XQ8M66+FiQOZJ+fn7aOAPHll6XJIfvTUCTmMydT9y53D9conb5uXCucLyFB/vt4+qfZ9MTZGF2NjlDOHPwcXAADADUCYBQBANhATF6u3I6ZqdOgkXYxzvWW4XvmqmjP4nWtax1tff+ESZOX1z6UTob+n+HTAUt3u1cETkZm6r4+3fkw//vOrU1u8w65u9z6kcT2fu+ryDofD5SrQS/rcF6Qf/l7u1GYkNXm5h1a+N8vlaZCXrNyyTgMmjtbQDn31yF33prp+f78cLm2nzp1VTFys/Hx8OZgBAEC2R5gFAIAH235or+58rqNL++nz57TryAHF2a/+RNCZL4xRl+YPXvO2nIt2fbremejzCvvtZ3W6p41T+5K1K3X/6/0UGx+f6TV5+K7mmjhgqPp/Msqp/c2IL/RmxBeqVKKMerVsp8olyyogd15tO7hHG/ftVMTvC3U4KuFpp+0bt9asl95yCbUevPMeTR44Qo9/NMypfdWOTfJ+qK5KFiyiRxu1UK2ylXT8TJQWr1mpPzatTgoQ2416NmmZ6c+PVrd7H3LZ/ofuvEff/eV8O+P5mGhV6dtWfe8L1h2Va+inf3/X6fPnNOXZkbwJAABAtkOYBQCAB4uOjdHf2zake7nKJQI17flRuisTxsi6ZHT3Z7Tj8H6F/fazU3vntwer89vux5QqFlDQ5amKmaHfA+3Vs2U7BY953uVKqu2H9mnI9A9TXT70t5/l7eWtyc+MUA5fP6dpvVs/qq7NH1T7cYP07V9LnKYdPBGp8T/MSrXvgnnyad7wCbqzam2303u1elT7jh3RiFkTndr3Rh7WqzM+cmorV7SkhnZ8gjcCAADIVgizAADIin/gbV4qGlBQJQoUVomCRVStdHmFNG6tehWqXdf1hg5+R6GD31HYrws0a/l8/bdjk/YfP5o0vUDuvKpTvor63R+ikCb3aci0DzQufMp12RY/H199P+xjSVLU2dOK+GORZi2bp183rHIZp6t4QCHVDKykWmUr6fl23VSyUNFU+/b18dHc1xICsZNnT2vO8p80c8kPWrl1nYyb1+L++nfr8daP6YE7Gqd4y+WVLj0R8se/l+u1meO1Yc8OxTvsTvM0rFJb1cqUlzHGI5+sCwAAkFF88skkJihIicNmOBc4IuKm19i+ZqzbbQOAa+VVd0imnOPMvPWcpwBcnw+7bWrdlM9it/JnQwAAPB1XZgG3mPXbj2jv4ahU5/Hz8VbRgrlVvFAeFS6Q26P3d2LYX3pqzHdObXt/HqxSmfRESgAAAABA1kKYBdxiJob+pc8iVqZ7ufx5/PX+S23V7cHbKCIAAAAAIMsizAI8wIAOdym3/+XHsUedjdauAye17N9dio93SJJOnY1Wz9fC1XfEN9ox70WubAIAAAAAZEmEWYAHGNzrHpUoktfttD0Ho1Sx7dsyiYMZx8Xb9dDA6fovdKDLvAePnlbfkd9owR/bUl1f60aV9fmwR1XyKoHYlLn/6OX3f1LUmegU58mfx19vPnf//9u77/AoqjWO49/ZTU/oEHoVSOgEEQGlKYiggIWiiCABFFFRRBEFpQhSRAUBvQI2RJSqgoqABVSkQ0RAem8JNZCe7M79g03MZjcQIAkpv8/z7PXumTMzZ9+Zncy+nHOGvg/dpgMpIiIiIiIiN8yiEIjkbpXKFqFmlUCnsn1HnB9zfyw8klKtxlCh7XiXRJaPtwe+Pp5OZcv/2kOFtuMpfddYjoVHuuxz2PvLsdZ/lSdHLXZJZBUt5Of0/sKlWJ4avRhr/VcZPnW5DpiIiIiIiIjcEPXMEsnFzl+M5ZEhc9mxP9ypPPW8WSciLlKl/URsNntKWVClEoQtGIiXp/MlIDHRRv2uU9h18DQAEeeiuOW+iRxa9gqlS1zuGfbsW9/x4fx1Tut9NqYLj9/vOlfXnO+30mv4/JT34z5eRWRUHFNf7aSDJyIiIiIiItdFySyRXKD8PeMyXPetgffySmiLlPeffrfJKZEFsOyD3i6JLABPTys/TOvNLfdNTClLSrLz6Xebea1vK+x2O7MWb3Rap1fHBm4TWQA97g/hl/X7mL10S0rZrMUbeX9oRwxDTyYXERERERGRa6dklkguV6SgL/c3D2Zon5YEVw50WV6ssJ9L2amzl6hYpojb7Z06e8l1G46hgxaLhSIFfYk4F/Vf/TNRV2zfqTOXXNqrRJaIiIiIiIhcLyWzRHKBoyteTXcC+Kvp36UxH3y9zmkoYtPHP2Tqqx0Z0K2JU93/LVjHM2O/cyqrXbUkT3W5PeX91Fc70u3luSnvl/+1h0bdp7Fg0mNOCbKjpy7QefCXbNpxzGl7017TEEMRERERERG5fkpmieQD2xa9wNDJy3j7s99Typ4bt4Tnxi254npDerdg3PP3OpV1blOHg8te4bbu0zhzPhqAzTuPU6X9xCtuq3gRfzbOfZYKpQvrgIiIiIiIiMh1UzJLJJ8Y/0I7xr/Qjn1HzjBz0Qa+/DGMk6edhwCWKl6Ax9rXp9/DjahWsXi626pQujDhvw3HZrMzb/k2Zi/dwi/r92G3myl1DMPgrka30KtjAx65tx5Wqx6eKiIiIiIiIjdOE9dkErNzZwDTJcALF970GNvCxrltm4jIjbLWfzVTrnHmD//oOiUiWXOze1+dm3IvlpPvDUVERHI7dZUQEREREREREZFcQ8ksERERERERERHJNZTMEhERERERERGRXEPJLBERERERERERyTWUzBIRERERERERkVxDySwREREREREREck1lMwSEREREREREZFcQ8ksERERERERERHJNZTMEhERERERERGRXEPJrHzAMMAw2KNIiEgmX1v2ZObGMAxdp0Qksy9Uuq6IiIjkQUpm5QOmYWAaxteKhIhk8rUls68ruk6JSGbTdUVERCQPUjIrH7DWHYphMsIwjN2KhohkBsMwdlvrDh2RadtrXxswR2Cg65SIZNKFhd1G+9ojFAgREZG8R8ms/HKg6w0FCDYMY52iISI39PvQMNZZ6g0NzvTttq8DEIyBrlMicoMXFNYZ7esEKxAiIiJ5k5JZ+elg1xuKYViaWCzWlgZGoiIiItf229BItFisLS31hjbJsn20rwN4NMHwaImBrlMicq0XqkQMj5ZG+zpNFAwREZG8y0MhyGf3eHWHAKw2/37by4DKJra5pmk2VmREJN3rhmGsM7B2N+q9fDBb9te+xuXr1PJdXkBlbIlzMdF1SkSucOFgHVbP7kbb4IMKhoiISN6nZFZ+veer9zLAQaAJgBk2DiDEbjEeMOw0wzDLAmVMkwBFSyQfXBMMooATmMZx08IfFrv5rVH/1a03tU1tg52vUz/uAAgB8wFMmmFQFiiDaeo6JZI/LlSO6xTHMfgDjG+N9rW2KjAiIiL5j5JZcvn+sP6rAFsdLxGRnHedal9L1ykREREREdGcWSIiIiIiIiIiknsomSUiIiIiIiIiIrmGklkiIiIiIiIiIpJrKJklIiIiIiIiIiK5hpJZIiIiIiIiIiKSayiZJSIiIiIiIiIiuYaSWSIiIiIiIiIikmt4KATyecRegBCbYX8AaGZAWdOkDBCg6IiIiEgOEGUYnDDhOPCH1bR82yuw2laFRUREJH9SMisfmn3hEEBlW0LCXBOzsQ375QWm039EREREcooA06Q6UB1oZcP+xicRuwEwMNZZvby69yxc6aDCJCIikj8omZWPzD69F6BFUmL8Skw8FRERERHJ7UzMxkkJ8Qc+Ob070QNLm54lqq1WVERERPI2zZmVT3wasQebaa5NMu2rlMgSERGRPMfEM8m0r/o0Ys9aBUNERCRvUzIrH/jk9G5Mw9xlYjZWNERERCQvMzEbf3J69y5FQkREJO9SMiuP++T0boBRmAQpGiIiIpIvmAR9cnr3KAVCREQkb1IyK48zLr8eUSREREQkn90D6f5HREQkj9IE8HmcefnRhNUVCREREcln90C6/xEREcmj1DNLRERERERERERyDSWzREREREREREQk19AwQxEREREREYe3Ls0HKGHYEiuYFnt5u2lWMEwqYJjlwSgNlMSkpIlZKLd+RgMjEoNwIBzMk5jGUdPgiMUwjhh2y1HT6nnktQJdT+tsEJGcSsksERERERHJsyZe+BrglgQSGmBQ18Csi0ldEyq5q2+3xaZ6c/k/pvP/5HomZiFMCv03t64JJthN8/KHtiUx5sLn6a5vwCEMtpkY2zDZ5oXXliGFH9mvs01EsouSWSIiIiIikivNN+cDWPddim2EadxtmrQ2DZpgml7JdRKI/28FM6+ko24uEyphUgnMjskxdkl+GUaCYbLWMPgZw/ylagHfDV2NrjZFT0Qyg5JZIiIiIiKS4711aTZAC7udfph0AjNgT2SqXlTJaSplq3IG0/QyoYVp0gKTN/dExqZKeBlRGHxnsTDztQI9VytYInKtlMwSEREREZEcZYL5HUCBpMjIgaZhvohJUbtNWaq8wwzA5DG7jcdSElwG5wzTeNejUKH3XzE6XVKMRORKlMwSEREREZGbbvzlIYOFbJGxnyZGXngwZYFyWPmDSVETc0xi5IUxYy58jgHfWAv59h5qdI1UcEQkLSWzRERERETkpkme92rvxbh1pmk2VESEyznMB5MiYx8cGzl7U7WCPo0135aIpKZkloiIiIiI3DR7L8YBrFUiS9wxTbPh7siYMKCOoiEiyZTMEhERERGRmybBnghQwtPQTxNxL9YWX11REJHU9BdDRERERERumq3hOwEq1SpeDX8PXwVEnEQnxbLz/P4fFQkRSU3JLBERERERuWmS53fffmYvVouVWwqWo4hPIQUmnzsfF8n+i8ew2W0YhhGmiIhIakpmiYiIiIhIjmCz29hz4TAAVsNKSb9ilA4ogYdhVXDyuCTTxsmo04THnMVmaq53EbkyJbNERERERCTHsZk2TkRHcCI6IqWsoFcAJfyKUsS7IFbDoiDl2mNr53z8RU7HnONiQlQG1jAKKGoikpqSWSIiIiIikitcTIhySX4YgL+nH4W8AyjkVQB/Lz8sGArWTWbHJDohhsiES0TGRxGdGJMypPRamdifBV5SVEUkmZJZIiIiIiKSa5lAVGIMUYkxHCfCbR0fqzf+nr74efrg5+GDr4cP3lYvBe86xdsSiE2KIyYpjpjEOKITY4mzxWfZ/gws0xR1EUlNySwREREREcnT4mzxxNniORuXwR9JFg+8LV54eXjiZfHE2+qJl9ULL4snnlYPPA0rVkvuncfLZreRaNpItCWRYE8gwZZIvC2RBHsiCUmJxNsTSLIn5aAWm5d0FouI03VaIRAREREREflPkj2JJHsS0UmKRY5gmi0UBBFJTbMmioiIiIiISI5lGtRRFEQkNfXMEhHJRnabjb6la17zeharlUKBxSld/RYadWrHrfe3xb9woWzZN4CXrw+FS5WkXI1q3BX6GDWbN73hWKz6/GtmvzzCpdy3YAHeCVuNT4B/tnw+D28vKtatRYN2rWnQvg0lq1S8rv2UqxnE6FVLdJKLiIhkMgNDc2aJiPM9vEIgIpLz2W02zp8M5/zJcHau/ovPXnwdAC8/X7q+8TKtenfHMLLuyU0JsXFEHDxMxMHDbPnx58t/QLy9eGnBp1Rv3PCatxe24je3iSyA2IuXGNGqI+PWr8RiyfoOxEnxCezfuJX9G7eyYPTbABQsUYyXF8+mbFBVnXwiIiIiIjmMklkiIjmAf5HCNOrUzqU89lIUJ/ceIHz/IeKio12WJ8TEMmfoaOYMHU3755+k87DB17zvssHV6Dt9oku5abcTdfY84QcPs2betxwK+8dpeVJ8AuM7PsZj417n7j49Mry/I//8y/s9+l+xzunDxxjXoTvDfvj6hmMbULQITbs+4FRmt9m4EB7BmSPHOfz3dkzT+WHhF0+f5fVm91G/7V0M/OJDnaAiIiIiIjmIklkiIjlAkdIleXziyAzV3fbLaj55/jUuRpxxKv9xygzWLVzKxE2/YLFm/AlL3n6+VKyT/vC82jTj7j49OL57H683u89l+Z9fLc5wMuv8qXDebNvZpfzJ/73DkknTObXvQErZ/o1b+aDv8wyYNeWGYlu4VCCPjB56xTpJCQmMadeNI//sdCoPW/4ri8dN5qFXX9BJKiIicrOY5hPAKAVCRJJpAngRkVym7t0tmLx9DS17PeKy7Nzxk0zqEpol+/3397Vuyxt37pCh9eNjYnmjeQdsSc6Phrr/hf40fuh+hv80Hy8/X6dlm5b8xFfD38rymHp4efH0zPfcLtu5eo1OOhERkZvrkkIgIk737wqBiEju1PPtUWxZ9rNLD61df67jQngEhUsGZmg7R7b/y5CGd7uUm3Y7l86eIyE2zu16xSuUY/D8T646YTqA3W5nRKtORF+IdCqvf+/dPPTaIAD8ChbgtaVfMfJu5yGBK2d8TpEypbh3QGiWxnP/pjC35SWrVNLJJiIicjMZxiIFQURSU88sEZFcrO7dzd2WH/p7R4a3kZSQyJkjx1xeZ4+dSDeRZfXwoHqThhmedP7tB3sScfCwU1lg5Qo89/l0p7IKdWrQ74O3XdafP3IC67/5IUti+PfKVYxo1ZFZz77i9nN2fuMlnWgiIiI3UVxcXC9FQURSU88sEZFcbPMPK92WV70tJMPbKFGxHPcPGuB2mWlengT+7PGTbP5+ORdPnwXAlpTEX/O+5a953+IT4M/4DT9TsHhRt9uY8fRL7F670anM08eb4T8tcJsMa9K5I8d37eXH92c4lX/01IsUKV3ymp+eeGznbkIDg645tuVqBvHq0rn4FgjQiSYikoWSEhMBEjw8Pb0UDXHH28tL3aRFxImSWSIiudQ7XUOJveg6hcRtndoTUKRwhrdToFhRmnV/+Kr1Hp8wgqSEBJ6p2pDEuPiU8rioaMbc24WJm35xWWfBm5NYt2ipS3liXDwDg26/5s88oVMP3lq7PENDG6+Hl68PHQc/wz1P98bD01MnmYhINjh77iyAV7HixfGw6ueJuIqJjVmsKIhIavprISKSiyTGJ/DT9Fksfe9DkuITXJZXqF0j3YnMM0U6wwrPnzhFYlw8nj7eKWU/z/yCZVNnZuruTdNkxF2dmLR1VYYTdmWCqjJs2TyXcm8/PywWjbYXEbnZTNME4Mzp03j7+FCkcGHAUGCEhIR4zp+/ANj/UTREJDUls0REcoDwA4d4s21nl/LYi1GcPnzU5QmA7vSdPpGmXTpd874vnjnH73Pmu11mt5tEnTvPueMn2fLjypRhhmm16NnNKZG1+YeVzB02xqVehxcH8ODQ5zPctqhz53mxXnOnxF2C46mIEzf/gofX1UekWKxWfAM0VFBEJDeIj4vj1KlTWAyDgAIF8fP3B0eyS/IHm81GZOQFEhL++9tvKLcpImkomSUikgMkxsVzcOu1/6NjySqV6DN1/DXNkZXWmSPH+OzF169rXS8/X175ZjaVQ+qmlB3cuo3pvZ91qRvSrvU1JbIAAooW4ZVv5zC2XVen8gvhEbzZtjOjfluik0dEJA+ymyYXL0Zy8eLlp+B6eHji7++Hj49vhh8+IrnkHigxkZjYGOJiY1N66aVlmsajwChFS0SSKZklIpKDWaxWCpYoRuFSJSlcKpAy1W/htk7tqFinZra1wdvfj8IlAylS+nIbygZV485HH6JQyRIudc8eO8HY9o+4lAdWrsizn027rv3fcms9nnj3TZeE29Edu3nvkX4M+nqmThQRkTwuKSmRyMhIIiMjU8qsVive3j74+Pjg5aW543M6u91OXFwc8fGxJMQncC397QzDVAZTRJwomSUiko0sViufROzOs/suVq4Ms07uzPTtNu/RleY9uuaI2N7MYygiIv+x2WzExEQTExPtssxqteLl5YWnpyeenpf/K1nLbreTkJBAYmICiYlJJCYmpNvT6jrMVYRFJDUls0REREREJE+x2WzExsYSGxubbh0DA4vVgqeHJ1YPD6weVjysHlitHlg9LJDPp+oyTRObLYkkmw1bUhJJSY7/2pKw2+3Z3BqLemaJiBMls0REREREJN8xMbHZbNhsNoi/9vUNDAyrgcWwYrUaGIYFi8WCxTDAYsFiWLBYLpcbJM9ibmAYpLw3HO+TC5PnAzMMA0xHPs00wTQxMVPmwjdT3ptO9UxMTLsd0zSx2+3Y7WbK/zftNux2OzbH8tx1sOyDgZE6a0UkmZJZIiIiIiIi18jExLSZ2LGTgYcOy40wDD3xRUScWBQCERERERERybnMPYqBiKSmZJaIiIiISHb/NDdNTNM0QkJCmmfVPkJCQggJCWlumnoSnIiI5C0aZigiIiIikk3q16/fBRgREhJSy1G0A6idFftyzIv0QUhISK369esn72vU1q1bFxqGYepoSK5hGsUUBBFJTcksEREREZEssjIqio/OnWN/QkJy0fyb2JxawPyQkBCU3JJcxW4OAAYqECKSTMksEREREZEb5OgFZYSEhHQGRoTs21crFzRbyS3JHfZHJyoIIpKaklkiIiIiItfIJXn137DB3EzJLcmZ3zdfj3WKgoikpmSWiIiIiMjVfkznzeTV1Si5JTlDKa8QBUFEUlMyS0RERETyrdtuuw2gls1m6+Juud1urwm0CAkJCcyK/RuGUSkkJOS3LPyIlRyJuMyQNrkVAay2WCw73VW2Wq0LNm7cuONqGzVXnbsci5ZFdUKK++9JvHlBURCR1JTMEhEREZF8y2azAdSy2+0jbsb+TdP0B1rm0vAFAl3sdnt6y3c6enNdOQanHZPj/3IOy11FMQ2dl5LKyXjsf56PUyBEJDUls0RERERE5KYzzyVgW3gKo7gXltsLY/pZFJT8bF8M5t+XMO0mhmEoxSkiTpTMEhGRfCcuKpoZA16m08vPUrFOTQUkj4uPieWT51+jdd8eVLv9VgVEnGzZsgVgvuPlIu1cWY6hdplpR1hYWO2s+GyOoYDbs6LNWTl3lnkmAdsPEQAYBT0xavhjlPdRj628LsaO+W8U5qFYsKc9rcy5CpCIpKZklojIFSQlJjLrmSFs+PZHPH288fL1Jfr8BXwC/OkzdQK33tdGQbqJdq1Zz7afV/Pg0Bfw9PbK0Drbfl7N5O5P0nHwMxlOZK2cOZtNS37i1aXXdy895bGnOLnvIOPXr3Aqn/H0S+xYvYYpO9fqYF6jAZUbEBcdzfNffkS9NlceoeXt50uHQf0Z1fohGj3Qnn4fvK0ASoY5OoSYwAJgQTYkt3Iit8mr7OgsY15MxFx/AdY79ulhQHkfjMp+UMxTJ2huFW9iHouDAzGYFxIzsIJFqUwRcaJklmS78yfDObL9X/wLF6JC7Rp4+fpcsf65E6c4umMXhUsFUja4Gh6e7m9cYi9FYRgGPgH+nDlyjGP/7qFImVKUrxWMxWLJtHVyVKIlIYH4mFh8CxbAlpDIob+3k5SQQKX6dfAtEHDluB4/yfFde/EJ8KfKrfWweri/HMRHx5CUmIh/4UKu+09MJD46Bm9/v3SPS2J8Asd27iLy9FnKBVejeIVyV2xXYnwCR3fsIur8eSrWrkmhkiXSrRtz8RJWqxVvfz/OHjvB0Z27KVm5AqWqVrniDbZpmpzad4DwA4cpVbUyJatUIj46Brvdjl/BAk71nq/RhICihfk4fJfTNv9euYopjz1F32kTaNr1gUw7plkZr2s935OPr2+BAJIc51dCTCwV6tSkYIliV25XXDxHduwi+vwFytcKpkjpkpl2fYiLisaWlORIZm3gp+kfc1foYynnvNXDA58Af/e/xlatYXL3Jxm65EuqN26YNT+8TJPwA4c4te8gpatVoWSVShn77KfCObp9F4UCi1O2RvVMvdYlizh4hBN79uHt50u5mkEUKFbUbftjIi/i7efLqX0HsdlsVKxTE9M02bdhC1ZPT6o0qJvpx/5aDZzzIe892o+gJrdlqH65mkF8eDiMYU3v5eOBQ+nz/nj9QRYlt3Jg8uqq19gkEw7GYh6MdT4uXhYo4QUlvTECvaCAVSfrzWYDTidghsdDeDxmZNIN/G21DwZGKqgikkwD0SV7bjxMkzfbdubpyiH88+vvlA2uRsShI4xt35X+FetxfPc+p/p2u51RrR9iQJUG7Fi1hvI1g0iMi2d8x8foU6oGh7e5ziX69kO9GFClAaPv6cyedZsoVq4Maxcs4cmytZny2FNu23U962TU3vWbCQ0MuuJr7rCxN7SPTUuX81z1RjxVvi7zR0/EJ8Af/8KFmTtsDKGBQaycOdtlnWXTZhEaGMSGb3+kbHA1AitXZN3CpfSvWI9Pnn/Npb7dbuelkJbMePoll2P6WpN7md77Obc/uv9euYrQwCCmPfEMAMXLl2XFR5/Tt3RNZj33ikv9rct+JjQwiA/6DMRitVCmelXWffM9/crUYmqvZ9x+/tFtHubpyiGMaNWRXX+up3zNII79u4dBte9gcL3mxMfEuiRBBtW+k0F17uTYv3spXyuY/RvDGHlXp8vnQZuHXX6wTN+3iQkbfna5gb9w6vLwBz83Sb7rkR3xutbzfceqNZfPrwr1+Hbi+3j7+RIdeZF3uoXSp2QwB7duc1ln3eLvCQ0M4tNBw/D08qJczSB2r93IwODGTHjg8Uy5PhzftZddazawa80Gwg8cAmDP2o0pZWnrp/bZi8Np1r3zNSey2vTredVeWYnxCQxpeDcv1GrK0R27KF8rmH0btjKiVUf+Xrkq3fUunTnHi3WbsW7hUspUv4WYi5d4856H6Ve2dsrnu9Hr1l/zvyU0MIg1876h5C2V8CtUkDmvjCY0MIiw5b+6JMueq96I15q2I+pCJD9M+Yg+pWrwZtvLD3qbO2wMA4MbZ8qxvxHBd9zOR0e2pZu4dMfD05Mn3h3Dmq+/Yd+GLfrjLJmW3DIMwwwLC1sQFhZWe+vWrcbWrVstQNdbvLxyy8fYAXTdunWrJSwszAgLC6sdFha2ICuGEGbZvWaCHfN4HOaWSOw/nca+4JTTy1wcjvnbOcwtF2F/DJxNxEgydQJfr2gb5vF42BmF+dcFzB9cY25ffAr7H+cw90TfUCLr8heNJQq6iDjd1ykEkh1m9B/M2eMn+eDAlpSkQPHyZWnapRMrZ3zO0R27KBtUNaX+B6HPERlxmg8O/Pdjo2jZ0gxfNp95IycwqvVDfHgoDG8/X6f9lA2uxhsrFqa8f2T0UHwL+PPd29M4ue8ApatWcWnb9ayTEbc0rM+0fZuuWMczk25yX/x6JjWaNUl53+f98TTscC9THnuKMtWrUqtFU6d2Afz75zrKBlcj+M7G3PHIg9zxyINut+1bIIDhy+bzevP7KV8rmHbP9nUkBV4n6ux53vz9e5d1Tu0/yJTHnqLHhBHc1bt7Snn3scNo1ftR1i1cytljJyhWrgwAR3fsYmqvZ+j1zpu0eLxrSv22/XvTokdXBlRpwII3J9Hl9Zdc9lXt9ludkgzFypXhto7tGN3mYd7pGspr33+VsmxS5ycoUrokb6xclFKW/NnHd3yMC+GnrxjnXX9tYN4b4zm8bQcN7mvDtH2bnHpyXa/sjNf1nO9P/e8dGnZoC0DFurVo0K41z1RryPIPP6X/jPdS6h0M+4cZ/QfT+fWXaP9cv5Tyxg/dT927m/N8zabMHTaW7mOH3dD1IfkcBjix53Liqm6blgQUKXzFOJ85epyzx05QOaROllznpvR4Cg8vLyZu+sXl/BrXoTuREWfcruft78fEzb+mJIWLVyjHqN+WMOvZIYxu8zDT92++4ePYtOsDTj0IT+47QFxUNADrv/mB+m3vctlH++f6Edy0EQWKFmHTkp/o8vpgqt1+K6379WRG/8GcO36SomVL39CxvxkqOY7/7rUbqdqogf5AS5YktwDT7Nx5QerylVFRfHTuHPsTEnJK8ipH9rzKsmSXzYQzCXAmgYyksAyrAX5W8LWCnwX8PTB8LeBnwfC2YvpYMLwtuXYeLyMJzHgbxNohznZ5vqoYGyS/Yu2YcbarxzW72gt7dHURESWzJNuFHzhMiYrl3d4ktXmyV7r13UkuP33oCOVqBjkt8ytU0KV+8hAXu839Y6OvZ52MiIuK5mDY9ivWKVauNKVuqXzD8fVxM6QwdZxIlcyq3rghn0TsBuDssRP8Pmc+21auZvuqPylZuSIvzpvlMrStbHA1np41hQ/7Pk+F2jWIjozkjy8X8OrSuS4JxeTjB1CyckWXZaWrVuHBoc+7rR9YyfWY+wT4U6B4Ubc9VJKTbemdJ7vXbXTez8Ej1EyV9Eu7HXfJrHPHTzLhgR7ERF6iyxsv8fqKhZk+BDU743V93xHnhJ2njzcBRQqT9lHspw8duRyzEyf55eM5Ltt5ZPRQCgWWuOHrw/VKHiobHxOTJde5iINHKFXV/ffZr2CBdJNZXr4+bns3Fi9fjthLUVw6e85lOOC1HseVMz7n6zfGU75mEE26dOS2Tu0Z9PVMnq/ZJN3PY3W0ycPL0+m9uyHJ13vsb4aE6Fin80Eku7QJCKBNQAAsWGCkGZao5FVOTX5dSrr8yubEjYiIXJ2GGUq2uKf/E+zfuJW/5n/rVH5iz35CA4OY9ewQl/p7129m7ULnHsVR5y+waMw7BDVt5JLIymn8ChWkVoumV3xlRiIL4Pc5C1zKvnz1TQKKFuH2h+53Kh/RqiPPVG1I7KUoipUrw919ejDo65nMPLGD+NhYFo191+0+but4Lw+8MpD3Hu3HjP4v8dBrg9J9Klidu5pRqmoVvnz1TZISnSf1/LDfIEIDgzh9+GhKWf1776JExXLMGTo6ZS6kZIvHTebSmXO07tfT/d35qjWcPXbCqWzPuk1sXLKMNn2d12nd73E2LlnG3vXOPV3OHT/J9t/+dL2RNU2G3t6GomVKM3XPBpr36HrNiax9G7awZ90mos5fSLdOdsYrKzW47x4CK1dk+69/0Kp3d+7u0yPlFXzH7az46DNKuEnAXev1wTnhUxYcidmr8S0QQLXbb2XtwqVZ8vnv7tuD7b/+4XIunTl6nH9+/SPd9S6dOceWH1c6lV0Ij+DHaTNp9EB7t/NaXYtdf23gq+Fv0WfqeEb++i1tnw6laJlS7Fi1hktnzt2UYx9z8RJ71m1iz7rLvVcjw0+zZ90mDob9A8DJvfvZs25TSuI2MyX/XanbuoX+OMtNkXZYYlY9yRAgLCyM5H3ktmGDImkUUwhEJDX1zJJs0fjhDtRr24o5Q0Yx69n/5v8JrFyBId/MJviO253qN+vemVvvb8sXL49g5oCX//vhWqEcg76aqaEhaZSsUonB9Vtw/sQpcPSc6TZqKC8v+syl7qjflrBu0VKG39me8yfDU8o9fbxp3a8nnYcPTnc/HQc/wx9fLqRU1crc/0L/dOtZrFbe+msZ//zyOy+HtCIy4nTKDXzLJx7lf4f/dprY28PTkwkbfyFsxW8Mrteci6fPptRvFdqdj45sw9PH2+2+qjVuyJJJ0/nz68WYjp5C1W6/lUlhqylappRT3U4vPUuzRx/mf0+96DRfToP72lDl1nouPWfOHT9JUkIiu9duJDTQffK07YBQuo18Jd1YvNut71WfuJad8crSPyienoxfv4Idq//i5ZCWKeeXX6GC1G51J8OXzXebmLnW60NqTTp3xDRN5o2YwO416zFNk5kndqT7QIOBX3zIi3Wb8c34KS493m5U2/69afRAe/7XbxDvduuTUl7/3rtp3LkD+zZsdbtelQZ12bt+Mx/2fSElOVm8QjleXTqXyvVvfEhkcNNGPD1rMrNfGsGsZy4nBr18fbj3mb7pJqSz+tgf3bGLCZ16APBJxG7+/nkVnw0aTmDlioxfv4Il73zA+sXf06JnN3pNGp1px+j47n3MHzWR3pPHpgyRFBGRXMCkHzBQgRCRZOpbnFnX186dcdf72Fi48KbG2DGcTP8Kl0etW7SUGU9fHvqWGT96r+bTQcPZtPQnJm9fc1OSJWkNvf0eSt1SiRfmzshQ/cS4eL6ZMIVyNYNo2qVTSnn0hUheqNmUBu3b8PSsyTqx8rjzJ8MZdkc7bn/o/kxNlEjOtmvNeiY+2JOek0bTsmc3BSSfCA0Mumn3YTn13jAnuvWZu3S/Klf71Tp+87RfX1UgRCSZemaJSIb8Nf9b/vhyAcN/WpAjElnXw9PHm3uf6ctb93Vj1jND8C9SmJgLkZimyV2hj9Fj/Bs60PlAkdIl+eDAFn6Y/BGREWcoFFhcQcnjTNPkwJZtvPfPnxQqWUIBERHJZQyIUxREJM11QTLlRlk9s0RERERyFPXMyh3UM0uu/qPVOLpp+i8VFAkRSaYJ4EVERERE5Ob9IPHwwOLhoacyyBWYBxUDEXH626EQiIiIiIjIzbJxygpMe9LvhoXbDYMkRUScGMYPm6b/qmSniDhRMktERERERG6qTVN/ZdPUXzdYDYunh8XSxDAM9cTJ30zDYGqVEsW8N0/75X6FQ0TSUjJLRCQPiIuK5v2eAzj8z84r1ouPieXDfoPYu36zgiYiIjnO+qk/s37qz+s2TfulCoaHgeFRA4wvDQybopPnHQb6FSjR3HPz9F8tm6b9OnDByAUJCouIuKOnGYqI5HLbfl7N5O5P0nHwM1SsU/OKdb39fOkwqD+jWj9Eowfa0++DtxVAERHJkTZPWwGwC+gB9Lh1ZAcAP8vZ6K520wjFNO/UA61yKyPCsLDAgsfMDVOX/+287FeFR0SuSsksyXbnT4ZzZPu/+BcuRIXaNfDy9XGpY7fZiL0UhbefLx5eXk7Loi9E4uHlhbefr8t6CbFxJMbH41+4EACnDx/Fr1DBlPd5LU6pnTtxiqM7dlG4VCBlg6vh4enptl7spSgMw8AnwJ8zR45x7N89FClTivK1grFYLJm2TnZ89rioaOx2O34FCziVJ8bFkxAXh1+hghiG6z1u9IVIvHx88PTxJjEuntNHjlG6WhW3dVPie/wkx3ftxSfAnyq31sPqcfXLZ2J8Akd37CLq/Hkq1q5JoZIlrlj/etq1Y9UaJnd/kqFLvqR644YZim+5mkF8eDiMYU3v5eOBQ+nz/nhdmEREJMfbPHIpQAzwmeMFQMsXHgAofCnpUkvDoDV2s7UJQYrYzWbEGPC7CSsxjJWbp/38j2IiIpl2hVEIMkdOffzyJxG7yQmPOjZNkzH3duHEnv08OuY1ajZvyp51m1j+wceEHzjM6ysWUTaoakr9/ZvCGNu+G/1nvkejTu2dtvVkudo0696ZxyeOdNnPtxOnsvSd6QQULUz1JrdRu1UzDoX9w+ov5tPogfb0n/HedX+GSZ2fYOfva69YZ9rejfgVKphtcbLb7bx5T2fCDxzi0THDqNWiKedOnOLrN8ZxcOs/vLFiIRXr1nLax+g2D3Po7+1Uql+H1n17UL5WMGvmfcvPM2dT565mPP/lRy7tup51svqzA7zTrQ/njp1g7JplTuU/TPmIRWPfZfKOvyhYopjLvkIDg1LK2zzZCw8vT36fs4CIQ0cZsXIR5Wr+d/+7bNosFox+m64jhtDogfZYPT3Z/usffPHKSBo9cB+hU95y2f7WZT8ztdcz1LunFZ1efpaAokXY/MMKFo6eRN02LXnu8+luY3At7Ur2coNW1GzelN6Tx15zzP/9Yy1vP/wEr33/FVUbNdCFXETynNDAoJt2H5ZT7w3zo3bPtQPwPkdiSJJpr49JXQPqAXVMKKAIXfvpjcEBA/4GtpkYf2M1tmye8vMRhUZEsot6Zkm2mNF/MGePn+SDA1tSepkUL1+Wpl06sXLG5xzdscslUXEjSZFHxw6n8UOX54ps8XhXer3z5g1v97nPP8Bmu/J0DWl7CGV1nD4IfY7IiNN8cGBLSlnRsqUZvmw+80ZOYFTrh/jwUJhLL7aywdV4Y8XClPePjB6KbwF/vnt7Gif3HaB01SoubbuedXLqOQLgW6AA49YtT3nf9ulQt/VuaVgfgH//XEfZ4GoE39mYOx55kDseedBt/aM7djG11zP0eudNWjze9b/t9+9Nix5dGVClAQvenESX11+6oXYBnDl6nLPHTlA5pM51xaCSY73dazcqmSUiInnWsqnLAOKBdY7XFSUnvy542MvbEs0KNtNWHoMKGFTApLxhUtI0CDQwA00zd/6eMgzjognhmIRjmCcxjSNYOILJEUzzCD7+Rza/s/SMzh4RyamUzJJsEX7gMCUqlnc7XKrNk70yfX/17mmZ6ds8tf8gUecjr1gn+I5GGRp+lllxSq7vTnL56UNHXHr0uOs9VqR0SQDsNrvb7V3POjn7HGmVoXrVGzdM7uHI2WMn+H3OfLatXM32VX9SsnJFXpw3i+IVyjl9DoDASq7HxSfAnwLFixJ+4NANtwtIGT4bHxNzXTFIiI512o6IiIg4Jb/2OV4iIpLD6GmGki3u6f8E+zdu5a/53zqVn9izn9DAIGY9O8SpvGSVigAc/nuHU/mfXy0mKSHxpnyGinVrUatF0yu+biSRdT1xuqf/E+xdv5m1C5c4lUedv8CiMe8Q1LSR26Fp2en8yXD2rNt01afsXetnTz5PIg4dJebiJafyVZ9/nWntH9GqI89UbUjspSiKlSvD3X16MOjrmcw8sYP42FgWjX3XqX79e++iRMVyzBk6GltSktOyxeMmc+nMOVr365kpbfMtEEC1229l7cKl17V+8nlTt3ULXaRERERERCTXUM8syRaNH+5AvbatmDNkFLOefSWlPLByBYZ8M5vgO253qh9QtAhvrf2JD/s+z7Jpsy6frF6e3PdCf7z9/RQnh2bdO3Pr/W354uURzBzwckp58QrlGPTVzBwxdGzDtz8wb8QEKtWrzRsrF2XaZwfoMe4NCpUozvPBjVMSR+VrB1OzeVP+mLswU9o/6rclrFu0lOF3tuf8yfCUck8fb1r360nn4YOdL6qenkzY+AthK35jcL3mXDx9Fi5356dVaHc+OrINTx/vTIvvwC8+5MW6zfhm/BQeHPp8htc7vnsf80dNpPfksRQtW1oXKRERERERyTU0AWUm0QTwInKznD8ZzrA72nH7Q/fTa9Loq9bftWY9Ex/sSc9Jo2nZs5sCKCJ5liaAFxERyZs0zFBEJJcrUrokHxzYQvFyZYmMuPJcraZpcmDLNt77508lskREREREJFfSMEMRkTzivheeumodwzBo/1w/BUtERERERHIt9cwSEREREREREZFcQ8ksERERERERERHJNZTMEhERERERERGRXEPJLBERERERERERyTU0AbyI5GgzB7zMhm9/5PUVi6hQOzhD68RHx5CYkEBAkcJXrHdiz362//YH50+comi5MtRr3ZLAyhXc1g0/cIiT+w6mu60KtWtQtEwpl/Jda9ZjsVqp3rhhhtoetuK3dJd5+XhTs3lTt8siI86wa816ju7YRbFyZajd6k5KVCzvVCcxLp4dv/+VoXaUDarqsv71+ueX37HZbFQJqUvBEsWuWNdus/Fm2y5cOBXBqN++u2p9ERERERHJf9QzS0Suy5Pl6/D16+OybPt2m43XmrbjyPZ/+fDQ1gwnssa278bsISOx2+zp1tm3YQuhgUF8MWQk1Ro1oPPrL1GuRnU+feE1QgOD2PDdjy7rrP/mB97v0R8vH29KV63i8vItGOB2X7NfGsG8EeMz/LmnPv40v38x3+0+Aiu5Jtr2bwqjT6kaTOrSm9LVbuHhYS9S5+7mfDLwVfqUDGbPuk0pda2eHi7b/POrRUzv/ZxLuX/hQpl2LD8dNIz3e/TnyPZ/r/5HyWplxM+LadmrGy/UasrBrdv0ZRMRERERESfqmSXZJur8BT4bNIwtP/6cUlakdEl6T36L2q3udPmBPrZ9N/rPfI9Gndo7J1HK1aZZ9848PnGkyz6+nTiVHyb/jzdWLmJ66EAiDh7GYrUSfEcjnp41JVN+oF88fZaZzw5hx29/ppT5Fy5E6PvjCLn3bpf600OfY/tvfzL2zx8pWrZ0Svm7j/TlUNh2xvz5IwWLF3VZb+3CJXzx8kjioqNTyhp2aMsT747Br1BBt23b/P0KPh00jJjIiyllTbt2oufbo/Hy9XGq+063Ppw7doKxa5Y5lf8w5SMWjX2XyTv+cuoVc/ifnYy6+0Gnuis++owVH32W8n7kr9+5JJ2uNV7JvhgykvjoaN75+/drOj6njxzj6M7dNH7ofurc3dxtnYN/bwegSecOVA6pC0CNOxtT487G/PPL7xSvUDbd7RcrV5aSVSpm6XfFJ8A/Q/s4vnsfY9t3o1Xv7jw+YURKefHyZXnluzlM6vwEEx54nKl7NuBXsAAWq9Vlu74FLifhsvIzla1RnW6jhrp8z6+k08vPERcdw7vd+vLejjV4eHrqIioiIiIiIqBklmSXNV9/w8cDh/L0rMk8+9n0lPLwA4d5rUlb7uzemd7vjcmUfdmSkvhm/BTGr1+RUvbN+Cn8teA77g59DIvVet3b/uXjOXz56psM+Ph9Bs/7OKXcNE1ebtCKJZOmM+LnxU7rPPPJVNbM+5aXQlry9Kwp1GzehNea3kulerV5f9c6l30kxsUz9PY2+BUqyAcHtzgt+2PuQp6tdhsD5/yP+ve0Sim/3IvpXjy9vXl/93oslv86Xc56dgj9K9ZjUthqt8PgMqpinZp8ErE75X3f0jVp1ftRHnvr9UyNV/Ix/P3LhTzwysBrbufk7WuuWqdNv5407NCWr4a/xeeD38Dq5Unjh+6ndd+e6SbAkv04dSZ+hQo4lRUsXox2z/bNtO/L4W07mDdygkt5k86dnJKF23/7A4DbOrVzu52XFn6WI77/qY/9tWj1RHeWf/AJm5b8ROOHO+hCKiIiIiIioGSWZJeVM2dT7fZbua2j84/uklUq8nH4rkzfX+/JY53ePzj0+cz5HDNm4+3vx9J3p7P03elOywzD4PC2HRwM+4fK9es4Lbuj2wME39GIV5u0JSk+gUfHvEabJ3u53cfmH1Zw/mQ4Ht5ejGjV0fVL6+XJqs++ckpmbft5NREHj/DSwk+dElkAfadNpO+0iTfnuF9nvE7s3odpt1MsVU+2zFakVEkGzJqS8j4hNo5fPp7DmHZdKFW1Cm+sXOS2N1D75/plec+sinVr0W3kK1etl9yrKiEmNk9eN4qXLwPAsX/36CIqIiIiIiL//S5WCCQ7lK5WhZ2r12C32Vx6Rn06aDjevj50f2t4SpnV8/KpmRiX4FT30tlzJCUkXv3E9vbKks9RJqgq546fYOiSuSmJhGTuPluymIuXeOu+R6jeuCEN2rVmztDRlKhUwSkhlbKP6lUBuK1jOzoPH+yy3N1+SlerAsCJ3ftdJgg/sGUbC9+cxMPDXuSWhvX/i5GHB4nxCS7bvxAekeF4mKaZJfEqXyuYAsWLcmT7Lpp2zfzj+GLdZvgWCHAaYunl60O7Z/tSomJ5PugzkC0/rKDRA/fl6O9V3dYtsHp4sOJ/n1K3dQuXY/NSSEuiz1/ggwNbbqhH4s1y+J+dANRs3kQXURERERER+e/3rEIg2eHJDyfx1n2P0L9iPR56dRA1W9zBxYjTzBs5gdNHjjFi5SKn+pXq1eaW20KYM3QUx/7dTd3WLdi7fjO/ffpVlrVxQOUGxEVH8/yXH1GvTUu3dZ77fDpv3f8oL9ZtRufhg6neuCFxUdGsmj2PdQuX8PSsKTTs0NZpnR2r/+KdLr3p/PpLtH+uHwA1mjVmRKtONH64I6FT3nKqX6FODQZ9NZP3Hu3H0e27aDugN4UCS3AobDuLxr5L0XKlGbJ4ttMcWCWrVEpZZ+OSZXQY9DSFSpZg09LlfP/eh9z56MNOiSyA1v168k7XUMZ16M6djz5MgWJFWP3FfP6+wtP0Ursr9DFWzf6ahJhYipYtQ1CThtRo1uSG45Ws/cAnmffGeNo904dCJUtk6rEevXoprze7n6cq1KXds/2o2rA+MRcvsmnpcrb8+DMh7Vqnm8j686tFBBQr4lJeu1UzygZVdbtOZMQZlv/vU/dxfKI7nj7eTmUn9ux3W9+3QADNH+uS8r5wyUDGrVvOmHZd6V+pPh1eeJoqDesRvv8Qi8dNJiE2ljF//HBDiazdazcyoVMPAD6J2M3vXy7gs0HDCaxckfHrV/BR/8GsX/w9LXp2o9ek0Zl6nBaMnkSlerXTfYKjiIiIiIjkT4ZCkDnMzp0BXLqpGAsX3tQYO+Y4MnNSrGKjojj+7178CxekZJVKV/yhbbfbiTh4mKhzF6hQu4bLJOY3U3x0DMd27aV4+bIUCiyeZfs5ffgoUecvULFOzQwlJUzTJOLgES6dOUupalUIKFL4ivWjL0Rycu8BCgUWp0TF8jkqXp88/yqbf1jJpK2rXHp2ZZaYi5cI338QgFJVq2TZfrJDzMVLHP93D8XKl72h+dFygpkDXmbbz6uZFLYabz9f/ZERkesSGhh00+7Dcuq9oYiISF6gP6Z5/IYlJyazRK7Fr5/OZc4ro3hx3sfX9DQ8yZ3ioqJ5vfn9FCtXhle+m4Nh6M+UiFw/JbMkD2gPPOum/Hlgr8IjIvmVhhmKSI52V+/u3NW7uwKRT/gE+PP2lt8UCBGRnMsKJF3HeknAKeBfYD6wCDivcF5VBcDdY4tHKDQikp9ZFAIREREREcliHkA5oA0wEzjn6LkWBQzIASNGljvak/p1TIdNRCTn/lERERERERG5EWcdPa7SKggEA9WBAm6W+wPTHa9xwGsKpYiIXI16ZomIiIiIyI067uhhlfbVA2joSGoZjld7x5DDtF4FDjuGMrrjDzwHHHDTiyrtKwoYDVzpyS7zHUMdzwN3uVleJtXy5NeCbGpbRjQF9l9hPxeB/wEZeSpMVrbf03Eu7M/Atu3AL0CvDGzfBxiWgTbvAV5WRw6RvEXJrDzOMMAw2KNIiIiISD67B9L9T861DCjtSLSkVQFY4aZ8nCOJ8j5QOQP78AdeBy4BEUAJN3UCgMKOl7tEh5FqefIrIJvadjUbgDVAlSvUKQA8BZx0zFnWKp16WdV+w9HOBEfPuyoZ+eo6EotjHeu5cysQA8QCYzLQ5mrARCDR0d5y+gqK5H5KZuVxjn+O+FqREBERkXx2D6T7n5zv6XR6aN3lSHal9iowyvH/9wC9gSBHr5/kHl/FgQmALc26JRxJjFppyt8D+jheO9y043yq5cmv99zUy4q2ZdRKoIUj0eYPNAbmuKlnBX4FPszG9n8B3Jam7JgjuWS4ed3i2Mdux9BUd8msT4FNgG+a8hmONhpp2vyxm/YedfQUE5FcTI8Gzqwbphz8+OVPTu8G2IVJkI6UiIiI5IM73N2hJYKCdW+YJdJ7muE2oN713Ko6kidpdQC+v842FgdOuykfmSppk9Zy4J40ZcezoBfPtbatfzoJqJ1AfUdvo/T8BLR1U971CsMlM7P9i4EH05RFOYb8LUpnO1cyCHg37VcNKOvofZaeMo4kWtrvXn3gb10wRXIn9czKB0JLBGGYRrCBsU7REBERkbzMwFh3sxNZck0eTKf8LzdlVkciZt1V5khKL0lyRxZ+juxu28CrJLJwJMLcuTub2t8bCE9TFuBIzkWkM1/WX256cyXr6PYrDyeu0ubj6XTiaKuvn0jupUnw8onegdWZfXpvEzBaJGFfiYmnoiIiIiJ5hkGiB5Y2PUtUW61g5BrLHcPj0poHnEv13gr86KbnVLJ4x5DA1D3hSmbTP9zfrLYVuoE60dnU/shUk893BZ53JKo80/0WQxPHPFs45rl6JdXyKDfrJF1HD69kCfoKiuReSmblIz1LVANYPfvCIS+gsi0hYa6J2ViRERERkdzKwFhn9fLq3rNwpYOKRq7g7RhmNszxNLq0tgKPpCkb4ibZchEols6QRxzDyspeQ7ti3ZQVdrQ3/grrZUfb3PkC2Ox4+qM7BYAf0lm28Ca0f77j5Y6XYxL6F93E9lNgl+P9LOB+N79nZwNDM9AGi6P3l4jkAUpm5UM9C1cCOOj4lw8+j9gLEGIz7A8AzQwoa5qUyYTHBYuIiIhkhijD4IR5ebjQH1bT8m2vwGpbFZYcpRqw3k15IcdT7DIyKuDxdCYvd3dPWtDR22dumvK7HE9L9LrG9i8BOqUp83dMRj4D2Ai0c3yePtncNnf8gEOOXlZfA2GOnkb1gC5XeMLgAGBtNrW/KHDEEccoRwJuHbDX8TrjWHYbcKeb9W2O9ZN953hoQNo5xF5xvPY65mDb4+hNVt0xMX3nVA8UmAd0V1JLJPfTBPCZJA9P8ikiIiIiujdMZr1Cj53rsQd4Ik2CxZ15jgRLRp1KNcQt2corDKfDMYn5iAxs+3VgTDa1zd0E8HbHMbiWpNgOoKUjgZQdsfV19BorcZ3nxQGgmWM+rLS8HRPYd7jObX8J9AXidKUSyb00AbyIiIiIiGSVJMcE3BsdPWvGAw0c/6huAEEZSGQBdHPU7+bYztE0y88Bv6Wq99l1tHWkY90Ojp5O7pJ264B/03QKyI62pRbrSOgUBKY7nmyYtq0xwOeOidkNoHY6iaysan8sEOhIevV39Hzb6WhXWhHAauAjoI1jH7ekk8jCMeyzo6NeUeBJYFU6va1OOhJt7zqeTGkAPZTIEsn91Gsok6hnloiIiIjo3lBERCTrqWeWiIiIiIiIiIjkGkpmiYiIiIiIiIhIrqFkloiIiIiIiIiI5BpKZomIiIiIiIiISK6hZFZmMQwwjKi0xWaXLgEKjoiIiEj+YXbpAoYR4OZ+MUrRERERuXFKZmXaXYsJprnJNcKWZgqOiIiISH66w7a4vwd0d68oIiIi1/6nViHIJFYrWK1TXcptthlmly5WBUhEREQk7zO7dAG73YrNNsPN/eJURUhEROTGKZmVSYx588BuX4xhfJtmUTngiBkaWkBREhEREcm7zNBQKFCgAHDEcQ+Y6mbR+MaYN2+xoiQiInLjDIUgk29iunYFmIPd/pibxe9Tu/YgY+RIuyIlIiIikkfu/0aOBLCwc+dk7PbnXCpYLF8a8+f3UKREREQyh5JZWXFD060bQDvs9u8xTdfeb4ZxAtMcgWF8aixYYFPERERERHLZ/V6XLgBWTLM3hjEK0yzj5p7PjsVyvzFv3jJFTEREJPMomZWVNzmdOwMMxjAmuk1qiYiIiEgevMM27JjmEGPhwncUDBERkSz4U6sQZD2ze3eAiiQljcVu7664i4iIiOS9Wz4slrl4eAwz5s49rHCIiIhkHSVVbsadzuOPA/iTkNAWu709pnkLhlEGKINpBihCIiIiIjnxztmIAk5gmicwjP1YLD/i5bXc+OKLaAVHREREREREREREREREREREREREREREREREREREREREREREREREREREREREREREREREREREREREREREREREREREREREREREREREREREREREREREREREREREREREREREREREREREREREREREREREREREREREREREREREREREREREREREREREREREREREREREROSG/B+dFNGUqSWMUwAAAABJRU5ErkJggg==;" vertex="1" parent="1">
          <mxGeometry x="130" y="880" width="1203" height="967" as="geometry" />
        </mxCell>
        <mxCell id="FmB3CAmOOuIV6bxuXIRM-27" value="" style="html=1;dashed=0;whitespace=wrap;" vertex="1" parent="1">
          <mxGeometry x="560" y="230" width="290" height="320" as="geometry" />
        </mxCell>
        <mxCell id="FmB3CAmOOuIV6bxuXIRM-24" value="Migration 1" style="html=1;dashed=0;whitespace=wrap;" vertex="1" parent="1">
          <mxGeometry x="880" y="190" width="190" height="50" as="geometry" />
        </mxCell>
        <mxCell id="FmB3CAmOOuIV6bxuXIRM-25" value="Migration 2" style="html=1;dashed=0;whitespace=wrap;" vertex="1" parent="1">
          <mxGeometry x="850" y="126" width="190" height="50" as="geometry" />
        </mxCell>
        <mxCell id="FmB3CAmOOuIV6bxuXIRM-26" value="Migration 3" style="html=1;dashed=0;whitespace=wrap;" vertex="1" parent="1">
          <mxGeometry x="850" y="40" width="190" height="50" as="geometry" />
        </mxCell>
      </root>
    </mxGraphModel>
  </diagram>
</mxfile>
